%TF.GenerationSoftware,KiCad,Pcbnew,8.0.8*%
%TF.CreationDate,2025-03-18T22:09:40-04:00*%
%TF.ProjectId,pcb v4,70636220-7634-42e6-9b69-6361645f7063,rev?*%
%TF.SameCoordinates,Original*%
%TF.FileFunction,Soldermask,Top*%
%TF.FilePolarity,Negative*%
%FSLAX46Y46*%
G04 Gerber Fmt 4.6, Leading zero omitted, Abs format (unit mm)*
G04 Created by KiCad (PCBNEW 8.0.8) date 2025-03-18 22:09:40*
%MOMM*%
%LPD*%
G01*
G04 APERTURE LIST*
G04 Aperture macros list*
%AMRoundRect*
0 Rectangle with rounded corners*
0 $1 Rounding radius*
0 $2 $3 $4 $5 $6 $7 $8 $9 X,Y pos of 4 corners*
0 Add a 4 corners polygon primitive as box body*
4,1,4,$2,$3,$4,$5,$6,$7,$8,$9,$2,$3,0*
0 Add four circle primitives for the rounded corners*
1,1,$1+$1,$2,$3*
1,1,$1+$1,$4,$5*
1,1,$1+$1,$6,$7*
1,1,$1+$1,$8,$9*
0 Add four rect primitives between the rounded corners*
20,1,$1+$1,$2,$3,$4,$5,0*
20,1,$1+$1,$4,$5,$6,$7,0*
20,1,$1+$1,$6,$7,$8,$9,0*
20,1,$1+$1,$8,$9,$2,$3,0*%
G04 Aperture macros list end*
%ADD10C,3.200000*%
%ADD11R,1.700000X1.700000*%
%ADD12O,1.700000X1.700000*%
%ADD13RoundRect,0.250000X0.400000X0.625000X-0.400000X0.625000X-0.400000X-0.625000X0.400000X-0.625000X0*%
%ADD14R,0.660400X1.549400*%
%ADD15R,1.295400X1.905000*%
%ADD16R,1.549400X0.660400*%
%ADD17R,1.905000X1.295400*%
%ADD18RoundRect,0.250000X-0.412500X-0.650000X0.412500X-0.650000X0.412500X0.650000X-0.412500X0.650000X0*%
%ADD19R,2.000000X1.200000*%
%ADD20O,2.000000X1.200000*%
%ADD21RoundRect,0.250000X2.050000X0.300000X-2.050000X0.300000X-2.050000X-0.300000X2.050000X-0.300000X0*%
%ADD22RoundRect,0.250002X4.449998X5.149998X-4.449998X5.149998X-4.449998X-5.149998X4.449998X-5.149998X0*%
%ADD23RoundRect,0.102000X0.604000X-0.604000X0.604000X0.604000X-0.604000X0.604000X-0.604000X-0.604000X0*%
%ADD24C,1.412000*%
%ADD25C,2.454000*%
%ADD26RoundRect,0.250000X-0.400000X-0.625000X0.400000X-0.625000X0.400000X0.625000X-0.400000X0.625000X0*%
%ADD27RoundRect,0.250000X0.625000X-0.400000X0.625000X0.400000X-0.625000X0.400000X-0.625000X-0.400000X0*%
%ADD28RoundRect,0.250000X-0.625000X0.400000X-0.625000X-0.400000X0.625000X-0.400000X0.625000X0.400000X0*%
%ADD29RoundRect,0.250001X0.462499X0.624999X-0.462499X0.624999X-0.462499X-0.624999X0.462499X-0.624999X0*%
%ADD30RoundRect,0.250001X-0.462499X-0.624999X0.462499X-0.624999X0.462499X0.624999X-0.462499X0.624999X0*%
%ADD31R,5.400000X2.900000*%
%ADD32RoundRect,0.250000X-0.600000X-0.725000X0.600000X-0.725000X0.600000X0.725000X-0.600000X0.725000X0*%
%ADD33O,1.700000X1.950000*%
%ADD34C,1.779000*%
%ADD35RoundRect,0.102000X-0.787500X-0.787500X0.787500X-0.787500X0.787500X0.787500X-0.787500X0.787500X0*%
%ADD36R,3.200000X3.200000*%
%ADD37O,3.200000X3.200000*%
%ADD38R,5.800000X2.500000*%
%ADD39R,1.600000X3.000000*%
%ADD40RoundRect,0.250000X0.412500X0.650000X-0.412500X0.650000X-0.412500X-0.650000X0.412500X-0.650000X0*%
%ADD41RoundRect,0.250000X-0.650000X0.412500X-0.650000X-0.412500X0.650000X-0.412500X0.650000X0.412500X0*%
%ADD42O,2.104000X1.304000*%
%ADD43RoundRect,0.102000X0.400000X-0.300000X0.400000X0.300000X-0.400000X0.300000X-0.400000X-0.300000X0*%
%ADD44RoundRect,0.102000X0.500000X-0.550000X0.500000X0.550000X-0.500000X0.550000X-0.500000X-0.550000X0*%
%ADD45RoundRect,0.102000X0.550000X-0.350000X0.550000X0.350000X-0.550000X0.350000X-0.550000X-0.350000X0*%
%ADD46RoundRect,0.102000X0.550000X-0.300000X0.550000X0.300000X-0.550000X0.300000X-0.550000X-0.300000X0*%
%ADD47RoundRect,0.102000X0.750000X-0.450000X0.750000X0.450000X-0.750000X0.450000X-0.750000X-0.450000X0*%
G04 APERTURE END LIST*
D10*
%TO.C,H4*%
X247000000Y-86500000D03*
%TD*%
%TO.C,H3*%
X138500000Y-86500000D03*
%TD*%
%TO.C,H2*%
X247000000Y-39000000D03*
%TD*%
%TO.C,H1*%
X138500000Y-39000000D03*
%TD*%
D11*
%TO.C,J16*%
X230025000Y-72000000D03*
D12*
X232565000Y-72000000D03*
%TD*%
D11*
%TO.C,J6*%
X232500000Y-68000000D03*
D12*
X229960000Y-68000000D03*
%TD*%
D13*
%TO.C,R11*%
X245550000Y-79500000D03*
X242450000Y-79500000D03*
%TD*%
D14*
%TO.C,J14*%
X151350001Y-84401500D03*
X152350002Y-84401500D03*
X153350000Y-84401500D03*
X154350001Y-84401500D03*
D15*
X155650000Y-88276501D03*
X150050002Y-88276501D03*
%TD*%
D14*
%TO.C,J13*%
X179650000Y-84401500D03*
X180650001Y-84401500D03*
X181649999Y-84401500D03*
X182650000Y-84401500D03*
D15*
X183949999Y-88276501D03*
X178350001Y-88276501D03*
%TD*%
D14*
%TO.C,J10*%
X165500000Y-84401500D03*
X166500001Y-84401500D03*
X167499999Y-84401500D03*
X168500000Y-84401500D03*
D15*
X169799999Y-88276501D03*
X164200001Y-88276501D03*
%TD*%
D16*
%TO.C,J3*%
X242401500Y-72000000D03*
X242401500Y-70999999D03*
X242401500Y-70000001D03*
X242401500Y-69000000D03*
D17*
X246276501Y-67700001D03*
X246276501Y-73299999D03*
%TD*%
D15*
%TO.C,J2*%
X189700001Y-88276501D03*
X195299999Y-88276501D03*
D14*
X194000000Y-84401500D03*
X192999999Y-84401500D03*
X192000001Y-84401500D03*
X191000000Y-84401500D03*
%TD*%
D18*
%TO.C,C7*%
X242437500Y-76500000D03*
X245562500Y-76500000D03*
%TD*%
D19*
%TO.C,U3*%
X200100000Y-42500000D03*
D20*
X200100000Y-45040000D03*
X200100000Y-47580000D03*
X200100000Y-50120000D03*
X200100000Y-52660000D03*
X200100000Y-55200000D03*
X200100000Y-57740000D03*
X200100000Y-60280000D03*
X200100000Y-62820000D03*
X200100000Y-65360000D03*
X200100000Y-67900000D03*
X200100000Y-70440000D03*
X200100000Y-72980000D03*
X200100000Y-75520000D03*
X200100000Y-78060000D03*
X200100000Y-80600000D03*
X200100000Y-83140000D03*
X200100000Y-85680000D03*
X200100000Y-88220000D03*
X225496320Y-88217280D03*
X225496320Y-85677280D03*
X225500000Y-83140000D03*
X225500000Y-80600000D03*
X225500000Y-78060000D03*
X225500000Y-75520000D03*
X225500000Y-72980000D03*
X225500000Y-70440000D03*
X225500000Y-67900000D03*
X225500000Y-65360000D03*
X225500000Y-62820000D03*
X225500000Y-60280000D03*
X225500000Y-57740000D03*
X225500000Y-55200000D03*
X225500000Y-52660000D03*
X225500000Y-50120000D03*
X225500000Y-47580000D03*
X225500000Y-45040000D03*
X225500000Y-42500000D03*
%TD*%
D21*
%TO.C,U2*%
X176725000Y-69400000D03*
X176725000Y-67700000D03*
X176725000Y-66000000D03*
D22*
X167575000Y-66000000D03*
D21*
X176725000Y-64300000D03*
X176725000Y-62600000D03*
%TD*%
%TO.C,U1*%
X176725000Y-39875000D03*
X176725000Y-41575000D03*
D22*
X167575000Y-43275000D03*
D21*
X176725000Y-43275000D03*
X176725000Y-44975000D03*
X176725000Y-46675000D03*
%TD*%
D23*
%TO.C,S1*%
X138500000Y-59500000D03*
D24*
X141000000Y-59500000D03*
X138500000Y-55500000D03*
X141000000Y-55500000D03*
X138500000Y-51500000D03*
X141000000Y-51500000D03*
D25*
X136750000Y-63000000D03*
X142750000Y-63000000D03*
X136750000Y-48000000D03*
X142750000Y-48000000D03*
%TD*%
D26*
%TO.C,R10*%
X147200000Y-88000000D03*
X144100000Y-88000000D03*
%TD*%
%TO.C,R9*%
X172550000Y-88000000D03*
X175650000Y-88000000D03*
%TD*%
%TO.C,R8*%
X158100000Y-84500000D03*
X161200000Y-84500000D03*
%TD*%
D13*
%TO.C,R7*%
X231550000Y-79500000D03*
X228450000Y-79500000D03*
%TD*%
D27*
%TO.C,R6*%
X228500000Y-53000000D03*
X228500000Y-49900000D03*
%TD*%
%TO.C,R5*%
X228500000Y-63550000D03*
X228500000Y-60450000D03*
%TD*%
D28*
%TO.C,R4*%
X196000000Y-41450000D03*
X196000000Y-44550000D03*
%TD*%
D13*
%TO.C,R3*%
X149050000Y-80000000D03*
X145950000Y-80000000D03*
%TD*%
%TO.C,R2*%
X145950000Y-57500000D03*
X149050000Y-57500000D03*
%TD*%
D26*
%TO.C,R1*%
X188450000Y-80000000D03*
X191550000Y-80000000D03*
%TD*%
D29*
%TO.C,LED4*%
X231487500Y-76500000D03*
X228512500Y-76500000D03*
%TD*%
%TO.C,LED3*%
X148987500Y-77000000D03*
X146012500Y-77000000D03*
%TD*%
%TO.C,LED2*%
X146057500Y-54500000D03*
X149032500Y-54500000D03*
%TD*%
D30*
%TO.C,LED1*%
X188500000Y-77000000D03*
X191475000Y-77000000D03*
%TD*%
D31*
%TO.C,L2*%
X186000000Y-72175000D03*
X186000000Y-62275000D03*
%TD*%
%TO.C,L1*%
X186000000Y-49450000D03*
X186000000Y-39550000D03*
%TD*%
D11*
%TO.C,J15*%
X196000000Y-69500000D03*
D12*
X196000000Y-72040000D03*
X196000000Y-74580000D03*
X196000000Y-77120000D03*
%TD*%
%TO.C,J12*%
X139025000Y-78820000D03*
X139025000Y-76280000D03*
X139025000Y-73740000D03*
D11*
X139025000Y-71200000D03*
%TD*%
%TO.C,J9*%
X196025000Y-61750000D03*
D12*
X196025000Y-64290000D03*
%TD*%
D11*
%TO.C,J8*%
X196000000Y-49000000D03*
D12*
X196000000Y-51540000D03*
X196000000Y-54080000D03*
X196000000Y-56620000D03*
%TD*%
D32*
%TO.C,J5*%
X231500000Y-43475000D03*
D33*
X234000000Y-43475000D03*
X236500000Y-43475000D03*
%TD*%
D32*
%TO.C,J4*%
X231500000Y-84475000D03*
D33*
X234000000Y-84475000D03*
X236500000Y-84475000D03*
%TD*%
D34*
%TO.C,J1*%
X187750000Y-57025000D03*
D35*
X190250000Y-57025000D03*
%TD*%
D36*
%TO.C,D3*%
X168620000Y-76225000D03*
D37*
X153380000Y-76225000D03*
%TD*%
%TO.C,D2*%
X153260000Y-54500000D03*
D36*
X168500000Y-54500000D03*
%TD*%
D38*
%TO.C,CP4*%
X147950000Y-66225000D03*
X158050000Y-66225000D03*
%TD*%
%TO.C,CP3*%
X158000000Y-44500000D03*
X147900000Y-44500000D03*
%TD*%
D39*
%TO.C,CP2*%
X176000000Y-74025000D03*
X176000000Y-78425000D03*
%TD*%
%TO.C,CP1*%
X176000000Y-55700000D03*
X176000000Y-51300000D03*
%TD*%
D40*
%TO.C,C6*%
X147212500Y-84500000D03*
X144087500Y-84500000D03*
%TD*%
%TO.C,C5*%
X175712500Y-84500000D03*
X172587500Y-84500000D03*
%TD*%
%TO.C,C4*%
X158087500Y-88000000D03*
X161212500Y-88000000D03*
%TD*%
D18*
%TO.C,C3*%
X235437500Y-66000000D03*
X238562500Y-66000000D03*
%TD*%
D40*
%TO.C,C2*%
X197562500Y-80500000D03*
X194437500Y-80500000D03*
%TD*%
D41*
%TO.C,C1*%
X187000000Y-84437500D03*
X187000000Y-87562500D03*
%TD*%
D42*
%TO.C,J7*%
X240400000Y-63844250D03*
X240400000Y-49444250D03*
D43*
X244000000Y-61864250D03*
X244000000Y-60954250D03*
X244000000Y-60044250D03*
X244000000Y-59134250D03*
X244000000Y-58224250D03*
X244000000Y-57314250D03*
X244000000Y-56404250D03*
X244000000Y-55494250D03*
X244000000Y-54584250D03*
D44*
X244100000Y-53334250D03*
D45*
X230650000Y-61944250D03*
D46*
X230650000Y-60344250D03*
X230650000Y-59444250D03*
X230650000Y-58544250D03*
X230650000Y-57644250D03*
X230650000Y-56744250D03*
X230650000Y-55844250D03*
X230650000Y-54944250D03*
X230650000Y-54044250D03*
D47*
X231160000Y-63944250D03*
X231160000Y-49344250D03*
%TD*%
M02*
