%TF.GenerationSoftware,KiCad,Pcbnew,8.0.8*%
%TF.CreationDate,2025-03-18T22:09:40-04:00*%
%TF.ProjectId,pcb v4,70636220-7634-42e6-9b69-6361645f7063,rev?*%
%TF.SameCoordinates,Original*%
%TF.FileFunction,Soldermask,Bot*%
%TF.FilePolarity,Negative*%
%FSLAX46Y46*%
G04 Gerber Fmt 4.6, Leading zero omitted, Abs format (unit mm)*
G04 Created by KiCad (PCBNEW 8.0.8) date 2025-03-18 22:09:40*
%MOMM*%
%LPD*%
G01*
G04 APERTURE LIST*
G04 Aperture macros list*
%AMRoundRect*
0 Rectangle with rounded corners*
0 $1 Rounding radius*
0 $2 $3 $4 $5 $6 $7 $8 $9 X,Y pos of 4 corners*
0 Add a 4 corners polygon primitive as box body*
4,1,4,$2,$3,$4,$5,$6,$7,$8,$9,$2,$3,0*
0 Add four circle primitives for the rounded corners*
1,1,$1+$1,$2,$3*
1,1,$1+$1,$4,$5*
1,1,$1+$1,$6,$7*
1,1,$1+$1,$8,$9*
0 Add four rect primitives between the rounded corners*
20,1,$1+$1,$2,$3,$4,$5,0*
20,1,$1+$1,$4,$5,$6,$7,0*
20,1,$1+$1,$6,$7,$8,$9,0*
20,1,$1+$1,$8,$9,$2,$3,0*%
G04 Aperture macros list end*
%ADD10C,3.200000*%
%ADD11R,1.700000X1.700000*%
%ADD12O,1.700000X1.700000*%
%ADD13R,2.000000X1.200000*%
%ADD14O,2.000000X1.200000*%
%ADD15RoundRect,0.102000X0.604000X-0.604000X0.604000X0.604000X-0.604000X0.604000X-0.604000X-0.604000X0*%
%ADD16C,1.412000*%
%ADD17C,2.454000*%
%ADD18RoundRect,0.250000X-0.600000X-0.725000X0.600000X-0.725000X0.600000X0.725000X-0.600000X0.725000X0*%
%ADD19O,1.700000X1.950000*%
%ADD20C,1.779000*%
%ADD21RoundRect,0.102000X-0.787500X-0.787500X0.787500X-0.787500X0.787500X0.787500X-0.787500X0.787500X0*%
%ADD22R,3.200000X3.200000*%
%ADD23O,3.200000X3.200000*%
%ADD24O,2.104000X1.304000*%
G04 APERTURE END LIST*
D10*
%TO.C,H4*%
X247000000Y-86500000D03*
%TD*%
%TO.C,H3*%
X138500000Y-86500000D03*
%TD*%
%TO.C,H2*%
X247000000Y-39000000D03*
%TD*%
%TO.C,H1*%
X138500000Y-39000000D03*
%TD*%
D11*
%TO.C,J16*%
X230025000Y-72000000D03*
D12*
X232565000Y-72000000D03*
%TD*%
D11*
%TO.C,J6*%
X232500000Y-68000000D03*
D12*
X229960000Y-68000000D03*
%TD*%
D13*
%TO.C,U3*%
X200100000Y-42500000D03*
D14*
X200100000Y-45040000D03*
X200100000Y-47580000D03*
X200100000Y-50120000D03*
X200100000Y-52660000D03*
X200100000Y-55200000D03*
X200100000Y-57740000D03*
X200100000Y-60280000D03*
X200100000Y-62820000D03*
X200100000Y-65360000D03*
X200100000Y-67900000D03*
X200100000Y-70440000D03*
X200100000Y-72980000D03*
X200100000Y-75520000D03*
X200100000Y-78060000D03*
X200100000Y-80600000D03*
X200100000Y-83140000D03*
X200100000Y-85680000D03*
X200100000Y-88220000D03*
X225496320Y-88217280D03*
X225496320Y-85677280D03*
X225500000Y-83140000D03*
X225500000Y-80600000D03*
X225500000Y-78060000D03*
X225500000Y-75520000D03*
X225500000Y-72980000D03*
X225500000Y-70440000D03*
X225500000Y-67900000D03*
X225500000Y-65360000D03*
X225500000Y-62820000D03*
X225500000Y-60280000D03*
X225500000Y-57740000D03*
X225500000Y-55200000D03*
X225500000Y-52660000D03*
X225500000Y-50120000D03*
X225500000Y-47580000D03*
X225500000Y-45040000D03*
X225500000Y-42500000D03*
%TD*%
D15*
%TO.C,S1*%
X138500000Y-59500000D03*
D16*
X141000000Y-59500000D03*
X138500000Y-55500000D03*
X141000000Y-55500000D03*
X138500000Y-51500000D03*
X141000000Y-51500000D03*
D17*
X136750000Y-63000000D03*
X142750000Y-63000000D03*
X136750000Y-48000000D03*
X142750000Y-48000000D03*
%TD*%
D11*
%TO.C,J15*%
X196000000Y-69500000D03*
D12*
X196000000Y-72040000D03*
X196000000Y-74580000D03*
X196000000Y-77120000D03*
%TD*%
%TO.C,J12*%
X139025000Y-78820000D03*
X139025000Y-76280000D03*
X139025000Y-73740000D03*
D11*
X139025000Y-71200000D03*
%TD*%
%TO.C,J9*%
X196025000Y-61750000D03*
D12*
X196025000Y-64290000D03*
%TD*%
D11*
%TO.C,J8*%
X196000000Y-49000000D03*
D12*
X196000000Y-51540000D03*
X196000000Y-54080000D03*
X196000000Y-56620000D03*
%TD*%
D18*
%TO.C,J5*%
X231500000Y-43475000D03*
D19*
X234000000Y-43475000D03*
X236500000Y-43475000D03*
%TD*%
D18*
%TO.C,J4*%
X231500000Y-84475000D03*
D19*
X234000000Y-84475000D03*
X236500000Y-84475000D03*
%TD*%
D20*
%TO.C,J1*%
X187750000Y-57025000D03*
D21*
X190250000Y-57025000D03*
%TD*%
D22*
%TO.C,D3*%
X168620000Y-76225000D03*
D23*
X153380000Y-76225000D03*
%TD*%
%TO.C,D2*%
X153260000Y-54500000D03*
D22*
X168500000Y-54500000D03*
%TD*%
D24*
%TO.C,J7*%
X240400000Y-63844250D03*
X240400000Y-49444250D03*
%TD*%
M02*
