%TF.GenerationSoftware,KiCad,Pcbnew,8.0.8*%
%TF.CreationDate,2025-03-18T22:09:40-04:00*%
%TF.ProjectId,pcb v4,70636220-7634-42e6-9b69-6361645f7063,rev?*%
%TF.SameCoordinates,Original*%
%TF.FileFunction,Copper,L2,Bot*%
%TF.FilePolarity,Positive*%
%FSLAX46Y46*%
G04 Gerber Fmt 4.6, Leading zero omitted, Abs format (unit mm)*
G04 Created by KiCad (PCBNEW 8.0.8) date 2025-03-18 22:09:40*
%MOMM*%
%LPD*%
G01*
G04 APERTURE LIST*
G04 Aperture macros list*
%AMRoundRect*
0 Rectangle with rounded corners*
0 $1 Rounding radius*
0 $2 $3 $4 $5 $6 $7 $8 $9 X,Y pos of 4 corners*
0 Add a 4 corners polygon primitive as box body*
4,1,4,$2,$3,$4,$5,$6,$7,$8,$9,$2,$3,0*
0 Add four circle primitives for the rounded corners*
1,1,$1+$1,$2,$3*
1,1,$1+$1,$4,$5*
1,1,$1+$1,$6,$7*
1,1,$1+$1,$8,$9*
0 Add four rect primitives between the rounded corners*
20,1,$1+$1,$2,$3,$4,$5,0*
20,1,$1+$1,$4,$5,$6,$7,0*
20,1,$1+$1,$6,$7,$8,$9,0*
20,1,$1+$1,$8,$9,$2,$3,0*%
G04 Aperture macros list end*
%TA.AperFunction,ComponentPad*%
%ADD10R,1.700000X1.700000*%
%TD*%
%TA.AperFunction,ComponentPad*%
%ADD11O,1.700000X1.700000*%
%TD*%
%TA.AperFunction,ComponentPad*%
%ADD12R,2.000000X1.200000*%
%TD*%
%TA.AperFunction,ComponentPad*%
%ADD13O,2.000000X1.200000*%
%TD*%
%TA.AperFunction,ComponentPad*%
%ADD14R,1.208000X1.208000*%
%TD*%
%TA.AperFunction,ComponentPad*%
%ADD15C,1.208000*%
%TD*%
%TA.AperFunction,ComponentPad*%
%ADD16C,2.250000*%
%TD*%
%TA.AperFunction,ComponentPad*%
%ADD17RoundRect,0.250000X-0.600000X-0.725000X0.600000X-0.725000X0.600000X0.725000X-0.600000X0.725000X0*%
%TD*%
%TA.AperFunction,ComponentPad*%
%ADD18O,1.700000X1.950000*%
%TD*%
%TA.AperFunction,ComponentPad*%
%ADD19C,1.575000*%
%TD*%
%TA.AperFunction,ComponentPad*%
%ADD20R,1.575000X1.575000*%
%TD*%
%TA.AperFunction,ComponentPad*%
%ADD21R,3.200000X3.200000*%
%TD*%
%TA.AperFunction,ComponentPad*%
%ADD22O,3.200000X3.200000*%
%TD*%
%TA.AperFunction,ComponentPad*%
%ADD23O,1.900000X1.100000*%
%TD*%
%TA.AperFunction,ViaPad*%
%ADD24C,0.600000*%
%TD*%
%TA.AperFunction,ViaPad*%
%ADD25C,1.000000*%
%TD*%
%TA.AperFunction,ViaPad*%
%ADD26C,0.800000*%
%TD*%
%TA.AperFunction,Conductor*%
%ADD27C,0.500000*%
%TD*%
%TA.AperFunction,Conductor*%
%ADD28C,0.400000*%
%TD*%
%TA.AperFunction,Conductor*%
%ADD29C,0.200000*%
%TD*%
G04 APERTURE END LIST*
D10*
%TO.P,J16,1,Pin_1*%
%TO.N,/Boot0*%
X230025000Y-72000000D03*
D11*
%TO.P,J16,2,Pin_2*%
%TO.N,/Boot2*%
X232565000Y-72000000D03*
%TD*%
D10*
%TO.P,J6,1,Pin_1*%
%TO.N,/TX*%
X232500000Y-68000000D03*
D11*
%TO.P,J6,2,Pin_2*%
%TO.N,/RX*%
X229960000Y-68000000D03*
%TD*%
D12*
%TO.P,U3,1,3V3*%
%TO.N,Net-(U3-3V3)*%
X200100000Y-42500000D03*
D13*
%TO.P,U3,2,CHIP_PU*%
%TO.N,Net-(U3-CHIP_PU)*%
X200100000Y-45040000D03*
%TO.P,U3,3,SENSOR_VP/GPIO36/ADC1_CH0*%
%TO.N,/ADC1_CH0*%
X200100000Y-47580000D03*
%TO.P,U3,4,SENSOR_VN/GPIO39/ADC1_CH3*%
%TO.N,/ADC1_CH3*%
X200100000Y-50120000D03*
%TO.P,U3,5,VDET_1/GPIO34/ADC1_CH6*%
%TO.N,/ADC1_CH6*%
X200100000Y-52660000D03*
%TO.P,U3,6,VDET_2/GPIO35/ADC1_CH7*%
%TO.N,/ADC1_CH7*%
X200100000Y-55200000D03*
%TO.P,U3,7,32K_XP/GPIO32/ADC1_CH4*%
%TO.N,SDA1*%
X200100000Y-57740000D03*
%TO.P,U3,8,32K_XN/GPIO33/ADC1_CH5*%
%TO.N,SCL1*%
X200100000Y-60280000D03*
%TO.P,U3,9,DAC_1/ADC2_CH8/GPIO25*%
%TO.N,Net-(J7-CD)*%
X200100000Y-62820000D03*
%TO.P,U3,10,DAC_2/ADC2_CH9/GPIO26*%
%TO.N,/DAC1*%
X200100000Y-65360000D03*
%TO.P,U3,11,ADC2_CH7/GPIO27*%
%TO.N,/DAC2*%
X200100000Y-67900000D03*
%TO.P,U3,12,MTMS/GPIO14/ADC2_CH6*%
%TO.N,/GPIO14*%
X200100000Y-70440000D03*
%TO.P,U3,13,MTDI/GPIO12/ADC2_CH5*%
%TO.N,/GPIO12*%
X200100000Y-72980000D03*
%TO.P,U3,14,GND*%
%TO.N,GND*%
X200100000Y-75520000D03*
%TO.P,U3,15,MTCK/GPIO13/ADC2_CH4*%
%TO.N,/GPIO13*%
X200100000Y-78060000D03*
%TO.P,U3,16,SD_DATA2/GPIO9*%
%TO.N,unconnected-(U3-SD_DATA2{slash}GPIO9-Pad16)*%
X200100000Y-80600000D03*
%TO.P,U3,17,SD_DATA3/GPIO10*%
%TO.N,unconnected-(U3-SD_DATA3{slash}GPIO10-Pad17)*%
X200100000Y-83140000D03*
%TO.P,U3,18,CMD*%
%TO.N,unconnected-(U3-CMD-Pad18)*%
X200100000Y-85680000D03*
%TO.P,U3,19,5V*%
%TO.N,5V*%
X200100000Y-88220000D03*
%TO.P,U3,20,SD_CLK/GPIO6*%
%TO.N,unconnected-(U3-SD_CLK{slash}GPIO6-Pad20)*%
X225496320Y-88217280D03*
%TO.P,U3,21,SD_DATA0/GPIO7*%
%TO.N,unconnected-(U3-SD_DATA0{slash}GPIO7-Pad21)*%
X225496320Y-85677280D03*
%TO.P,U3,22,SD_DATA1/GPIO8*%
%TO.N,unconnected-(U3-SD_DATA1{slash}GPIO8-Pad22)*%
X225500000Y-83140000D03*
%TO.P,U3,23,MTDO/GPIO15/ADC2_CH3*%
%TO.N,/GPIO15*%
X225500000Y-80600000D03*
%TO.P,U3,24,ADC2_CH2/GPIO2*%
%TO.N,/Boot2*%
X225500000Y-78060000D03*
%TO.P,U3,25,GPIO0/BOOT/ADC2_CH1*%
%TO.N,/Boot0*%
X225500000Y-75520000D03*
%TO.P,U3,26,ADC2_CH0/GPIO4*%
%TO.N,/GPIO04*%
X225500000Y-72980000D03*
%TO.P,U3,27,GPIO16*%
%TO.N,SDA2*%
X225500000Y-70440000D03*
%TO.P,U3,28,GPIO17*%
%TO.N,SCL2*%
X225500000Y-67900000D03*
%TO.P,U3,29,GPIO5*%
%TO.N,Net-(J4-Pin_1)*%
X225500000Y-65360000D03*
%TO.P,U3,30,GPIO18*%
%TO.N,Net-(J7-CD{slash}DAT3)*%
X225500000Y-62820000D03*
%TO.P,U3,31,GPIO19*%
%TO.N,Net-(J7-DAT0{slash}RCLK+)*%
X225500000Y-60280000D03*
%TO.P,U3,32,GND*%
%TO.N,GND*%
X225500000Y-57740000D03*
%TO.P,U3,33,GPIO21*%
%TO.N,Net-(J7-CLK)*%
X225500000Y-55200000D03*
%TO.P,U3,34,U0RXD/GPIO3*%
%TO.N,/RX*%
X225500000Y-52660000D03*
%TO.P,U3,35,U0TXD/GPIO1*%
%TO.N,/TX*%
X225500000Y-50120000D03*
%TO.P,U3,36,GPIO22*%
%TO.N,Net-(J7-CMD)*%
X225500000Y-47580000D03*
%TO.P,U3,37,GPIO23*%
%TO.N,Net-(J5-Pin_1)*%
X225500000Y-45040000D03*
%TO.P,U3,38,GND*%
%TO.N,GND*%
X225500000Y-42500000D03*
%TD*%
D14*
%TO.P,S1,1*%
%TO.N,5V*%
X138500000Y-59500000D03*
D15*
%TO.P,S1,4*%
%TO.N,3V3*%
X141000000Y-59500000D03*
%TO.P,S1,2*%
%TO.N,5V0*%
X138500000Y-55500000D03*
%TO.P,S1,5*%
%TO.N,3V30*%
X141000000Y-55500000D03*
%TO.P,S1,3*%
%TO.N,unconnected-(S1-Pad3)*%
X138500000Y-51500000D03*
%TO.P,S1,6*%
%TO.N,unconnected-(S1-Pad6)*%
X141000000Y-51500000D03*
D16*
%TO.P,S1,SH1*%
%TO.N,N/C*%
X136750000Y-63000000D03*
%TO.P,S1,SH4*%
X142750000Y-63000000D03*
%TO.P,S1,SH2*%
X136750000Y-48000000D03*
%TO.P,S1,SH3*%
X142750000Y-48000000D03*
%TD*%
D10*
%TO.P,J15,1,Pin_1*%
%TO.N,/GPIO14*%
X196000000Y-69500000D03*
D11*
%TO.P,J15,2,Pin_2*%
%TO.N,/GPIO12*%
X196000000Y-72040000D03*
%TO.P,J15,3,Pin_3*%
%TO.N,/GPIO13*%
X196000000Y-74580000D03*
%TO.P,J15,4,Pin_4*%
%TO.N,/GPIO15*%
X196000000Y-77120000D03*
%TD*%
%TO.P,J12,4,Pin_4*%
%TO.N,GND*%
X139025000Y-78820000D03*
%TO.P,J12,3,Pin_3*%
%TO.N,3V3*%
X139025000Y-76280000D03*
%TO.P,J12,2,Pin_2*%
%TO.N,GND*%
X139025000Y-73740000D03*
D10*
%TO.P,J12,1,Pin_1*%
%TO.N,5V*%
X139025000Y-71200000D03*
%TD*%
%TO.P,J9,1,Pin_1*%
%TO.N,/DAC1*%
X196025000Y-61750000D03*
D11*
%TO.P,J9,2,Pin_2*%
%TO.N,/DAC2*%
X196025000Y-64290000D03*
%TD*%
D10*
%TO.P,J8,1,Pin_1*%
%TO.N,/ADC1_CH0*%
X196000000Y-49000000D03*
D11*
%TO.P,J8,2,Pin_2*%
%TO.N,/ADC1_CH3*%
X196000000Y-51540000D03*
%TO.P,J8,3,Pin_3*%
%TO.N,/ADC1_CH6*%
X196000000Y-54080000D03*
%TO.P,J8,4,Pin_4*%
%TO.N,/ADC1_CH7*%
X196000000Y-56620000D03*
%TD*%
D17*
%TO.P,J5,1,Pin_1*%
%TO.N,Net-(J5-Pin_1)*%
X231500000Y-43475000D03*
D18*
%TO.P,J5,2,Pin_2*%
%TO.N,Net-(J4-Pin_2)*%
X234000000Y-43475000D03*
%TO.P,J5,3,Pin_3*%
%TO.N,GND*%
X236500000Y-43475000D03*
%TD*%
D17*
%TO.P,J4,1,Pin_1*%
%TO.N,Net-(J4-Pin_1)*%
X231500000Y-84475000D03*
D18*
%TO.P,J4,2,Pin_2*%
%TO.N,Net-(J4-Pin_2)*%
X234000000Y-84475000D03*
%TO.P,J4,3,Pin_3*%
%TO.N,GND*%
X236500000Y-84475000D03*
%TD*%
D19*
%TO.P,J1,2,2*%
%TO.N,BTRY*%
X187750000Y-57025000D03*
D20*
%TO.P,J1,1,1*%
%TO.N,GND*%
X190250000Y-57025000D03*
%TD*%
D21*
%TO.P,D3,1,K*%
%TO.N,Net-(D3-K)*%
X168620000Y-76225000D03*
D22*
%TO.P,D3,2,A*%
%TO.N,GND*%
X153380000Y-76225000D03*
%TD*%
%TO.P,D2,2,A*%
%TO.N,GND*%
X153260000Y-54500000D03*
D21*
%TO.P,D2,1,K*%
%TO.N,Net-(D2-K)*%
X168500000Y-54500000D03*
%TD*%
D23*
%TO.P,J7,P13,COVER_GND__3*%
%TO.N,GND*%
X240400000Y-63844250D03*
%TO.P,J7,P12,COVER_GND__2*%
X240400000Y-49444250D03*
%TD*%
D24*
%TO.N,GND*%
X230650000Y-58544250D03*
D25*
X198000000Y-59500000D03*
X194500000Y-67000000D03*
X232500000Y-48000000D03*
X232500000Y-51500000D03*
X236000000Y-53000000D03*
X223000000Y-50500000D03*
X223000000Y-49000000D03*
X224000000Y-59000000D03*
X224000000Y-56500000D03*
X162000000Y-82500000D03*
X153000000Y-89000000D03*
X167000000Y-89000000D03*
X181500000Y-89000000D03*
X189000000Y-45000000D03*
X155000000Y-41000000D03*
X155500000Y-49500000D03*
X140000000Y-44500000D03*
X136500000Y-54500000D03*
X142000000Y-82500000D03*
X176500000Y-82500000D03*
X154500000Y-71500000D03*
X181000000Y-72000000D03*
X217000000Y-85500000D03*
X209000000Y-66500000D03*
X215000000Y-70500000D03*
X238000000Y-77000000D03*
X249000000Y-79000000D03*
X248000000Y-57000000D03*
X243500000Y-44500000D03*
X237000000Y-37500000D03*
X227500000Y-38000000D03*
X207500000Y-53500000D03*
X200500000Y-38500000D03*
X216500000Y-47000000D03*
X212500000Y-55500000D03*
X190500000Y-68000000D03*
X194000000Y-59500000D03*
X192500000Y-60500000D03*
X190000000Y-63500000D03*
X170000000Y-66000000D03*
X170000000Y-69000000D03*
X167500000Y-69000000D03*
X165000000Y-69000000D03*
X165000000Y-66000000D03*
X165000000Y-63500000D03*
X167500000Y-63500000D03*
X170000000Y-63500000D03*
X167575000Y-66000000D03*
X165000000Y-46500000D03*
X167500000Y-46500000D03*
X170000000Y-46500000D03*
X170000000Y-43000000D03*
X165000000Y-43000000D03*
X165000000Y-40000000D03*
X167500000Y-40000000D03*
X170000000Y-40000000D03*
X167575000Y-43275000D03*
X136500000Y-74000000D03*
X141500000Y-75000000D03*
X141500000Y-76500000D03*
%TO.N,3V3*%
X185062500Y-82500000D03*
X170500000Y-81000000D03*
D26*
%TO.N,/GPIO15*%
X208750000Y-78250000D03*
%TO.N,/RX*%
X222500000Y-54500000D03*
D25*
%TO.N,Net-(J7-CD{slash}DAT3)*%
X228500000Y-63550000D03*
D26*
X230650000Y-54944250D03*
%TO.N,3V3*%
X228500000Y-56500000D03*
D25*
X228500000Y-60450000D03*
X228500000Y-49900000D03*
X146057500Y-54500000D03*
%TO.N,/GPIO04*%
X228512500Y-76500000D03*
%TO.N,5V*%
X185000000Y-86500000D03*
D24*
%TO.N,SCL2*%
X182650000Y-84401500D03*
%TO.N,SDA2*%
X181649999Y-84401500D03*
%TO.N,SCL2*%
X168500000Y-84401500D03*
%TO.N,SDA2*%
X167499999Y-84401500D03*
%TO.N,SCL2*%
X154350001Y-84401500D03*
%TO.N,SDA2*%
X153350000Y-84401500D03*
D25*
%TO.N,3V30*%
X147950000Y-66225000D03*
%TO.N,5V*%
X146012500Y-77000000D03*
%TO.N,BTRY*%
X176725000Y-69500000D03*
X191475000Y-77000000D03*
X176012500Y-74012500D03*
%TO.N,5V*%
X147212500Y-84500000D03*
%TO.N,Net-(J4-Pin_2)*%
X236000000Y-63000000D03*
%TO.N,BTRY*%
X176000000Y-51300000D03*
%TD*%
D27*
%TO.N,GND*%
X138765000Y-74000000D02*
X136500000Y-74000000D01*
X139025000Y-73740000D02*
X138765000Y-74000000D01*
X140240000Y-73740000D02*
X141500000Y-75000000D01*
X139025000Y-73740000D02*
X140240000Y-73740000D01*
D28*
%TO.N,3V3*%
X183562500Y-81000000D02*
X185062500Y-82500000D01*
X170500000Y-81000000D02*
X183562500Y-81000000D01*
%TO.N,Net-(J4-Pin_2)*%
X234000000Y-65000000D02*
X234000000Y-84475000D01*
X236000000Y-63000000D02*
X234000000Y-65000000D01*
D29*
%TO.N,/GPIO15*%
X208750000Y-78250000D02*
X209000000Y-78000000D01*
X199000000Y-79000000D02*
X208000000Y-79000000D01*
X208000000Y-79000000D02*
X208750000Y-78250000D01*
X196000000Y-77120000D02*
X197120000Y-77120000D01*
X197120000Y-77120000D02*
X199000000Y-79000000D01*
%TO.N,/ADC1_CH0*%
X198680000Y-49000000D02*
X200100000Y-47580000D01*
X196000000Y-49000000D02*
X198680000Y-49000000D01*
%TO.N,/ADC1_CH3*%
X198680000Y-51540000D02*
X200100000Y-50120000D01*
X196000000Y-51540000D02*
X198680000Y-51540000D01*
%TO.N,/ADC1_CH6*%
X198680000Y-54080000D02*
X200100000Y-52660000D01*
X196000000Y-54080000D02*
X198680000Y-54080000D01*
%TO.N,/ADC1_CH7*%
X198680000Y-56620000D02*
X200100000Y-55200000D01*
X196000000Y-56620000D02*
X198680000Y-56620000D01*
%TO.N,/DAC1*%
X196490000Y-61750000D02*
X200100000Y-65360000D01*
X196025000Y-61750000D02*
X196490000Y-61750000D01*
%TO.N,/DAC2*%
X199635000Y-67900000D02*
X200100000Y-67900000D01*
X196025000Y-64290000D02*
X199635000Y-67900000D01*
%TO.N,/GPIO14*%
X196940000Y-70440000D02*
X200100000Y-70440000D01*
X196000000Y-69500000D02*
X196940000Y-70440000D01*
%TO.N,/GPIO12*%
X196940000Y-72980000D02*
X200100000Y-72980000D01*
X196000000Y-72040000D02*
X196940000Y-72980000D01*
%TO.N,/GPIO13*%
X199480000Y-78060000D02*
X200100000Y-78060000D01*
X196000000Y-74580000D02*
X199480000Y-78060000D01*
%TO.N,/TX*%
X233000000Y-67500000D02*
X232500000Y-68000000D01*
X233000000Y-53500000D02*
X233000000Y-67500000D01*
X231000000Y-51500000D02*
X233000000Y-53500000D01*
X228500000Y-51500000D02*
X231000000Y-51500000D01*
X227120000Y-50120000D02*
X228500000Y-51500000D01*
X225500000Y-50120000D02*
X227120000Y-50120000D01*
%TO.N,/RX*%
X226000000Y-64000000D02*
X224000000Y-64000000D01*
X226500000Y-64500000D02*
X226000000Y-64000000D01*
X222500000Y-62500000D02*
X222500000Y-54500000D01*
X226500000Y-64540000D02*
X226500000Y-64500000D01*
X229960000Y-68000000D02*
X226500000Y-64540000D01*
X224000000Y-64000000D02*
X222500000Y-62500000D01*
%TO.N,Net-(J7-CD{slash}DAT3)*%
X230650000Y-55150000D02*
X230650000Y-54944250D01*
X232000000Y-56500000D02*
X230650000Y-55150000D01*
X232000000Y-60050000D02*
X232000000Y-56500000D01*
X228500000Y-63550000D02*
X232000000Y-60050000D01*
D28*
%TO.N,3V3*%
X228500000Y-60450000D02*
X228500000Y-56500000D01*
X228500000Y-56500000D02*
X228500000Y-56000000D01*
X226140000Y-46140000D02*
X223360000Y-46140000D01*
X226500000Y-46500000D02*
X226140000Y-46140000D01*
X223360000Y-46140000D02*
X221500000Y-48000000D01*
X227500000Y-46500000D02*
X226500000Y-46500000D01*
X228500000Y-47500000D02*
X227500000Y-46500000D01*
X228500000Y-49900000D02*
X228500000Y-47500000D01*
X224500000Y-54000000D02*
X221500000Y-51000000D01*
X221500000Y-51000000D02*
X221500000Y-48000000D01*
X226500000Y-54000000D02*
X224500000Y-54000000D01*
X228500000Y-56000000D02*
X226500000Y-54000000D01*
X214500000Y-41000000D02*
X221500000Y-48000000D01*
X159557500Y-41000000D02*
X214500000Y-41000000D01*
X146057500Y-54500000D02*
X159557500Y-41000000D01*
D29*
%TO.N,/GPIO04*%
X225500000Y-73487500D02*
X228512500Y-76500000D01*
X225500000Y-72980000D02*
X225500000Y-73487500D01*
D28*
%TO.N,5V*%
X198380000Y-86500000D02*
X200100000Y-88220000D01*
X185000000Y-86500000D02*
X198380000Y-86500000D01*
D29*
%TO.N,SCL2*%
X213900000Y-79500000D02*
X225500000Y-67900000D01*
X196000000Y-79500000D02*
X213900000Y-79500000D01*
X191098500Y-84401500D02*
X196000000Y-79500000D01*
X182650000Y-84401500D02*
X191098500Y-84401500D01*
%TO.N,SDA2*%
X211440000Y-84500000D02*
X225500000Y-70440000D01*
X197500000Y-84500000D02*
X211440000Y-84500000D01*
X182748499Y-85500000D02*
X196500000Y-85500000D01*
X181649999Y-84401500D02*
X182748499Y-85500000D01*
X196500000Y-85500000D02*
X197500000Y-84500000D01*
%TO.N,SCL2*%
X178598500Y-84401500D02*
X179500000Y-83500000D01*
X168500000Y-84401500D02*
X178598500Y-84401500D01*
X179500000Y-83500000D02*
X182000000Y-83500000D01*
X182000000Y-83500000D02*
X182650000Y-84150000D01*
X182650000Y-84150000D02*
X182650000Y-84401500D01*
%TO.N,SDA2*%
X181598500Y-84401500D02*
X181649999Y-84401500D01*
X180500000Y-85500000D02*
X181598500Y-84401500D01*
X168598499Y-85500000D02*
X180500000Y-85500000D01*
X167499999Y-84401500D02*
X168598499Y-85500000D01*
%TO.N,SCL2*%
X167098500Y-83000000D02*
X168500000Y-84401500D01*
X163500000Y-83000000D02*
X167098500Y-83000000D01*
X162098500Y-84401500D02*
X163500000Y-83000000D01*
X154350001Y-84401500D02*
X162098500Y-84401500D01*
%TO.N,SDA2*%
X166000000Y-86000000D02*
X167499999Y-84500001D01*
X154948500Y-86000000D02*
X166000000Y-86000000D01*
X167499999Y-84500001D02*
X167499999Y-84401500D01*
X153350000Y-84401500D02*
X154948500Y-86000000D01*
D28*
%TO.N,3V30*%
X148000000Y-66175000D02*
X147950000Y-66225000D01*
X148000000Y-63500000D02*
X148000000Y-66175000D01*
X141000000Y-56500000D02*
X148000000Y-63500000D01*
X141000000Y-55500000D02*
X141000000Y-56500000D01*
%TO.N,5V*%
X145512500Y-76500000D02*
X142500000Y-76500000D01*
X146012500Y-77000000D02*
X145512500Y-76500000D01*
X142500000Y-76500000D02*
X142500000Y-79500000D01*
X142500000Y-74500000D02*
X142500000Y-76500000D01*
D27*
%TO.N,BTRY*%
X176725000Y-68050000D02*
X187750000Y-57025000D01*
X176725000Y-69500000D02*
X176725000Y-68050000D01*
X188487500Y-74012500D02*
X191475000Y-77000000D01*
X176012500Y-74012500D02*
X188487500Y-74012500D01*
D28*
%TO.N,5V*%
X142500000Y-79500000D02*
X147000000Y-84000000D01*
X147000000Y-84000000D02*
X147000000Y-84287500D01*
X139200000Y-71200000D02*
X142500000Y-74500000D01*
X147000000Y-84287500D02*
X147212500Y-84500000D01*
X139025000Y-71200000D02*
X139200000Y-71200000D01*
D29*
%TO.N,Net-(J4-Pin_1)*%
X228000000Y-67860000D02*
X225500000Y-65360000D01*
X228000000Y-73500000D02*
X228000000Y-67860000D01*
X231500000Y-77000000D02*
X228000000Y-73500000D01*
X231500000Y-84475000D02*
X231500000Y-77000000D01*
D27*
%TO.N,BTRY*%
X182025000Y-51300000D02*
X187750000Y-57025000D01*
X176000000Y-51300000D02*
X182025000Y-51300000D01*
%TD*%
%TA.AperFunction,Conductor*%
%TO.N,GND*%
G36*
X224106363Y-46860185D02*
G01*
X224152118Y-46912989D01*
X224162062Y-46982147D01*
X224149809Y-47020794D01*
X224080129Y-47157549D01*
X224026597Y-47322302D01*
X223999500Y-47493389D01*
X223999500Y-47666610D01*
X224019431Y-47792454D01*
X224026598Y-47837701D01*
X224080127Y-48002445D01*
X224158768Y-48156788D01*
X224260586Y-48296928D01*
X224383072Y-48419414D01*
X224523212Y-48521232D01*
X224677555Y-48599873D01*
X224842299Y-48653402D01*
X225013389Y-48680500D01*
X225013390Y-48680500D01*
X225986610Y-48680500D01*
X225986611Y-48680500D01*
X226157701Y-48653402D01*
X226322445Y-48599873D01*
X226476788Y-48521232D01*
X226616928Y-48419414D01*
X226739414Y-48296928D01*
X226841232Y-48156788D01*
X226919873Y-48002445D01*
X226973402Y-47837701D01*
X227000500Y-47666611D01*
X227000500Y-47493389D01*
X226976823Y-47343898D01*
X226985778Y-47274604D01*
X227030774Y-47221152D01*
X227097525Y-47200513D01*
X227099296Y-47200500D01*
X227158481Y-47200500D01*
X227225520Y-47220185D01*
X227246162Y-47236819D01*
X227763181Y-47753838D01*
X227796666Y-47815161D01*
X227799500Y-47841519D01*
X227799500Y-49132096D01*
X227779815Y-49199135D01*
X227771353Y-49210761D01*
X227664090Y-49341460D01*
X227664086Y-49341467D01*
X227571185Y-49515273D01*
X227568856Y-49520897D01*
X227566881Y-49520079D01*
X227533867Y-49570433D01*
X227470048Y-49598875D01*
X227400984Y-49588299D01*
X227391534Y-49583372D01*
X227351785Y-49560423D01*
X227199057Y-49519499D01*
X227040943Y-49519499D01*
X227033347Y-49519499D01*
X227033331Y-49519500D01*
X226887185Y-49519500D01*
X226820146Y-49499815D01*
X226786867Y-49468386D01*
X226739414Y-49403072D01*
X226616928Y-49280586D01*
X226476788Y-49178768D01*
X226322445Y-49100127D01*
X226157701Y-49046598D01*
X226157699Y-49046597D01*
X226157698Y-49046597D01*
X226026271Y-49025781D01*
X225986611Y-49019500D01*
X225013389Y-49019500D01*
X224973728Y-49025781D01*
X224842302Y-49046597D01*
X224677552Y-49100128D01*
X224523211Y-49178768D01*
X224443256Y-49236859D01*
X224383072Y-49280586D01*
X224383070Y-49280588D01*
X224383069Y-49280588D01*
X224260588Y-49403069D01*
X224260588Y-49403070D01*
X224260586Y-49403072D01*
X224259572Y-49404468D01*
X224158768Y-49543211D01*
X224080128Y-49697552D01*
X224026597Y-49862302D01*
X223999500Y-50033389D01*
X223999500Y-50206610D01*
X224026129Y-50374744D01*
X224026598Y-50377701D01*
X224076023Y-50529815D01*
X224080128Y-50542447D01*
X224117001Y-50614814D01*
X224158768Y-50696788D01*
X224260586Y-50836928D01*
X224383072Y-50959414D01*
X224523212Y-51061232D01*
X224677555Y-51139873D01*
X224842299Y-51193402D01*
X225013389Y-51220500D01*
X225013390Y-51220500D01*
X225986610Y-51220500D01*
X225986611Y-51220500D01*
X226157701Y-51193402D01*
X226322445Y-51139873D01*
X226476788Y-51061232D01*
X226616928Y-50959414D01*
X226739414Y-50836928D01*
X226758554Y-50810583D01*
X226813884Y-50767918D01*
X226883497Y-50761939D01*
X226945292Y-50794545D01*
X226946548Y-50795783D01*
X228131284Y-51980520D01*
X228131286Y-51980521D01*
X228131290Y-51980524D01*
X228268209Y-52059573D01*
X228268216Y-52059577D01*
X228420943Y-52100501D01*
X228420945Y-52100501D01*
X228586654Y-52100501D01*
X228586670Y-52100500D01*
X230699903Y-52100500D01*
X230766942Y-52120185D01*
X230787584Y-52136819D01*
X232363181Y-53712416D01*
X232396666Y-53773739D01*
X232399500Y-53800097D01*
X232399500Y-55750903D01*
X232379815Y-55817942D01*
X232327011Y-55863697D01*
X232257853Y-55873641D01*
X232194297Y-55844616D01*
X232187819Y-55838584D01*
X231572366Y-55223131D01*
X231538881Y-55161808D01*
X231536726Y-55122493D01*
X231555460Y-54944250D01*
X231535674Y-54755994D01*
X231477179Y-54575966D01*
X231382533Y-54412034D01*
X231255871Y-54271362D01*
X231226469Y-54250000D01*
X231102734Y-54160101D01*
X231102729Y-54160098D01*
X230929807Y-54083107D01*
X230929802Y-54083105D01*
X230784001Y-54052115D01*
X230744646Y-54043750D01*
X230555354Y-54043750D01*
X230522897Y-54050648D01*
X230370197Y-54083105D01*
X230370192Y-54083107D01*
X230197270Y-54160098D01*
X230197265Y-54160101D01*
X230044129Y-54271361D01*
X229917466Y-54412035D01*
X229822821Y-54575965D01*
X229822818Y-54575972D01*
X229765392Y-54752712D01*
X229764326Y-54755994D01*
X229744540Y-54944250D01*
X229764326Y-55132506D01*
X229764327Y-55132509D01*
X229822818Y-55312527D01*
X229822821Y-55312534D01*
X229917467Y-55476466D01*
X229986791Y-55553458D01*
X230044129Y-55617138D01*
X230197265Y-55728398D01*
X230197270Y-55728401D01*
X230344940Y-55794149D01*
X230370197Y-55805394D01*
X230443436Y-55820961D01*
X230504915Y-55854151D01*
X230505334Y-55854569D01*
X231363181Y-56712416D01*
X231396666Y-56773739D01*
X231399500Y-56800097D01*
X231399500Y-59749902D01*
X231379815Y-59816941D01*
X231363181Y-59837583D01*
X228683579Y-62517184D01*
X228622256Y-62550669D01*
X228583746Y-62552906D01*
X228500001Y-62544659D01*
X228500000Y-62544659D01*
X228303870Y-62563975D01*
X228115266Y-62621188D01*
X227941467Y-62714086D01*
X227941460Y-62714090D01*
X227789116Y-62839116D01*
X227664090Y-62991460D01*
X227664086Y-62991467D01*
X227571188Y-63165266D01*
X227513975Y-63353870D01*
X227494659Y-63550000D01*
X227513975Y-63746129D01*
X227527331Y-63790157D01*
X227569391Y-63928811D01*
X227571188Y-63934733D01*
X227664086Y-64108532D01*
X227664090Y-64108539D01*
X227789116Y-64260883D01*
X227941460Y-64385909D01*
X227941467Y-64385913D01*
X228115266Y-64478811D01*
X228115269Y-64478811D01*
X228115273Y-64478814D01*
X228303868Y-64536024D01*
X228500000Y-64555341D01*
X228696132Y-64536024D01*
X228884727Y-64478814D01*
X229058538Y-64385910D01*
X229210883Y-64260883D01*
X229335910Y-64108538D01*
X229382362Y-64021632D01*
X229428811Y-63934733D01*
X229428811Y-63934732D01*
X229428814Y-63934727D01*
X229486024Y-63746132D01*
X229505341Y-63550000D01*
X229497092Y-63466252D01*
X229510110Y-63397609D01*
X229532811Y-63366422D01*
X232187819Y-60711415D01*
X232249142Y-60677930D01*
X232318834Y-60682914D01*
X232374767Y-60724786D01*
X232399184Y-60790250D01*
X232399500Y-60799096D01*
X232399500Y-66525500D01*
X232379815Y-66592539D01*
X232327011Y-66638294D01*
X232275500Y-66649500D01*
X231602129Y-66649500D01*
X231602123Y-66649501D01*
X231542516Y-66655908D01*
X231407671Y-66706202D01*
X231407664Y-66706206D01*
X231292455Y-66792452D01*
X231292452Y-66792455D01*
X231206206Y-66907664D01*
X231206203Y-66907669D01*
X231157189Y-67039083D01*
X231115317Y-67095016D01*
X231049853Y-67119433D01*
X230981580Y-67104581D01*
X230953326Y-67083430D01*
X230831402Y-66961506D01*
X230831395Y-66961501D01*
X230637834Y-66825967D01*
X230637830Y-66825965D01*
X230608013Y-66812061D01*
X230423663Y-66726097D01*
X230423659Y-66726096D01*
X230423655Y-66726094D01*
X230195413Y-66664938D01*
X230195403Y-66664936D01*
X229960001Y-66644341D01*
X229959999Y-66644341D01*
X229724596Y-66664936D01*
X229724583Y-66664939D01*
X229596241Y-66699327D01*
X229526392Y-66697664D01*
X229476468Y-66667233D01*
X227046705Y-64237470D01*
X227027000Y-64211790D01*
X226980520Y-64131284D01*
X226650468Y-63801233D01*
X226616984Y-63739911D01*
X226621968Y-63670220D01*
X226650465Y-63625876D01*
X226739414Y-63536928D01*
X226841232Y-63396788D01*
X226919873Y-63242445D01*
X226973402Y-63077701D01*
X227000500Y-62906611D01*
X227000500Y-62733389D01*
X226973402Y-62562299D01*
X226919873Y-62397555D01*
X226841232Y-62243212D01*
X226739414Y-62103072D01*
X226616928Y-61980586D01*
X226476788Y-61878768D01*
X226322445Y-61800127D01*
X226157701Y-61746598D01*
X226157699Y-61746597D01*
X226157698Y-61746597D01*
X226026271Y-61725781D01*
X225986611Y-61719500D01*
X225013389Y-61719500D01*
X224973728Y-61725781D01*
X224842302Y-61746597D01*
X224677552Y-61800128D01*
X224523211Y-61878768D01*
X224443256Y-61936859D01*
X224383072Y-61980586D01*
X224383070Y-61980588D01*
X224383069Y-61980588D01*
X224260588Y-62103069D01*
X224260588Y-62103070D01*
X224260586Y-62103072D01*
X224216859Y-62163256D01*
X224158768Y-62243211D01*
X224080128Y-62397552D01*
X224026597Y-62562302D01*
X223999500Y-62733389D01*
X223999500Y-62850903D01*
X223979815Y-62917942D01*
X223927011Y-62963697D01*
X223857853Y-62973641D01*
X223794297Y-62944616D01*
X223787819Y-62938584D01*
X223136819Y-62287584D01*
X223103334Y-62226261D01*
X223100500Y-62199903D01*
X223100500Y-60193389D01*
X223999500Y-60193389D01*
X223999500Y-60366610D01*
X224025460Y-60530521D01*
X224026598Y-60537701D01*
X224080127Y-60702445D01*
X224158768Y-60856788D01*
X224260586Y-60996928D01*
X224383072Y-61119414D01*
X224523212Y-61221232D01*
X224677555Y-61299873D01*
X224842299Y-61353402D01*
X225013389Y-61380500D01*
X225013390Y-61380500D01*
X225986610Y-61380500D01*
X225986611Y-61380500D01*
X226157701Y-61353402D01*
X226322445Y-61299873D01*
X226476788Y-61221232D01*
X226616928Y-61119414D01*
X226739414Y-60996928D01*
X226841232Y-60856788D01*
X226919873Y-60702445D01*
X226973402Y-60537701D01*
X227000500Y-60366611D01*
X227000500Y-60193389D01*
X226973402Y-60022299D01*
X226919873Y-59857555D01*
X226841232Y-59703212D01*
X226739414Y-59563072D01*
X226616928Y-59440586D01*
X226476788Y-59338768D01*
X226322445Y-59260127D01*
X226157701Y-59206598D01*
X226157699Y-59206597D01*
X226157698Y-59206597D01*
X226026271Y-59185781D01*
X225986611Y-59179500D01*
X225013389Y-59179500D01*
X224973728Y-59185781D01*
X224842302Y-59206597D01*
X224677552Y-59260128D01*
X224523211Y-59338768D01*
X224443256Y-59396859D01*
X224383072Y-59440586D01*
X224383070Y-59440588D01*
X224383069Y-59440588D01*
X224260588Y-59563069D01*
X224260588Y-59563070D01*
X224260586Y-59563072D01*
X224216859Y-59623256D01*
X224158768Y-59703211D01*
X224080128Y-59857552D01*
X224026597Y-60022302D01*
X223999500Y-60193389D01*
X223100500Y-60193389D01*
X223100500Y-57489999D01*
X224025884Y-57489999D01*
X224025885Y-57490000D01*
X225184314Y-57490000D01*
X225179920Y-57494394D01*
X225127259Y-57585606D01*
X225100000Y-57687339D01*
X225100000Y-57792661D01*
X225127259Y-57894394D01*
X225179920Y-57985606D01*
X225184314Y-57990000D01*
X224025885Y-57990000D01*
X224027085Y-57997584D01*
X224080591Y-58162255D01*
X224159195Y-58316524D01*
X224260967Y-58456602D01*
X224383397Y-58579032D01*
X224523475Y-58680804D01*
X224677742Y-58759408D01*
X224842415Y-58812914D01*
X225013429Y-58840000D01*
X225250000Y-58840000D01*
X225250000Y-58055686D01*
X225254394Y-58060080D01*
X225345606Y-58112741D01*
X225447339Y-58140000D01*
X225552661Y-58140000D01*
X225654394Y-58112741D01*
X225745606Y-58060080D01*
X225750000Y-58055686D01*
X225750000Y-58840000D01*
X225986571Y-58840000D01*
X226157584Y-58812914D01*
X226322257Y-58759408D01*
X226476524Y-58680804D01*
X226616602Y-58579032D01*
X226739032Y-58456602D01*
X226840804Y-58316524D01*
X226919408Y-58162255D01*
X226972914Y-57997584D01*
X226974115Y-57990000D01*
X225815686Y-57990000D01*
X225820080Y-57985606D01*
X225872741Y-57894394D01*
X225900000Y-57792661D01*
X225900000Y-57687339D01*
X225872741Y-57585606D01*
X225820080Y-57494394D01*
X225815686Y-57490000D01*
X226974115Y-57490000D01*
X226974115Y-57489999D01*
X226972914Y-57482415D01*
X226919408Y-57317744D01*
X226840804Y-57163475D01*
X226739032Y-57023397D01*
X226616602Y-56900967D01*
X226476524Y-56799195D01*
X226322257Y-56720591D01*
X226157584Y-56667085D01*
X225986571Y-56640000D01*
X225750000Y-56640000D01*
X225750000Y-57424314D01*
X225745606Y-57419920D01*
X225654394Y-57367259D01*
X225552661Y-57340000D01*
X225447339Y-57340000D01*
X225345606Y-57367259D01*
X225254394Y-57419920D01*
X225250000Y-57424314D01*
X225250000Y-56640000D01*
X225013429Y-56640000D01*
X224842415Y-56667085D01*
X224677742Y-56720591D01*
X224523475Y-56799195D01*
X224383397Y-56900967D01*
X224260967Y-57023397D01*
X224159195Y-57163475D01*
X224080591Y-57317744D01*
X224027085Y-57482415D01*
X224025884Y-57489999D01*
X223100500Y-57489999D01*
X223100500Y-55226452D01*
X223120185Y-55159413D01*
X223132350Y-55143480D01*
X223232533Y-55032216D01*
X223327179Y-54868284D01*
X223385674Y-54688256D01*
X223405460Y-54500000D01*
X223385674Y-54311744D01*
X223335712Y-54157980D01*
X223333718Y-54088141D01*
X223369798Y-54028308D01*
X223432499Y-53997480D01*
X223501913Y-54005444D01*
X223541325Y-54031983D01*
X224053454Y-54544112D01*
X224070468Y-54555480D01*
X224115273Y-54609092D01*
X224123980Y-54678417D01*
X224112062Y-54714876D01*
X224080129Y-54777549D01*
X224026597Y-54942302D01*
X224008187Y-55058539D01*
X223999500Y-55113389D01*
X223999500Y-55286611D01*
X224001016Y-55296183D01*
X224025627Y-55451575D01*
X224026598Y-55457701D01*
X224080127Y-55622445D01*
X224158768Y-55776788D01*
X224260586Y-55916928D01*
X224383072Y-56039414D01*
X224523212Y-56141232D01*
X224677555Y-56219873D01*
X224842299Y-56273402D01*
X225013389Y-56300500D01*
X225013390Y-56300500D01*
X225986610Y-56300500D01*
X225986611Y-56300500D01*
X226157701Y-56273402D01*
X226322445Y-56219873D01*
X226476788Y-56141232D01*
X226616928Y-56039414D01*
X226739414Y-55916928D01*
X226841232Y-55776788D01*
X226913920Y-55634127D01*
X226961893Y-55583333D01*
X227029713Y-55566537D01*
X227095848Y-55589074D01*
X227112085Y-55602742D01*
X227611300Y-56101957D01*
X227644785Y-56163280D01*
X227641550Y-56227955D01*
X227614328Y-56311737D01*
X227614326Y-56311743D01*
X227606669Y-56384596D01*
X227594540Y-56500000D01*
X227614326Y-56688256D01*
X227614327Y-56688259D01*
X227672818Y-56868277D01*
X227672821Y-56868284D01*
X227767466Y-57032215D01*
X227767648Y-57032417D01*
X227767716Y-57032559D01*
X227771285Y-57037471D01*
X227770386Y-57038123D01*
X227797879Y-57095408D01*
X227799500Y-57115391D01*
X227799500Y-59682096D01*
X227779815Y-59749135D01*
X227771353Y-59760761D01*
X227664090Y-59891460D01*
X227664086Y-59891467D01*
X227571188Y-60065266D01*
X227513975Y-60253870D01*
X227494659Y-60450000D01*
X227513975Y-60646129D01*
X227513976Y-60646132D01*
X227560377Y-60799096D01*
X227571188Y-60834733D01*
X227664086Y-61008532D01*
X227664090Y-61008539D01*
X227789116Y-61160883D01*
X227941460Y-61285909D01*
X227941467Y-61285913D01*
X228115266Y-61378811D01*
X228115269Y-61378811D01*
X228115273Y-61378814D01*
X228303868Y-61436024D01*
X228500000Y-61455341D01*
X228696132Y-61436024D01*
X228884727Y-61378814D01*
X228932270Y-61353402D01*
X229058532Y-61285913D01*
X229058538Y-61285910D01*
X229210883Y-61160883D01*
X229335910Y-61008538D01*
X229419509Y-60852135D01*
X229428811Y-60834733D01*
X229428811Y-60834732D01*
X229428814Y-60834727D01*
X229486024Y-60646132D01*
X229505341Y-60450000D01*
X229486024Y-60253868D01*
X229428814Y-60065273D01*
X229428811Y-60065269D01*
X229428811Y-60065266D01*
X229335913Y-59891467D01*
X229335909Y-59891460D01*
X229228647Y-59760761D01*
X229201334Y-59696451D01*
X229200500Y-59682096D01*
X229200500Y-57115391D01*
X229220185Y-57048352D01*
X229232352Y-57032417D01*
X229232533Y-57032216D01*
X229327179Y-56868284D01*
X229385674Y-56688256D01*
X229405460Y-56500000D01*
X229385674Y-56311744D01*
X229327179Y-56131716D01*
X229262380Y-56019480D01*
X229232535Y-55967787D01*
X229232531Y-55967782D01*
X229223621Y-55957886D01*
X229194155Y-55899106D01*
X229176441Y-55810055D01*
X229173580Y-55795672D01*
X229172949Y-55794149D01*
X229120777Y-55668193D01*
X229120776Y-55668191D01*
X229101175Y-55638856D01*
X229101175Y-55638855D01*
X229044115Y-55553458D01*
X229044109Y-55553451D01*
X226946543Y-53455885D01*
X226875697Y-53408548D01*
X226830892Y-53354936D01*
X226822185Y-53285611D01*
X226838867Y-53240646D01*
X226841224Y-53236798D01*
X226841232Y-53236788D01*
X226919873Y-53082445D01*
X226973402Y-52917701D01*
X227000500Y-52746611D01*
X227000500Y-52573389D01*
X226973402Y-52402299D01*
X226919873Y-52237555D01*
X226841232Y-52083212D01*
X226739414Y-51943072D01*
X226616928Y-51820586D01*
X226476788Y-51718768D01*
X226322445Y-51640127D01*
X226157701Y-51586598D01*
X226157699Y-51586597D01*
X226157698Y-51586597D01*
X226026271Y-51565781D01*
X225986611Y-51559500D01*
X225013389Y-51559500D01*
X224973728Y-51565781D01*
X224842302Y-51586597D01*
X224677552Y-51640128D01*
X224523211Y-51718768D01*
X224445261Y-51775403D01*
X224383072Y-51820586D01*
X224383070Y-51820588D01*
X224383069Y-51820588D01*
X224260588Y-51943069D01*
X224260588Y-51943070D01*
X224260586Y-51943072D01*
X224216859Y-52003256D01*
X224158768Y-52083211D01*
X224080126Y-52237554D01*
X224056352Y-52310723D01*
X224016914Y-52368398D01*
X223952555Y-52395595D01*
X223883709Y-52383680D01*
X223850741Y-52360084D01*
X222236819Y-50746162D01*
X222203334Y-50684839D01*
X222200500Y-50658481D01*
X222200500Y-48341519D01*
X222220185Y-48274480D01*
X222236819Y-48253838D01*
X223613838Y-46876819D01*
X223675161Y-46843334D01*
X223701519Y-46840500D01*
X224039324Y-46840500D01*
X224106363Y-46860185D01*
G37*
%TD.AperFunction*%
%TA.AperFunction,Conductor*%
G36*
X250442539Y-35520185D02*
G01*
X250488294Y-35572989D01*
X250499500Y-35624500D01*
X250499500Y-89875500D01*
X250479815Y-89942539D01*
X250427011Y-89988294D01*
X250375500Y-89999500D01*
X135124500Y-89999500D01*
X135057461Y-89979815D01*
X135011706Y-89927011D01*
X135000500Y-89875500D01*
X135000500Y-86378711D01*
X136649500Y-86378711D01*
X136649500Y-86621288D01*
X136681161Y-86861785D01*
X136743947Y-87096104D01*
X136818483Y-87276048D01*
X136836776Y-87320212D01*
X136958064Y-87530289D01*
X136958066Y-87530292D01*
X136958067Y-87530293D01*
X137105733Y-87722736D01*
X137105739Y-87722743D01*
X137277256Y-87894260D01*
X137277262Y-87894265D01*
X137469711Y-88041936D01*
X137679788Y-88163224D01*
X137903900Y-88256054D01*
X138138211Y-88318838D01*
X138318586Y-88342584D01*
X138378711Y-88350500D01*
X138378712Y-88350500D01*
X138621289Y-88350500D01*
X138669388Y-88344167D01*
X138861789Y-88318838D01*
X139096100Y-88256054D01*
X139320212Y-88163224D01*
X139530289Y-88041936D01*
X139722738Y-87894265D01*
X139894265Y-87722738D01*
X140041936Y-87530289D01*
X140163224Y-87320212D01*
X140256054Y-87096100D01*
X140318838Y-86861789D01*
X140350500Y-86621288D01*
X140350500Y-86378712D01*
X140318838Y-86138211D01*
X140256054Y-85903900D01*
X140163224Y-85679788D01*
X140041936Y-85469711D01*
X139953287Y-85354181D01*
X139894266Y-85277263D01*
X139894260Y-85277256D01*
X139722743Y-85105739D01*
X139722736Y-85105733D01*
X139530293Y-84958067D01*
X139530292Y-84958066D01*
X139530289Y-84958064D01*
X139351941Y-84855095D01*
X139320214Y-84836777D01*
X139320205Y-84836773D01*
X139096104Y-84743947D01*
X138861785Y-84681161D01*
X138621289Y-84649500D01*
X138621288Y-84649500D01*
X138378712Y-84649500D01*
X138378711Y-84649500D01*
X138138214Y-84681161D01*
X137903895Y-84743947D01*
X137679794Y-84836773D01*
X137679785Y-84836777D01*
X137469706Y-84958067D01*
X137277263Y-85105733D01*
X137277256Y-85105739D01*
X137105739Y-85277256D01*
X137105733Y-85277263D01*
X136958067Y-85469706D01*
X136836777Y-85679785D01*
X136836773Y-85679794D01*
X136743947Y-85903895D01*
X136681161Y-86138214D01*
X136649500Y-86378711D01*
X135000500Y-86378711D01*
X135000500Y-76279999D01*
X137669341Y-76279999D01*
X137669341Y-76280000D01*
X137689936Y-76515403D01*
X137689938Y-76515413D01*
X137751094Y-76743655D01*
X137751096Y-76743659D01*
X137751097Y-76743663D01*
X137816879Y-76884733D01*
X137850965Y-76957830D01*
X137850967Y-76957834D01*
X137986501Y-77151395D01*
X137986506Y-77151402D01*
X138153597Y-77318493D01*
X138153603Y-77318498D01*
X138197879Y-77349500D01*
X138327731Y-77440424D01*
X138339594Y-77448730D01*
X138383219Y-77503307D01*
X138390413Y-77572805D01*
X138358890Y-77635160D01*
X138339595Y-77651880D01*
X138153922Y-77781890D01*
X138153920Y-77781891D01*
X137986891Y-77948920D01*
X137986886Y-77948926D01*
X137851400Y-78142420D01*
X137851399Y-78142422D01*
X137751570Y-78356507D01*
X137751567Y-78356513D01*
X137694364Y-78569999D01*
X137694364Y-78570000D01*
X138591988Y-78570000D01*
X138559075Y-78627007D01*
X138525000Y-78754174D01*
X138525000Y-78885826D01*
X138559075Y-79012993D01*
X138591988Y-79070000D01*
X137694364Y-79070000D01*
X137751567Y-79283486D01*
X137751570Y-79283492D01*
X137851399Y-79497578D01*
X137986894Y-79691082D01*
X138153917Y-79858105D01*
X138347421Y-79993600D01*
X138561507Y-80093429D01*
X138561516Y-80093433D01*
X138775000Y-80150634D01*
X138775000Y-79253012D01*
X138832007Y-79285925D01*
X138959174Y-79320000D01*
X139090826Y-79320000D01*
X139217993Y-79285925D01*
X139275000Y-79253012D01*
X139275000Y-80150633D01*
X139488483Y-80093433D01*
X139488492Y-80093429D01*
X139702578Y-79993600D01*
X139896082Y-79858105D01*
X140063105Y-79691082D01*
X140198600Y-79497578D01*
X140298429Y-79283492D01*
X140298432Y-79283486D01*
X140355636Y-79070000D01*
X139458012Y-79070000D01*
X139490925Y-79012993D01*
X139525000Y-78885826D01*
X139525000Y-78754174D01*
X139490925Y-78627007D01*
X139458012Y-78570000D01*
X140355636Y-78570000D01*
X140355635Y-78569999D01*
X140298432Y-78356513D01*
X140298429Y-78356507D01*
X140198600Y-78142422D01*
X140198599Y-78142420D01*
X140063113Y-77948926D01*
X140063108Y-77948920D01*
X139896078Y-77781890D01*
X139710405Y-77651879D01*
X139666780Y-77597302D01*
X139659588Y-77527804D01*
X139691110Y-77465449D01*
X139710406Y-77448730D01*
X139722264Y-77440427D01*
X139896401Y-77318495D01*
X140063495Y-77151401D01*
X140199035Y-76957830D01*
X140298903Y-76743663D01*
X140360063Y-76515408D01*
X140380659Y-76280000D01*
X140360063Y-76044592D01*
X140298903Y-75816337D01*
X140199035Y-75602171D01*
X140179243Y-75573904D01*
X140063494Y-75408597D01*
X139896402Y-75241506D01*
X139896401Y-75241505D01*
X139710405Y-75111269D01*
X139666781Y-75056692D01*
X139659588Y-74987193D01*
X139691110Y-74924839D01*
X139710405Y-74908119D01*
X139896082Y-74778105D01*
X140063105Y-74611082D01*
X140198600Y-74417578D01*
X140298429Y-74203492D01*
X140298432Y-74203486D01*
X140355636Y-73990000D01*
X139458012Y-73990000D01*
X139490925Y-73932993D01*
X139525000Y-73805826D01*
X139525000Y-73674174D01*
X139490925Y-73547007D01*
X139458012Y-73490000D01*
X140374221Y-73490000D01*
X140388382Y-73479660D01*
X140458128Y-73475505D01*
X140518011Y-73508668D01*
X141763181Y-74753838D01*
X141796666Y-74815161D01*
X141799500Y-74841519D01*
X141799500Y-76431006D01*
X141799500Y-76431007D01*
X141799500Y-79431006D01*
X141799500Y-79568994D01*
X141799500Y-79568996D01*
X141799499Y-79568996D01*
X141826418Y-79704322D01*
X141826421Y-79704332D01*
X141879222Y-79831807D01*
X141955887Y-79946545D01*
X141955888Y-79946546D01*
X146194108Y-84184765D01*
X146227593Y-84246088D01*
X146225547Y-84297471D01*
X146227664Y-84297893D01*
X146226476Y-84303863D01*
X146207159Y-84500000D01*
X146226475Y-84696129D01*
X146235233Y-84725000D01*
X146275730Y-84858501D01*
X146283688Y-84884733D01*
X146376586Y-85058532D01*
X146376590Y-85058539D01*
X146501616Y-85210883D01*
X146653960Y-85335909D01*
X146653967Y-85335913D01*
X146827766Y-85428811D01*
X146827769Y-85428811D01*
X146827773Y-85428814D01*
X147016368Y-85486024D01*
X147212500Y-85505341D01*
X147408632Y-85486024D01*
X147597227Y-85428814D01*
X147614505Y-85419579D01*
X147688898Y-85379815D01*
X147771038Y-85335910D01*
X147923383Y-85210883D01*
X148048410Y-85058538D01*
X148133418Y-84899500D01*
X148141311Y-84884733D01*
X148141311Y-84884732D01*
X148141314Y-84884727D01*
X148198524Y-84696132D01*
X148217841Y-84500000D01*
X148198524Y-84303868D01*
X148141314Y-84115273D01*
X148141311Y-84115269D01*
X148141311Y-84115266D01*
X148048413Y-83941467D01*
X148048409Y-83941460D01*
X147923383Y-83789116D01*
X147771039Y-83664090D01*
X147771032Y-83664086D01*
X147597228Y-83571186D01*
X147576157Y-83564794D01*
X147524472Y-83533815D01*
X144990657Y-81000000D01*
X169494659Y-81000000D01*
X169513975Y-81196129D01*
X169571188Y-81384733D01*
X169664086Y-81558532D01*
X169664090Y-81558539D01*
X169789116Y-81710883D01*
X169941460Y-81835909D01*
X169941467Y-81835913D01*
X170115266Y-81928811D01*
X170115269Y-81928811D01*
X170115273Y-81928814D01*
X170303868Y-81986024D01*
X170500000Y-82005341D01*
X170696132Y-81986024D01*
X170884727Y-81928814D01*
X171058538Y-81835910D01*
X171189238Y-81728646D01*
X171253546Y-81701334D01*
X171267902Y-81700500D01*
X183220981Y-81700500D01*
X183288020Y-81720185D01*
X183308662Y-81736819D01*
X184024181Y-82452337D01*
X184057666Y-82513660D01*
X184059903Y-82527864D01*
X184076475Y-82696129D01*
X184076476Y-82696132D01*
X184132950Y-82882302D01*
X184133688Y-82884733D01*
X184226586Y-83058532D01*
X184226590Y-83058539D01*
X184351616Y-83210883D01*
X184503960Y-83335909D01*
X184503967Y-83335913D01*
X184677766Y-83428811D01*
X184677769Y-83428811D01*
X184677773Y-83428814D01*
X184866368Y-83486024D01*
X185062500Y-83505341D01*
X185258632Y-83486024D01*
X185447227Y-83428814D01*
X185621038Y-83335910D01*
X185773383Y-83210883D01*
X185898410Y-83058538D01*
X185991314Y-82884727D01*
X186048524Y-82696132D01*
X186067841Y-82500000D01*
X186048524Y-82303868D01*
X185991314Y-82115273D01*
X185991311Y-82115269D01*
X185991311Y-82115266D01*
X185898413Y-81941467D01*
X185898409Y-81941460D01*
X185773383Y-81789116D01*
X185621039Y-81664090D01*
X185621032Y-81664086D01*
X185447233Y-81571188D01*
X185447227Y-81571186D01*
X185258632Y-81513976D01*
X185258629Y-81513975D01*
X185090364Y-81497403D01*
X185025577Y-81471242D01*
X185014837Y-81461681D01*
X184009046Y-80455888D01*
X184009045Y-80455887D01*
X183894307Y-80379222D01*
X183766832Y-80326421D01*
X183766822Y-80326418D01*
X183631496Y-80299500D01*
X183631494Y-80299500D01*
X183631493Y-80299500D01*
X171267902Y-80299500D01*
X171200863Y-80279815D01*
X171189242Y-80271357D01*
X171093737Y-80192977D01*
X171058539Y-80164090D01*
X171058532Y-80164086D01*
X170884733Y-80071188D01*
X170884727Y-80071186D01*
X170758997Y-80033046D01*
X170696129Y-80013975D01*
X170500000Y-79994659D01*
X170303870Y-80013975D01*
X170115266Y-80071188D01*
X169941467Y-80164086D01*
X169941460Y-80164090D01*
X169789116Y-80289116D01*
X169664090Y-80441460D01*
X169664086Y-80441467D01*
X169571188Y-80615266D01*
X169513975Y-80803870D01*
X169494659Y-81000000D01*
X144990657Y-81000000D01*
X143236819Y-79246162D01*
X143203334Y-79184839D01*
X143200500Y-79158481D01*
X143200500Y-77324500D01*
X143220185Y-77257461D01*
X143272989Y-77211706D01*
X143324500Y-77200500D01*
X144935836Y-77200500D01*
X145002875Y-77220185D01*
X145048630Y-77272989D01*
X145054496Y-77288504D01*
X145083686Y-77384728D01*
X145176586Y-77558532D01*
X145176590Y-77558539D01*
X145301616Y-77710883D01*
X145453960Y-77835909D01*
X145453967Y-77835913D01*
X145627766Y-77928811D01*
X145627769Y-77928811D01*
X145627773Y-77928814D01*
X145816368Y-77986024D01*
X146012500Y-78005341D01*
X146208632Y-77986024D01*
X146397227Y-77928814D01*
X146571038Y-77835910D01*
X146723383Y-77710883D01*
X146848410Y-77558538D01*
X146933985Y-77398439D01*
X146941311Y-77384733D01*
X146941313Y-77384728D01*
X146941314Y-77384727D01*
X146998524Y-77196132D01*
X147017841Y-77000000D01*
X146998524Y-76803868D01*
X146941314Y-76615273D01*
X146941311Y-76615269D01*
X146941311Y-76615266D01*
X146848413Y-76441467D01*
X146848409Y-76441460D01*
X146723383Y-76289116D01*
X146571039Y-76164090D01*
X146571032Y-76164086D01*
X146397233Y-76071188D01*
X146397227Y-76071186D01*
X146208632Y-76013976D01*
X146208629Y-76013975D01*
X146040366Y-75997403D01*
X145984883Y-75974999D01*
X151292192Y-75974999D01*
X151292193Y-75975000D01*
X152617639Y-75975000D01*
X152610743Y-75991649D01*
X152580000Y-76146207D01*
X152580000Y-76303793D01*
X152610743Y-76458351D01*
X152617639Y-76475000D01*
X151292193Y-76475000D01*
X151294697Y-76511619D01*
X151353146Y-76792888D01*
X151353150Y-76792902D01*
X151449355Y-77063595D01*
X151581527Y-77318676D01*
X151747204Y-77553385D01*
X151747204Y-77553386D01*
X151943288Y-77763341D01*
X152166135Y-77944641D01*
X152166146Y-77944648D01*
X152411607Y-78093917D01*
X152675108Y-78208371D01*
X152951737Y-78285879D01*
X152951746Y-78285881D01*
X153129999Y-78310380D01*
X153130000Y-78310380D01*
X153130000Y-76987360D01*
X153146649Y-76994257D01*
X153301207Y-77025000D01*
X153458793Y-77025000D01*
X153613351Y-76994257D01*
X153630000Y-76987360D01*
X153630000Y-78310380D01*
X153808253Y-78285881D01*
X153808262Y-78285879D01*
X154084891Y-78208371D01*
X154348392Y-78093917D01*
X154593853Y-77944648D01*
X154593864Y-77944641D01*
X154816711Y-77763341D01*
X155012795Y-77553386D01*
X155012795Y-77553385D01*
X155178472Y-77318676D01*
X155310644Y-77063595D01*
X155406849Y-76792902D01*
X155406853Y-76792888D01*
X155465302Y-76511619D01*
X155467807Y-76475000D01*
X154142361Y-76475000D01*
X154149257Y-76458351D01*
X154180000Y-76303793D01*
X154180000Y-76146207D01*
X154149257Y-75991649D01*
X154142361Y-75975000D01*
X155467807Y-75975000D01*
X155467807Y-75974999D01*
X155465302Y-75938380D01*
X155406853Y-75657111D01*
X155406849Y-75657097D01*
X155310644Y-75386404D01*
X155178472Y-75131323D01*
X155012795Y-74896614D01*
X155012795Y-74896613D01*
X154816711Y-74686658D01*
X154682090Y-74577135D01*
X166519500Y-74577135D01*
X166519500Y-77872870D01*
X166519501Y-77872876D01*
X166525908Y-77932483D01*
X166576202Y-78067328D01*
X166576206Y-78067335D01*
X166662452Y-78182544D01*
X166662455Y-78182547D01*
X166777664Y-78268793D01*
X166777671Y-78268797D01*
X166912517Y-78319091D01*
X166912516Y-78319091D01*
X166919444Y-78319835D01*
X166972127Y-78325500D01*
X170267872Y-78325499D01*
X170327483Y-78319091D01*
X170462331Y-78268796D01*
X170577546Y-78182546D01*
X170663796Y-78067331D01*
X170714091Y-77932483D01*
X170720500Y-77872873D01*
X170720499Y-74577128D01*
X170714091Y-74517517D01*
X170709553Y-74505351D01*
X170663797Y-74382671D01*
X170663793Y-74382664D01*
X170577547Y-74267455D01*
X170577544Y-74267452D01*
X170462335Y-74181206D01*
X170462328Y-74181202D01*
X170327482Y-74130908D01*
X170327483Y-74130908D01*
X170267883Y-74124501D01*
X170267881Y-74124500D01*
X170267873Y-74124500D01*
X170267864Y-74124500D01*
X166972129Y-74124500D01*
X166972123Y-74124501D01*
X166912516Y-74130908D01*
X166777671Y-74181202D01*
X166777664Y-74181206D01*
X166662455Y-74267452D01*
X166662452Y-74267455D01*
X166576206Y-74382664D01*
X166576202Y-74382671D01*
X166525908Y-74517517D01*
X166519501Y-74577116D01*
X166519501Y-74577123D01*
X166519500Y-74577135D01*
X154682090Y-74577135D01*
X154593864Y-74505358D01*
X154593853Y-74505351D01*
X154348392Y-74356082D01*
X154084891Y-74241628D01*
X153808262Y-74164120D01*
X153808255Y-74164119D01*
X153630000Y-74139618D01*
X153630000Y-75462639D01*
X153613351Y-75455743D01*
X153458793Y-75425000D01*
X153301207Y-75425000D01*
X153146649Y-75455743D01*
X153130000Y-75462639D01*
X153130000Y-74139618D01*
X152951744Y-74164119D01*
X152951737Y-74164120D01*
X152675108Y-74241628D01*
X152411607Y-74356082D01*
X152166146Y-74505351D01*
X152166135Y-74505358D01*
X151943288Y-74686658D01*
X151747204Y-74896613D01*
X151747204Y-74896614D01*
X151581527Y-75131323D01*
X151449355Y-75386404D01*
X151353150Y-75657097D01*
X151353146Y-75657111D01*
X151294697Y-75938380D01*
X151292192Y-75974999D01*
X145984883Y-75974999D01*
X145975579Y-75971242D01*
X145964839Y-75961681D01*
X145959045Y-75955887D01*
X145844307Y-75879222D01*
X145716832Y-75826421D01*
X145716822Y-75826418D01*
X145581496Y-75799500D01*
X145581494Y-75799500D01*
X145581493Y-75799500D01*
X143324500Y-75799500D01*
X143257461Y-75779815D01*
X143211706Y-75727011D01*
X143200500Y-75675500D01*
X143200500Y-74431004D01*
X143173581Y-74295677D01*
X143173580Y-74295676D01*
X143173580Y-74295672D01*
X143135398Y-74203492D01*
X143120776Y-74168191D01*
X143118056Y-74164120D01*
X143074866Y-74099481D01*
X143044114Y-74053457D01*
X143044111Y-74053453D01*
X143003158Y-74012500D01*
X175007159Y-74012500D01*
X175026475Y-74208629D01*
X175026476Y-74208632D01*
X175079270Y-74382671D01*
X175083688Y-74397233D01*
X175176586Y-74571032D01*
X175176590Y-74571039D01*
X175301616Y-74723383D01*
X175453960Y-74848409D01*
X175453967Y-74848413D01*
X175627766Y-74941311D01*
X175627769Y-74941311D01*
X175627773Y-74941314D01*
X175816368Y-74998524D01*
X176012500Y-75017841D01*
X176208632Y-74998524D01*
X176397227Y-74941314D01*
X176459331Y-74908119D01*
X176571032Y-74848413D01*
X176571038Y-74848410D01*
X176640813Y-74791147D01*
X176705123Y-74763834D01*
X176719478Y-74763000D01*
X188125270Y-74763000D01*
X188192309Y-74782685D01*
X188212951Y-74799319D01*
X190444405Y-77030773D01*
X190477890Y-77092096D01*
X190480127Y-77106298D01*
X190488975Y-77196129D01*
X190488976Y-77196132D01*
X190533549Y-77343070D01*
X190546188Y-77384733D01*
X190639086Y-77558532D01*
X190639090Y-77558539D01*
X190764116Y-77710883D01*
X190916460Y-77835909D01*
X190916467Y-77835913D01*
X191090266Y-77928811D01*
X191090269Y-77928811D01*
X191090273Y-77928814D01*
X191278868Y-77986024D01*
X191475000Y-78005341D01*
X191671132Y-77986024D01*
X191859727Y-77928814D01*
X192033538Y-77835910D01*
X192185883Y-77710883D01*
X192310910Y-77558538D01*
X192396485Y-77398439D01*
X192403811Y-77384733D01*
X192403813Y-77384728D01*
X192403814Y-77384727D01*
X192461024Y-77196132D01*
X192480341Y-77000000D01*
X192461024Y-76803868D01*
X192403814Y-76615273D01*
X192403811Y-76615269D01*
X192403811Y-76615266D01*
X192310913Y-76441467D01*
X192310909Y-76441460D01*
X192185883Y-76289116D01*
X192033539Y-76164090D01*
X192033532Y-76164086D01*
X191859733Y-76071188D01*
X191859727Y-76071186D01*
X191671132Y-76013976D01*
X191671129Y-76013975D01*
X191581298Y-76005127D01*
X191516511Y-75978965D01*
X191505773Y-75969405D01*
X188965921Y-73429552D01*
X188965914Y-73429546D01*
X188884471Y-73375128D01*
X188884372Y-73375063D01*
X188842995Y-73347416D01*
X188842994Y-73347415D01*
X188842992Y-73347414D01*
X188706417Y-73290843D01*
X188706407Y-73290840D01*
X188561420Y-73262000D01*
X188561418Y-73262000D01*
X176719478Y-73262000D01*
X176652439Y-73242315D01*
X176640813Y-73233853D01*
X176571039Y-73176590D01*
X176571032Y-73176586D01*
X176397233Y-73083688D01*
X176397227Y-73083686D01*
X176208632Y-73026476D01*
X176208629Y-73026475D01*
X176012500Y-73007159D01*
X175816370Y-73026475D01*
X175627766Y-73083688D01*
X175453967Y-73176586D01*
X175453960Y-73176590D01*
X175301616Y-73301616D01*
X175176590Y-73453960D01*
X175176586Y-73453967D01*
X175083688Y-73627766D01*
X175026475Y-73816370D01*
X175007159Y-74012500D01*
X143003158Y-74012500D01*
X140411818Y-71421160D01*
X140378333Y-71359837D01*
X140375499Y-71333479D01*
X140375499Y-70302129D01*
X140375498Y-70302123D01*
X140375497Y-70302116D01*
X140369091Y-70242517D01*
X140357292Y-70210883D01*
X140318797Y-70107671D01*
X140318793Y-70107664D01*
X140232547Y-69992455D01*
X140232544Y-69992452D01*
X140117335Y-69906206D01*
X140117328Y-69906202D01*
X139982482Y-69855908D01*
X139982483Y-69855908D01*
X139922883Y-69849501D01*
X139922881Y-69849500D01*
X139922873Y-69849500D01*
X139922864Y-69849500D01*
X138127129Y-69849500D01*
X138127123Y-69849501D01*
X138067516Y-69855908D01*
X137932671Y-69906202D01*
X137932664Y-69906206D01*
X137817455Y-69992452D01*
X137817452Y-69992455D01*
X137731206Y-70107664D01*
X137731202Y-70107671D01*
X137680908Y-70242517D01*
X137674501Y-70302116D01*
X137674501Y-70302123D01*
X137674500Y-70302135D01*
X137674500Y-72097870D01*
X137674501Y-72097876D01*
X137680908Y-72157483D01*
X137731202Y-72292328D01*
X137731206Y-72292335D01*
X137817452Y-72407544D01*
X137817455Y-72407547D01*
X137932664Y-72493793D01*
X137932671Y-72493797D01*
X137994902Y-72517007D01*
X138064598Y-72543002D01*
X138120531Y-72584873D01*
X138144949Y-72650337D01*
X138130098Y-72718610D01*
X138108947Y-72746865D01*
X137986886Y-72868926D01*
X137851400Y-73062420D01*
X137851399Y-73062422D01*
X137751570Y-73276507D01*
X137751567Y-73276513D01*
X137694364Y-73489999D01*
X137694364Y-73490000D01*
X138591988Y-73490000D01*
X138559075Y-73547007D01*
X138525000Y-73674174D01*
X138525000Y-73805826D01*
X138559075Y-73932993D01*
X138591988Y-73990000D01*
X137694364Y-73990000D01*
X137751567Y-74203486D01*
X137751570Y-74203492D01*
X137851399Y-74417578D01*
X137986894Y-74611082D01*
X138153917Y-74778105D01*
X138339595Y-74908119D01*
X138383219Y-74962696D01*
X138390412Y-75032195D01*
X138358890Y-75094549D01*
X138339595Y-75111269D01*
X138153594Y-75241508D01*
X137986505Y-75408597D01*
X137850965Y-75602169D01*
X137850964Y-75602171D01*
X137751098Y-75816335D01*
X137751094Y-75816344D01*
X137689938Y-76044586D01*
X137689936Y-76044596D01*
X137669341Y-76279999D01*
X135000500Y-76279999D01*
X135000500Y-63647357D01*
X135020185Y-63580318D01*
X135072989Y-63534563D01*
X135142147Y-63524619D01*
X135205703Y-63553644D01*
X135239061Y-63599905D01*
X135297188Y-63740239D01*
X135297190Y-63740242D01*
X135430875Y-63958396D01*
X135430878Y-63958401D01*
X135506200Y-64046591D01*
X135597044Y-64152956D01*
X135698743Y-64239815D01*
X135791598Y-64319121D01*
X135791600Y-64319122D01*
X135791601Y-64319123D01*
X135828310Y-64341618D01*
X136009757Y-64452809D01*
X136009760Y-64452811D01*
X136246135Y-64550720D01*
X136246140Y-64550722D01*
X136494930Y-64610452D01*
X136750000Y-64630526D01*
X137005070Y-64610452D01*
X137253860Y-64550722D01*
X137423333Y-64480524D01*
X137490239Y-64452811D01*
X137490240Y-64452810D01*
X137490243Y-64452809D01*
X137708399Y-64319123D01*
X137902956Y-64152956D01*
X138069123Y-63958399D01*
X138202809Y-63740243D01*
X138214971Y-63710883D01*
X138278073Y-63558539D01*
X138300722Y-63503860D01*
X138360452Y-63255070D01*
X138380526Y-63000000D01*
X141119474Y-63000000D01*
X141139547Y-63255064D01*
X141139547Y-63255067D01*
X141139548Y-63255070D01*
X141178809Y-63418600D01*
X141199279Y-63503864D01*
X141297188Y-63740239D01*
X141297190Y-63740242D01*
X141430875Y-63958396D01*
X141430878Y-63958401D01*
X141506200Y-64046591D01*
X141597044Y-64152956D01*
X141698743Y-64239815D01*
X141791598Y-64319121D01*
X141791600Y-64319122D01*
X141791601Y-64319123D01*
X141828310Y-64341618D01*
X142009757Y-64452809D01*
X142009760Y-64452811D01*
X142246135Y-64550720D01*
X142246140Y-64550722D01*
X142494930Y-64610452D01*
X142750000Y-64630526D01*
X143005070Y-64610452D01*
X143253860Y-64550722D01*
X143423333Y-64480524D01*
X143490239Y-64452811D01*
X143490240Y-64452810D01*
X143490243Y-64452809D01*
X143708399Y-64319123D01*
X143902956Y-64152956D01*
X144069123Y-63958399D01*
X144202809Y-63740243D01*
X144214971Y-63710883D01*
X144278073Y-63558539D01*
X144300722Y-63503860D01*
X144360452Y-63255070D01*
X144380526Y-63000000D01*
X144360452Y-62744930D01*
X144300722Y-62496140D01*
X144285456Y-62459284D01*
X144202811Y-62259760D01*
X144202809Y-62259757D01*
X144106791Y-62103070D01*
X144069123Y-62041601D01*
X144069122Y-62041600D01*
X144069121Y-62041598D01*
X144009319Y-61971579D01*
X143902956Y-61847044D01*
X143785349Y-61746598D01*
X143708401Y-61680878D01*
X143708396Y-61680875D01*
X143490242Y-61547190D01*
X143490239Y-61547188D01*
X143253864Y-61449279D01*
X143253860Y-61449278D01*
X143005070Y-61389548D01*
X143005067Y-61389547D01*
X143005064Y-61389547D01*
X142750000Y-61369474D01*
X142494935Y-61389547D01*
X142494931Y-61389547D01*
X142494930Y-61389548D01*
X142370535Y-61419413D01*
X142246135Y-61449279D01*
X142009760Y-61547188D01*
X142009757Y-61547190D01*
X141791603Y-61680875D01*
X141791598Y-61680878D01*
X141597044Y-61847044D01*
X141430878Y-62041598D01*
X141430875Y-62041603D01*
X141297190Y-62259757D01*
X141297188Y-62259760D01*
X141199279Y-62496135D01*
X141184269Y-62558655D01*
X141142643Y-62732041D01*
X141139547Y-62744935D01*
X141119474Y-63000000D01*
X138380526Y-63000000D01*
X138360452Y-62744930D01*
X138300722Y-62496140D01*
X138285456Y-62459284D01*
X138202811Y-62259760D01*
X138202809Y-62259757D01*
X138106791Y-62103070D01*
X138069123Y-62041601D01*
X138069122Y-62041600D01*
X138069121Y-62041598D01*
X138009319Y-61971579D01*
X137902956Y-61847044D01*
X137785349Y-61746598D01*
X137708401Y-61680878D01*
X137708396Y-61680875D01*
X137490242Y-61547190D01*
X137490239Y-61547188D01*
X137253864Y-61449279D01*
X137253860Y-61449278D01*
X137005070Y-61389548D01*
X137005067Y-61389547D01*
X137005064Y-61389547D01*
X136750000Y-61369474D01*
X136494935Y-61389547D01*
X136494931Y-61389547D01*
X136494930Y-61389548D01*
X136370535Y-61419413D01*
X136246135Y-61449279D01*
X136009760Y-61547188D01*
X136009757Y-61547190D01*
X135791603Y-61680875D01*
X135791598Y-61680878D01*
X135597044Y-61847044D01*
X135430878Y-62041598D01*
X135430875Y-62041603D01*
X135297190Y-62259756D01*
X135239061Y-62400095D01*
X135195220Y-62454498D01*
X135128926Y-62476563D01*
X135061227Y-62459284D01*
X135013616Y-62408147D01*
X135000500Y-62352642D01*
X135000500Y-58848135D01*
X137395500Y-58848135D01*
X137395500Y-60151870D01*
X137395501Y-60151876D01*
X137401908Y-60211483D01*
X137452202Y-60346328D01*
X137452206Y-60346335D01*
X137538452Y-60461544D01*
X137538455Y-60461547D01*
X137653664Y-60547793D01*
X137653671Y-60547797D01*
X137788517Y-60598091D01*
X137788516Y-60598091D01*
X137795444Y-60598835D01*
X137848127Y-60604500D01*
X139151872Y-60604499D01*
X139211483Y-60598091D01*
X139346331Y-60547796D01*
X139461546Y-60461546D01*
X139547796Y-60346331D01*
X139598091Y-60211483D01*
X139604500Y-60151873D01*
X139604499Y-59499999D01*
X139890768Y-59499999D01*
X139890768Y-59500000D01*
X139909654Y-59703816D01*
X139909654Y-59703818D01*
X139909655Y-59703821D01*
X139953395Y-59857552D01*
X139965673Y-59900704D01*
X140056912Y-60083935D01*
X140180269Y-60247287D01*
X140331537Y-60385185D01*
X140331539Y-60385187D01*
X140505569Y-60492942D01*
X140505575Y-60492945D01*
X140523105Y-60499736D01*
X140696444Y-60566888D01*
X140897653Y-60604500D01*
X140897656Y-60604500D01*
X141102344Y-60604500D01*
X141102347Y-60604500D01*
X141303556Y-60566888D01*
X141494427Y-60492944D01*
X141668462Y-60385186D01*
X141819732Y-60247285D01*
X141943088Y-60083935D01*
X142034328Y-59900701D01*
X142090345Y-59703821D01*
X142109232Y-59500000D01*
X142090345Y-59296179D01*
X142034328Y-59099299D01*
X141943088Y-58916065D01*
X141865192Y-58812914D01*
X141819730Y-58752712D01*
X141668462Y-58614814D01*
X141668460Y-58614812D01*
X141494430Y-58507057D01*
X141494424Y-58507054D01*
X141343993Y-58448777D01*
X141303556Y-58433112D01*
X141102347Y-58395500D01*
X140897653Y-58395500D01*
X140696444Y-58433112D01*
X140696441Y-58433112D01*
X140696441Y-58433113D01*
X140505575Y-58507054D01*
X140505569Y-58507057D01*
X140331539Y-58614812D01*
X140331537Y-58614814D01*
X140180269Y-58752712D01*
X140056912Y-58916064D01*
X139965673Y-59099295D01*
X139909654Y-59296183D01*
X139890768Y-59499999D01*
X139604499Y-59499999D01*
X139604499Y-58848128D01*
X139598091Y-58788517D01*
X139587407Y-58759873D01*
X139547797Y-58653671D01*
X139547793Y-58653664D01*
X139461547Y-58538455D01*
X139461544Y-58538452D01*
X139346335Y-58452206D01*
X139346328Y-58452202D01*
X139211482Y-58401908D01*
X139211483Y-58401908D01*
X139151883Y-58395501D01*
X139151881Y-58395500D01*
X139151873Y-58395500D01*
X139151864Y-58395500D01*
X137848129Y-58395500D01*
X137848123Y-58395501D01*
X137788516Y-58401908D01*
X137653671Y-58452202D01*
X137653664Y-58452206D01*
X137538455Y-58538452D01*
X137538452Y-58538455D01*
X137452206Y-58653664D01*
X137452202Y-58653671D01*
X137401908Y-58788517D01*
X137396320Y-58840500D01*
X137395501Y-58848123D01*
X137395500Y-58848135D01*
X135000500Y-58848135D01*
X135000500Y-55499999D01*
X137390768Y-55499999D01*
X137390768Y-55500000D01*
X137409654Y-55703816D01*
X137409654Y-55703818D01*
X137409655Y-55703821D01*
X137457973Y-55873641D01*
X137465673Y-55900704D01*
X137556912Y-56083935D01*
X137680269Y-56247287D01*
X137820176Y-56374828D01*
X137830886Y-56384592D01*
X137831537Y-56385185D01*
X137831539Y-56385187D01*
X138005569Y-56492942D01*
X138005575Y-56492945D01*
X138046010Y-56508609D01*
X138196444Y-56566888D01*
X138397653Y-56604500D01*
X138397656Y-56604500D01*
X138602344Y-56604500D01*
X138602347Y-56604500D01*
X138803556Y-56566888D01*
X138994427Y-56492944D01*
X139168462Y-56385186D01*
X139319732Y-56247285D01*
X139443088Y-56083935D01*
X139534328Y-55900701D01*
X139590345Y-55703821D01*
X139609232Y-55500000D01*
X139609232Y-55499999D01*
X139890768Y-55499999D01*
X139890768Y-55500000D01*
X139909654Y-55703816D01*
X139909654Y-55703818D01*
X139909655Y-55703821D01*
X139957973Y-55873641D01*
X139965673Y-55900704D01*
X140034743Y-56039414D01*
X140056912Y-56083935D01*
X140180268Y-56247285D01*
X140259039Y-56319094D01*
X140295319Y-56378803D01*
X140299500Y-56410730D01*
X140299500Y-56431006D01*
X140299500Y-56568994D01*
X140299500Y-56568996D01*
X140299499Y-56568996D01*
X140326418Y-56704322D01*
X140326421Y-56704332D01*
X140379222Y-56831807D01*
X140455887Y-56946545D01*
X140455888Y-56946546D01*
X147263181Y-63753838D01*
X147296666Y-63815161D01*
X147299500Y-63841519D01*
X147299500Y-65405914D01*
X147279815Y-65472953D01*
X147254167Y-65501765D01*
X147239115Y-65514118D01*
X147114090Y-65666460D01*
X147114086Y-65666467D01*
X147021188Y-65840266D01*
X146963975Y-66028870D01*
X146944659Y-66225000D01*
X146963975Y-66421129D01*
X147021188Y-66609733D01*
X147114086Y-66783532D01*
X147114090Y-66783539D01*
X147239116Y-66935883D01*
X147391460Y-67060909D01*
X147391467Y-67060913D01*
X147565266Y-67153811D01*
X147565269Y-67153811D01*
X147565273Y-67153814D01*
X147753868Y-67211024D01*
X147950000Y-67230341D01*
X148146132Y-67211024D01*
X148334727Y-67153814D01*
X148508538Y-67060910D01*
X148660883Y-66935883D01*
X148785910Y-66783538D01*
X148857746Y-66649142D01*
X148878811Y-66609733D01*
X148878811Y-66609732D01*
X148878814Y-66609727D01*
X148936024Y-66421132D01*
X148955341Y-66225000D01*
X148936024Y-66028868D01*
X148878814Y-65840273D01*
X148878811Y-65840269D01*
X148878811Y-65840266D01*
X148785913Y-65666467D01*
X148785911Y-65666465D01*
X148785910Y-65666462D01*
X148751933Y-65625061D01*
X148728647Y-65596686D01*
X148701334Y-65532376D01*
X148700500Y-65518021D01*
X148700500Y-63431006D01*
X148693693Y-63396789D01*
X148693693Y-63396786D01*
X148673581Y-63295679D01*
X148673580Y-63295672D01*
X148656760Y-63255064D01*
X148620777Y-63168192D01*
X148544112Y-63053454D01*
X148544111Y-63053453D01*
X141860840Y-56370183D01*
X141827355Y-56308860D01*
X141832339Y-56239168D01*
X141849562Y-56207782D01*
X141943088Y-56083935D01*
X142034328Y-55900701D01*
X142090345Y-55703821D01*
X142109232Y-55500000D01*
X142090345Y-55296179D01*
X142034328Y-55099299D01*
X141943088Y-54916065D01*
X141823598Y-54757834D01*
X141819730Y-54752712D01*
X141668462Y-54614814D01*
X141668460Y-54614812D01*
X141494430Y-54507057D01*
X141494424Y-54507054D01*
X141476215Y-54500000D01*
X145052159Y-54500000D01*
X145071475Y-54696129D01*
X145088639Y-54752712D01*
X145109702Y-54822147D01*
X145128688Y-54884733D01*
X145221586Y-55058532D01*
X145221590Y-55058539D01*
X145346616Y-55210883D01*
X145498960Y-55335909D01*
X145498967Y-55335913D01*
X145672766Y-55428811D01*
X145672769Y-55428811D01*
X145672773Y-55428814D01*
X145861368Y-55486024D01*
X146057500Y-55505341D01*
X146253632Y-55486024D01*
X146442227Y-55428814D01*
X146501751Y-55396998D01*
X146589677Y-55350000D01*
X146616038Y-55335910D01*
X146768383Y-55210883D01*
X146893410Y-55058538D01*
X146954499Y-54944249D01*
X146986311Y-54884733D01*
X146986311Y-54884732D01*
X146986314Y-54884727D01*
X147043524Y-54696132D01*
X147060096Y-54527863D01*
X147086256Y-54463077D01*
X147095809Y-54452346D01*
X147298156Y-54249999D01*
X151172192Y-54249999D01*
X151172193Y-54250000D01*
X152497639Y-54250000D01*
X152490743Y-54266649D01*
X152460000Y-54421207D01*
X152460000Y-54578793D01*
X152490743Y-54733351D01*
X152497639Y-54750000D01*
X151172193Y-54750000D01*
X151174697Y-54786619D01*
X151233146Y-55067888D01*
X151233150Y-55067902D01*
X151329355Y-55338595D01*
X151461527Y-55593676D01*
X151627204Y-55828385D01*
X151627204Y-55828386D01*
X151823288Y-56038341D01*
X152046135Y-56219641D01*
X152046146Y-56219648D01*
X152291607Y-56368917D01*
X152555108Y-56483371D01*
X152831737Y-56560879D01*
X152831746Y-56560881D01*
X153009999Y-56585380D01*
X153010000Y-56585380D01*
X153010000Y-55262360D01*
X153026649Y-55269257D01*
X153181207Y-55300000D01*
X153338793Y-55300000D01*
X153493351Y-55269257D01*
X153510000Y-55262360D01*
X153510000Y-56585380D01*
X153688253Y-56560881D01*
X153688262Y-56560879D01*
X153964891Y-56483371D01*
X154228392Y-56368917D01*
X154473853Y-56219648D01*
X154473864Y-56219641D01*
X154696711Y-56038341D01*
X154892795Y-55828386D01*
X154892795Y-55828385D01*
X155058472Y-55593676D01*
X155190644Y-55338595D01*
X155286849Y-55067902D01*
X155286853Y-55067888D01*
X155345302Y-54786619D01*
X155347807Y-54750000D01*
X154022361Y-54750000D01*
X154029257Y-54733351D01*
X154060000Y-54578793D01*
X154060000Y-54421207D01*
X154029257Y-54266649D01*
X154022361Y-54250000D01*
X155347807Y-54250000D01*
X155347807Y-54249999D01*
X155345302Y-54213380D01*
X155286853Y-53932111D01*
X155286849Y-53932097D01*
X155190644Y-53661404D01*
X155058472Y-53406323D01*
X154892795Y-53171614D01*
X154892795Y-53171613D01*
X154696711Y-52961658D01*
X154562090Y-52852135D01*
X166399500Y-52852135D01*
X166399500Y-56147870D01*
X166399501Y-56147876D01*
X166405908Y-56207483D01*
X166456202Y-56342328D01*
X166456206Y-56342335D01*
X166542452Y-56457544D01*
X166542455Y-56457547D01*
X166657664Y-56543793D01*
X166657671Y-56543797D01*
X166792517Y-56594091D01*
X166792516Y-56594091D01*
X166799444Y-56594835D01*
X166852127Y-56600500D01*
X170147872Y-56600499D01*
X170207483Y-56594091D01*
X170342331Y-56543796D01*
X170457546Y-56457546D01*
X170543796Y-56342331D01*
X170594091Y-56207483D01*
X170600500Y-56147873D01*
X170600499Y-52852128D01*
X170594091Y-52792517D01*
X170589553Y-52780351D01*
X170543797Y-52657671D01*
X170543793Y-52657664D01*
X170457547Y-52542455D01*
X170457544Y-52542452D01*
X170342335Y-52456206D01*
X170342328Y-52456202D01*
X170207482Y-52405908D01*
X170207483Y-52405908D01*
X170147883Y-52399501D01*
X170147881Y-52399500D01*
X170147873Y-52399500D01*
X170147864Y-52399500D01*
X166852129Y-52399500D01*
X166852123Y-52399501D01*
X166792516Y-52405908D01*
X166657671Y-52456202D01*
X166657664Y-52456206D01*
X166542455Y-52542452D01*
X166542452Y-52542455D01*
X166456206Y-52657664D01*
X166456202Y-52657671D01*
X166405908Y-52792517D01*
X166404029Y-52810000D01*
X166399501Y-52852123D01*
X166399500Y-52852135D01*
X154562090Y-52852135D01*
X154473864Y-52780358D01*
X154473853Y-52780351D01*
X154228392Y-52631082D01*
X153964891Y-52516628D01*
X153688262Y-52439120D01*
X153688255Y-52439119D01*
X153510000Y-52414618D01*
X153510000Y-53737639D01*
X153493351Y-53730743D01*
X153338793Y-53700000D01*
X153181207Y-53700000D01*
X153026649Y-53730743D01*
X153010000Y-53737639D01*
X153010000Y-52414618D01*
X152831744Y-52439119D01*
X152831737Y-52439120D01*
X152555108Y-52516628D01*
X152291607Y-52631082D01*
X152046146Y-52780351D01*
X152046135Y-52780358D01*
X151823288Y-52961658D01*
X151627204Y-53171613D01*
X151627204Y-53171614D01*
X151461527Y-53406323D01*
X151329355Y-53661404D01*
X151233150Y-53932097D01*
X151233146Y-53932111D01*
X151174697Y-54213380D01*
X151172192Y-54249999D01*
X147298156Y-54249999D01*
X150248155Y-51300000D01*
X174994659Y-51300000D01*
X175013975Y-51496129D01*
X175071188Y-51684733D01*
X175164086Y-51858532D01*
X175164090Y-51858539D01*
X175289116Y-52010883D01*
X175441460Y-52135909D01*
X175441467Y-52135913D01*
X175615266Y-52228811D01*
X175615269Y-52228811D01*
X175615273Y-52228814D01*
X175803868Y-52286024D01*
X176000000Y-52305341D01*
X176196132Y-52286024D01*
X176384727Y-52228814D01*
X176414334Y-52212989D01*
X176513123Y-52160185D01*
X176558538Y-52135910D01*
X176618355Y-52086819D01*
X176628313Y-52078647D01*
X176692623Y-52051334D01*
X176706978Y-52050500D01*
X181662770Y-52050500D01*
X181729809Y-52070185D01*
X181750451Y-52086819D01*
X186434821Y-56771188D01*
X186468306Y-56832511D01*
X186470668Y-56869676D01*
X186457080Y-57024997D01*
X186457080Y-57025002D01*
X186470668Y-57180322D01*
X186456901Y-57248822D01*
X186434821Y-57278810D01*
X176142052Y-67571578D01*
X176142049Y-67571581D01*
X176104208Y-67628214D01*
X176104209Y-67628215D01*
X176059914Y-67694508D01*
X176003343Y-67831082D01*
X176003340Y-67831092D01*
X175974500Y-67976079D01*
X175974500Y-68793021D01*
X175954815Y-68860060D01*
X175946353Y-68871686D01*
X175889091Y-68941460D01*
X175889086Y-68941467D01*
X175796188Y-69115266D01*
X175738975Y-69303870D01*
X175719659Y-69500000D01*
X175738975Y-69696129D01*
X175738976Y-69696132D01*
X175789659Y-69863212D01*
X175796188Y-69884733D01*
X175889086Y-70058532D01*
X175889090Y-70058539D01*
X176014116Y-70210883D01*
X176166460Y-70335909D01*
X176166467Y-70335913D01*
X176340266Y-70428811D01*
X176340269Y-70428811D01*
X176340273Y-70428814D01*
X176528868Y-70486024D01*
X176725000Y-70505341D01*
X176921132Y-70486024D01*
X177109727Y-70428814D01*
X177283538Y-70335910D01*
X177435883Y-70210883D01*
X177560910Y-70058538D01*
X177642334Y-69906204D01*
X177653811Y-69884733D01*
X177653811Y-69884732D01*
X177653814Y-69884727D01*
X177711024Y-69696132D01*
X177730341Y-69500000D01*
X177711024Y-69303868D01*
X177653814Y-69115273D01*
X177653811Y-69115269D01*
X177653811Y-69115266D01*
X177560913Y-68941467D01*
X177560911Y-68941465D01*
X177560910Y-68941462D01*
X177540481Y-68916569D01*
X177503647Y-68871686D01*
X177476334Y-68807376D01*
X177475500Y-68793021D01*
X177475500Y-68412228D01*
X177495185Y-68345189D01*
X177511814Y-68324552D01*
X181546367Y-64289999D01*
X194669341Y-64289999D01*
X194669341Y-64290000D01*
X194689936Y-64525403D01*
X194689938Y-64525413D01*
X194751094Y-64753655D01*
X194751096Y-64753659D01*
X194751097Y-64753663D01*
X194850965Y-64967830D01*
X194850967Y-64967834D01*
X194945121Y-65102299D01*
X194986505Y-65161401D01*
X195153599Y-65328495D01*
X195172198Y-65341518D01*
X195347165Y-65464032D01*
X195347167Y-65464033D01*
X195347170Y-65464035D01*
X195561337Y-65563903D01*
X195789592Y-65625063D01*
X195977918Y-65641539D01*
X196024999Y-65645659D01*
X196025000Y-65645659D01*
X196025001Y-65645659D01*
X196064234Y-65642226D01*
X196260408Y-65625063D01*
X196388757Y-65590672D01*
X196458606Y-65592335D01*
X196508531Y-65622766D01*
X198568449Y-67682684D01*
X198601934Y-67744007D01*
X198603242Y-67789762D01*
X198599500Y-67813389D01*
X198599500Y-67986610D01*
X198626596Y-68157693D01*
X198626598Y-68157701D01*
X198680127Y-68322445D01*
X198758768Y-68476788D01*
X198860586Y-68616928D01*
X198983072Y-68739414D01*
X199123212Y-68841232D01*
X199277555Y-68919873D01*
X199442299Y-68973402D01*
X199613389Y-69000500D01*
X199613390Y-69000500D01*
X200586610Y-69000500D01*
X200586611Y-69000500D01*
X200757701Y-68973402D01*
X200922445Y-68919873D01*
X201076788Y-68841232D01*
X201216928Y-68739414D01*
X201339414Y-68616928D01*
X201441232Y-68476788D01*
X201519873Y-68322445D01*
X201573402Y-68157701D01*
X201600500Y-67986611D01*
X201600500Y-67813389D01*
X201573402Y-67642299D01*
X201519873Y-67477555D01*
X201441232Y-67323212D01*
X201339414Y-67183072D01*
X201216928Y-67060586D01*
X201076788Y-66958768D01*
X200922445Y-66880127D01*
X200757701Y-66826598D01*
X200757699Y-66826597D01*
X200757698Y-66826597D01*
X200626271Y-66805781D01*
X200586611Y-66799500D01*
X199613389Y-66799500D01*
X199477537Y-66821016D01*
X199408244Y-66812061D01*
X199370459Y-66786224D01*
X199178462Y-66594227D01*
X199144977Y-66532904D01*
X199149961Y-66463212D01*
X199191833Y-66407279D01*
X199257297Y-66382862D01*
X199304459Y-66388614D01*
X199442299Y-66433402D01*
X199613389Y-66460500D01*
X199613390Y-66460500D01*
X200586610Y-66460500D01*
X200586611Y-66460500D01*
X200757701Y-66433402D01*
X200922445Y-66379873D01*
X201076788Y-66301232D01*
X201216928Y-66199414D01*
X201339414Y-66076928D01*
X201441232Y-65936788D01*
X201519873Y-65782445D01*
X201573402Y-65617701D01*
X201600500Y-65446611D01*
X201600500Y-65273389D01*
X201573402Y-65102299D01*
X201519873Y-64937555D01*
X201441232Y-64783212D01*
X201339414Y-64643072D01*
X201216928Y-64520586D01*
X201076788Y-64418768D01*
X200922445Y-64340127D01*
X200757701Y-64286598D01*
X200757699Y-64286597D01*
X200757698Y-64286597D01*
X200626271Y-64265781D01*
X200586611Y-64259500D01*
X200586610Y-64259500D01*
X199900097Y-64259500D01*
X199833058Y-64239815D01*
X199812416Y-64223181D01*
X199721416Y-64132181D01*
X199687931Y-64070858D01*
X199692915Y-64001166D01*
X199734787Y-63945233D01*
X199800251Y-63920816D01*
X199809097Y-63920500D01*
X200586610Y-63920500D01*
X200586611Y-63920500D01*
X200757701Y-63893402D01*
X200922445Y-63839873D01*
X201076788Y-63761232D01*
X201216928Y-63659414D01*
X201339414Y-63536928D01*
X201441232Y-63396788D01*
X201519873Y-63242445D01*
X201573402Y-63077701D01*
X201600500Y-62906611D01*
X201600500Y-62733389D01*
X201573402Y-62562299D01*
X201519873Y-62397555D01*
X201441232Y-62243212D01*
X201339414Y-62103072D01*
X201216928Y-61980586D01*
X201076788Y-61878768D01*
X200922445Y-61800127D01*
X200757701Y-61746598D01*
X200757699Y-61746597D01*
X200757698Y-61746597D01*
X200626271Y-61725781D01*
X200586611Y-61719500D01*
X199613389Y-61719500D01*
X199573728Y-61725781D01*
X199442302Y-61746597D01*
X199277552Y-61800128D01*
X199123211Y-61878768D01*
X199043256Y-61936859D01*
X198983072Y-61980586D01*
X198983070Y-61980588D01*
X198983069Y-61980588D01*
X198860588Y-62103069D01*
X198860588Y-62103070D01*
X198860586Y-62103072D01*
X198816859Y-62163256D01*
X198758768Y-62243211D01*
X198680128Y-62397552D01*
X198626597Y-62562302D01*
X198599713Y-62732041D01*
X198569784Y-62795176D01*
X198510472Y-62832107D01*
X198440610Y-62831109D01*
X198389559Y-62800324D01*
X197411818Y-61822583D01*
X197378333Y-61761260D01*
X197375499Y-61734902D01*
X197375499Y-60852129D01*
X197375498Y-60852123D01*
X197375497Y-60852116D01*
X197369091Y-60792517D01*
X197368245Y-60790250D01*
X197318797Y-60657671D01*
X197318793Y-60657664D01*
X197232547Y-60542455D01*
X197232544Y-60542452D01*
X197117335Y-60456206D01*
X197117328Y-60456202D01*
X196982482Y-60405908D01*
X196982483Y-60405908D01*
X196922883Y-60399501D01*
X196922881Y-60399500D01*
X196922873Y-60399500D01*
X196922864Y-60399500D01*
X195127129Y-60399500D01*
X195127123Y-60399501D01*
X195067516Y-60405908D01*
X194932671Y-60456202D01*
X194932664Y-60456206D01*
X194817455Y-60542452D01*
X194817452Y-60542455D01*
X194731206Y-60657664D01*
X194731202Y-60657671D01*
X194680908Y-60792517D01*
X194676370Y-60834733D01*
X194674501Y-60852123D01*
X194674500Y-60852135D01*
X194674500Y-62647870D01*
X194674501Y-62647876D01*
X194680908Y-62707483D01*
X194731202Y-62842328D01*
X194731206Y-62842335D01*
X194817452Y-62957544D01*
X194817455Y-62957547D01*
X194932664Y-63043793D01*
X194932671Y-63043797D01*
X195064081Y-63092810D01*
X195120015Y-63134681D01*
X195144432Y-63200145D01*
X195129580Y-63268418D01*
X195108430Y-63296673D01*
X194986503Y-63418600D01*
X194850965Y-63612169D01*
X194850964Y-63612171D01*
X194781456Y-63761232D01*
X194756309Y-63815161D01*
X194751098Y-63826335D01*
X194751094Y-63826344D01*
X194689938Y-64054586D01*
X194689936Y-64054596D01*
X194669341Y-64289999D01*
X181546367Y-64289999D01*
X185642976Y-60193389D01*
X198599500Y-60193389D01*
X198599500Y-60366610D01*
X198625460Y-60530521D01*
X198626598Y-60537701D01*
X198680127Y-60702445D01*
X198758768Y-60856788D01*
X198860586Y-60996928D01*
X198983072Y-61119414D01*
X199123212Y-61221232D01*
X199277555Y-61299873D01*
X199442299Y-61353402D01*
X199613389Y-61380500D01*
X199613390Y-61380500D01*
X200586610Y-61380500D01*
X200586611Y-61380500D01*
X200757701Y-61353402D01*
X200922445Y-61299873D01*
X201076788Y-61221232D01*
X201216928Y-61119414D01*
X201339414Y-60996928D01*
X201441232Y-60856788D01*
X201519873Y-60702445D01*
X201573402Y-60537701D01*
X201600500Y-60366611D01*
X201600500Y-60193389D01*
X201573402Y-60022299D01*
X201519873Y-59857555D01*
X201441232Y-59703212D01*
X201339414Y-59563072D01*
X201216928Y-59440586D01*
X201076788Y-59338768D01*
X200922445Y-59260127D01*
X200757701Y-59206598D01*
X200757699Y-59206597D01*
X200757698Y-59206597D01*
X200626271Y-59185781D01*
X200586611Y-59179500D01*
X199613389Y-59179500D01*
X199573728Y-59185781D01*
X199442302Y-59206597D01*
X199277552Y-59260128D01*
X199123211Y-59338768D01*
X199043256Y-59396859D01*
X198983072Y-59440586D01*
X198983070Y-59440588D01*
X198983069Y-59440588D01*
X198860588Y-59563069D01*
X198860588Y-59563070D01*
X198860586Y-59563072D01*
X198816859Y-59623256D01*
X198758768Y-59703211D01*
X198680128Y-59857552D01*
X198626597Y-60022302D01*
X198599500Y-60193389D01*
X185642976Y-60193389D01*
X187496190Y-58340175D01*
X187557511Y-58306692D01*
X187594672Y-58304330D01*
X187731593Y-58316309D01*
X187749999Y-58317920D01*
X187750000Y-58317920D01*
X187750002Y-58317920D01*
X187811963Y-58312499D01*
X187974513Y-58298278D01*
X188192205Y-58239947D01*
X188396460Y-58144702D01*
X188581073Y-58015434D01*
X188740434Y-57856073D01*
X188743001Y-57852406D01*
X188797569Y-57808780D01*
X188867067Y-57801579D01*
X188929425Y-57833095D01*
X188964845Y-57893321D01*
X188967868Y-57910262D01*
X188968901Y-57919874D01*
X188968903Y-57919879D01*
X189019145Y-58054586D01*
X189019149Y-58054593D01*
X189105309Y-58169687D01*
X189105312Y-58169690D01*
X189220406Y-58255850D01*
X189220413Y-58255854D01*
X189355120Y-58306096D01*
X189355127Y-58306098D01*
X189414655Y-58312499D01*
X189414672Y-58312500D01*
X190000000Y-58312500D01*
X190000000Y-57486879D01*
X190047358Y-57514222D01*
X190180882Y-57550000D01*
X190319118Y-57550000D01*
X190452642Y-57514222D01*
X190500000Y-57486879D01*
X190500000Y-58312500D01*
X191085328Y-58312500D01*
X191085344Y-58312499D01*
X191144872Y-58306098D01*
X191144879Y-58306096D01*
X191279586Y-58255854D01*
X191279593Y-58255850D01*
X191394687Y-58169690D01*
X191394690Y-58169687D01*
X191480850Y-58054593D01*
X191480854Y-58054586D01*
X191531096Y-57919879D01*
X191531098Y-57919872D01*
X191537499Y-57860344D01*
X191537500Y-57860327D01*
X191537500Y-57275000D01*
X190711880Y-57275000D01*
X190739222Y-57227642D01*
X190775000Y-57094118D01*
X190775000Y-56955882D01*
X190739222Y-56822358D01*
X190711880Y-56775000D01*
X191537500Y-56775000D01*
X191537500Y-56189672D01*
X191537499Y-56189655D01*
X191531098Y-56130127D01*
X191531096Y-56130120D01*
X191480854Y-55995413D01*
X191480850Y-55995406D01*
X191394690Y-55880312D01*
X191394687Y-55880309D01*
X191279593Y-55794149D01*
X191279586Y-55794145D01*
X191144879Y-55743903D01*
X191144872Y-55743901D01*
X191085344Y-55737500D01*
X190500000Y-55737500D01*
X190500000Y-56563120D01*
X190452642Y-56535778D01*
X190319118Y-56500000D01*
X190180882Y-56500000D01*
X190047358Y-56535778D01*
X190000000Y-56563120D01*
X190000000Y-55737500D01*
X189414655Y-55737500D01*
X189355127Y-55743901D01*
X189355120Y-55743903D01*
X189220413Y-55794145D01*
X189220406Y-55794149D01*
X189105312Y-55880309D01*
X189105309Y-55880312D01*
X189019149Y-55995406D01*
X189019145Y-55995413D01*
X188968903Y-56130120D01*
X188968902Y-56130125D01*
X188967868Y-56139738D01*
X188941126Y-56204288D01*
X188883731Y-56244133D01*
X188813906Y-56246622D01*
X188753819Y-56210967D01*
X188743011Y-56197607D01*
X188740434Y-56193927D01*
X188581073Y-56034566D01*
X188449120Y-55942171D01*
X188396466Y-55905302D01*
X188396463Y-55905300D01*
X188396460Y-55905298D01*
X188386602Y-55900701D01*
X188192211Y-55810055D01*
X188192200Y-55810051D01*
X187974514Y-55751722D01*
X187974507Y-55751721D01*
X187750002Y-55732080D01*
X187749998Y-55732080D01*
X187594676Y-55745668D01*
X187526176Y-55731901D01*
X187496188Y-55709821D01*
X183326368Y-51539999D01*
X194644341Y-51539999D01*
X194644341Y-51540000D01*
X194664936Y-51775403D01*
X194664938Y-51775413D01*
X194726094Y-52003655D01*
X194726096Y-52003659D01*
X194726097Y-52003663D01*
X194789906Y-52140501D01*
X194825965Y-52217830D01*
X194825967Y-52217834D01*
X194871000Y-52282147D01*
X194957659Y-52405909D01*
X194961501Y-52411395D01*
X194961506Y-52411402D01*
X195128597Y-52578493D01*
X195128603Y-52578498D01*
X195314158Y-52708425D01*
X195357783Y-52763002D01*
X195364977Y-52832500D01*
X195333454Y-52894855D01*
X195314158Y-52911575D01*
X195128597Y-53041505D01*
X194961505Y-53208597D01*
X194825965Y-53402169D01*
X194825964Y-53402171D01*
X194726098Y-53616335D01*
X194726094Y-53616344D01*
X194664938Y-53844586D01*
X194664936Y-53844596D01*
X194644341Y-54079999D01*
X194644341Y-54080000D01*
X194664936Y-54315403D01*
X194664938Y-54315413D01*
X194726094Y-54543655D01*
X194726096Y-54543659D01*
X194726097Y-54543663D01*
X194797193Y-54696128D01*
X194825965Y-54757830D01*
X194825967Y-54757834D01*
X194961501Y-54951395D01*
X194961506Y-54951402D01*
X195128597Y-55118493D01*
X195128603Y-55118498D01*
X195314158Y-55248425D01*
X195357783Y-55303002D01*
X195364977Y-55372500D01*
X195333454Y-55434855D01*
X195314158Y-55451575D01*
X195128597Y-55581505D01*
X194961505Y-55748597D01*
X194825965Y-55942169D01*
X194825964Y-55942171D01*
X194726098Y-56156335D01*
X194726094Y-56156344D01*
X194664938Y-56384586D01*
X194664936Y-56384596D01*
X194644341Y-56619999D01*
X194644341Y-56620000D01*
X194664936Y-56855403D01*
X194664938Y-56855413D01*
X194726094Y-57083655D01*
X194726096Y-57083659D01*
X194726097Y-57083663D01*
X194789906Y-57220501D01*
X194825965Y-57297830D01*
X194825967Y-57297834D01*
X194885474Y-57382818D01*
X194961505Y-57491401D01*
X195128599Y-57658495D01*
X195225384Y-57726265D01*
X195322165Y-57794032D01*
X195322167Y-57794033D01*
X195322170Y-57794035D01*
X195536337Y-57893903D01*
X195764592Y-57955063D01*
X195952918Y-57971539D01*
X195999999Y-57975659D01*
X196000000Y-57975659D01*
X196000001Y-57975659D01*
X196039234Y-57972226D01*
X196235408Y-57955063D01*
X196463663Y-57893903D01*
X196677830Y-57794035D01*
X196871401Y-57658495D01*
X197038495Y-57491401D01*
X197174035Y-57297830D01*
X197176707Y-57292097D01*
X197222878Y-57239658D01*
X197289091Y-57220500D01*
X198540991Y-57220500D01*
X198608030Y-57240185D01*
X198653785Y-57292989D01*
X198663729Y-57362147D01*
X198658923Y-57382813D01*
X198631502Y-57467205D01*
X198626597Y-57482302D01*
X198615875Y-57550000D01*
X198599500Y-57653389D01*
X198599500Y-57826611D01*
X198626598Y-57997701D01*
X198680127Y-58162445D01*
X198758768Y-58316788D01*
X198860586Y-58456928D01*
X198983072Y-58579414D01*
X199123212Y-58681232D01*
X199277555Y-58759873D01*
X199442299Y-58813402D01*
X199613389Y-58840500D01*
X199613390Y-58840500D01*
X200586610Y-58840500D01*
X200586611Y-58840500D01*
X200757701Y-58813402D01*
X200922445Y-58759873D01*
X201076788Y-58681232D01*
X201216928Y-58579414D01*
X201339414Y-58456928D01*
X201441232Y-58316788D01*
X201519873Y-58162445D01*
X201573402Y-57997701D01*
X201600500Y-57826611D01*
X201600500Y-57653389D01*
X201573402Y-57482299D01*
X201519873Y-57317555D01*
X201441232Y-57163212D01*
X201339414Y-57023072D01*
X201216928Y-56900586D01*
X201076788Y-56798768D01*
X200922445Y-56720127D01*
X200757701Y-56666598D01*
X200757699Y-56666597D01*
X200757698Y-56666597D01*
X200626271Y-56645781D01*
X200586611Y-56639500D01*
X199809097Y-56639500D01*
X199742058Y-56619815D01*
X199696303Y-56567011D01*
X199686359Y-56497853D01*
X199715384Y-56434297D01*
X199721416Y-56427819D01*
X199812416Y-56336819D01*
X199873739Y-56303334D01*
X199900097Y-56300500D01*
X200586610Y-56300500D01*
X200586611Y-56300500D01*
X200757701Y-56273402D01*
X200922445Y-56219873D01*
X201076788Y-56141232D01*
X201216928Y-56039414D01*
X201339414Y-55916928D01*
X201441232Y-55776788D01*
X201519873Y-55622445D01*
X201573402Y-55457701D01*
X201600500Y-55286611D01*
X201600500Y-55113389D01*
X201573402Y-54942299D01*
X201519873Y-54777555D01*
X201441232Y-54623212D01*
X201339414Y-54483072D01*
X201216928Y-54360586D01*
X201076788Y-54258768D01*
X200922445Y-54180127D01*
X200757701Y-54126598D01*
X200757699Y-54126597D01*
X200757698Y-54126597D01*
X200626271Y-54105781D01*
X200586611Y-54099500D01*
X199809097Y-54099500D01*
X199742058Y-54079815D01*
X199696303Y-54027011D01*
X199686359Y-53957853D01*
X199715384Y-53894297D01*
X199721416Y-53887819D01*
X199812416Y-53796819D01*
X199873739Y-53763334D01*
X199900097Y-53760500D01*
X200586610Y-53760500D01*
X200586611Y-53760500D01*
X200757701Y-53733402D01*
X200922445Y-53679873D01*
X201076788Y-53601232D01*
X201216928Y-53499414D01*
X201339414Y-53376928D01*
X201441232Y-53236788D01*
X201519873Y-53082445D01*
X201573402Y-52917701D01*
X201600500Y-52746611D01*
X201600500Y-52573389D01*
X201573402Y-52402299D01*
X201519873Y-52237555D01*
X201441232Y-52083212D01*
X201339414Y-51943072D01*
X201216928Y-51820586D01*
X201076788Y-51718768D01*
X200922445Y-51640127D01*
X200757701Y-51586598D01*
X200757699Y-51586597D01*
X200757698Y-51586597D01*
X200626271Y-51565781D01*
X200586611Y-51559500D01*
X199809097Y-51559500D01*
X199742058Y-51539815D01*
X199696303Y-51487011D01*
X199686359Y-51417853D01*
X199715384Y-51354297D01*
X199721416Y-51347819D01*
X199812416Y-51256819D01*
X199873739Y-51223334D01*
X199900097Y-51220500D01*
X200586610Y-51220500D01*
X200586611Y-51220500D01*
X200757701Y-51193402D01*
X200922445Y-51139873D01*
X201076788Y-51061232D01*
X201216928Y-50959414D01*
X201339414Y-50836928D01*
X201441232Y-50696788D01*
X201519873Y-50542445D01*
X201573402Y-50377701D01*
X201600500Y-50206611D01*
X201600500Y-50033389D01*
X201573402Y-49862299D01*
X201519873Y-49697555D01*
X201441232Y-49543212D01*
X201339414Y-49403072D01*
X201216928Y-49280586D01*
X201076788Y-49178768D01*
X200922445Y-49100127D01*
X200757701Y-49046598D01*
X200757699Y-49046597D01*
X200757698Y-49046597D01*
X200626271Y-49025781D01*
X200586611Y-49019500D01*
X199809097Y-49019500D01*
X199742058Y-48999815D01*
X199696303Y-48947011D01*
X199686359Y-48877853D01*
X199715384Y-48814297D01*
X199721416Y-48807819D01*
X199812416Y-48716819D01*
X199873739Y-48683334D01*
X199900097Y-48680500D01*
X200586610Y-48680500D01*
X200586611Y-48680500D01*
X200757701Y-48653402D01*
X200922445Y-48599873D01*
X201076788Y-48521232D01*
X201216928Y-48419414D01*
X201339414Y-48296928D01*
X201441232Y-48156788D01*
X201519873Y-48002445D01*
X201573402Y-47837701D01*
X201600500Y-47666611D01*
X201600500Y-47493389D01*
X201573402Y-47322299D01*
X201519873Y-47157555D01*
X201441232Y-47003212D01*
X201339414Y-46863072D01*
X201216928Y-46740586D01*
X201076788Y-46638768D01*
X200922445Y-46560127D01*
X200757701Y-46506598D01*
X200757699Y-46506597D01*
X200757698Y-46506597D01*
X200626271Y-46485781D01*
X200586611Y-46479500D01*
X199613389Y-46479500D01*
X199573728Y-46485781D01*
X199442302Y-46506597D01*
X199277552Y-46560128D01*
X199123211Y-46638768D01*
X199043256Y-46696859D01*
X198983072Y-46740586D01*
X198983070Y-46740588D01*
X198983069Y-46740588D01*
X198860588Y-46863069D01*
X198860588Y-46863070D01*
X198860586Y-46863072D01*
X198824319Y-46912989D01*
X198758768Y-47003211D01*
X198680128Y-47157552D01*
X198626597Y-47322302D01*
X198599500Y-47493389D01*
X198599500Y-47666610D01*
X198626597Y-47837697D01*
X198680126Y-48002442D01*
X198680128Y-48002447D01*
X198689248Y-48020346D01*
X198702143Y-48089015D01*
X198675866Y-48153755D01*
X198666444Y-48164320D01*
X198467582Y-48363182D01*
X198406262Y-48396666D01*
X198379903Y-48399500D01*
X197474499Y-48399500D01*
X197407460Y-48379815D01*
X197361705Y-48327011D01*
X197350499Y-48275500D01*
X197350499Y-48102129D01*
X197350498Y-48102123D01*
X197350497Y-48102116D01*
X197344091Y-48042517D01*
X197328233Y-48000000D01*
X197293797Y-47907671D01*
X197293793Y-47907664D01*
X197207547Y-47792455D01*
X197207544Y-47792452D01*
X197092335Y-47706206D01*
X197092328Y-47706202D01*
X196957482Y-47655908D01*
X196957483Y-47655908D01*
X196897883Y-47649501D01*
X196897881Y-47649500D01*
X196897873Y-47649500D01*
X196897864Y-47649500D01*
X195102129Y-47649500D01*
X195102123Y-47649501D01*
X195042516Y-47655908D01*
X194907671Y-47706202D01*
X194907664Y-47706206D01*
X194792455Y-47792452D01*
X194792452Y-47792455D01*
X194706206Y-47907664D01*
X194706202Y-47907671D01*
X194655908Y-48042517D01*
X194649662Y-48100617D01*
X194649501Y-48102123D01*
X194649500Y-48102135D01*
X194649500Y-49897870D01*
X194649501Y-49897876D01*
X194655908Y-49957483D01*
X194706202Y-50092328D01*
X194706206Y-50092335D01*
X194792452Y-50207544D01*
X194792455Y-50207547D01*
X194907664Y-50293793D01*
X194907671Y-50293797D01*
X195039081Y-50342810D01*
X195095015Y-50384681D01*
X195119432Y-50450145D01*
X195104580Y-50518418D01*
X195083430Y-50546673D01*
X194961503Y-50668600D01*
X194825965Y-50862169D01*
X194825964Y-50862171D01*
X194726098Y-51076335D01*
X194726094Y-51076344D01*
X194664938Y-51304586D01*
X194664936Y-51304596D01*
X194644341Y-51539999D01*
X183326368Y-51539999D01*
X182503421Y-50717052D01*
X182503414Y-50717046D01*
X182429729Y-50667812D01*
X182429729Y-50667813D01*
X182380491Y-50634913D01*
X182243917Y-50578343D01*
X182243907Y-50578340D01*
X182098920Y-50549500D01*
X182098918Y-50549500D01*
X176706978Y-50549500D01*
X176639939Y-50529815D01*
X176628313Y-50521353D01*
X176558539Y-50464090D01*
X176558532Y-50464086D01*
X176384733Y-50371188D01*
X176384727Y-50371186D01*
X176196132Y-50313976D01*
X176196129Y-50313975D01*
X176000000Y-50294659D01*
X175803870Y-50313975D01*
X175615266Y-50371188D01*
X175441467Y-50464086D01*
X175441460Y-50464090D01*
X175289116Y-50589116D01*
X175164090Y-50741460D01*
X175164086Y-50741467D01*
X175071188Y-50915266D01*
X175013975Y-51103870D01*
X174994659Y-51300000D01*
X150248155Y-51300000D01*
X156594767Y-44953389D01*
X198599500Y-44953389D01*
X198599500Y-45126610D01*
X198626344Y-45296102D01*
X198626598Y-45297701D01*
X198672667Y-45439487D01*
X198680128Y-45462447D01*
X198758768Y-45616788D01*
X198860586Y-45756928D01*
X198983072Y-45879414D01*
X199123212Y-45981232D01*
X199277555Y-46059873D01*
X199442299Y-46113402D01*
X199613389Y-46140500D01*
X199613390Y-46140500D01*
X200586610Y-46140500D01*
X200586611Y-46140500D01*
X200757701Y-46113402D01*
X200922445Y-46059873D01*
X201076788Y-45981232D01*
X201216928Y-45879414D01*
X201339414Y-45756928D01*
X201441232Y-45616788D01*
X201519873Y-45462445D01*
X201573402Y-45297701D01*
X201600500Y-45126611D01*
X201600500Y-44953389D01*
X201573402Y-44782299D01*
X201519873Y-44617555D01*
X201441232Y-44463212D01*
X201339414Y-44323072D01*
X201216928Y-44200586D01*
X201076788Y-44098768D01*
X200922445Y-44020127D01*
X200757701Y-43966598D01*
X200757699Y-43966597D01*
X200757698Y-43966597D01*
X200626271Y-43945781D01*
X200586611Y-43939500D01*
X199613389Y-43939500D01*
X199573728Y-43945781D01*
X199442302Y-43966597D01*
X199277552Y-44020128D01*
X199123211Y-44098768D01*
X199096174Y-44118412D01*
X198983072Y-44200586D01*
X198983070Y-44200588D01*
X198983069Y-44200588D01*
X198860588Y-44323069D01*
X198860588Y-44323070D01*
X198860586Y-44323072D01*
X198838988Y-44352799D01*
X198758768Y-44463211D01*
X198680128Y-44617552D01*
X198626597Y-44782302D01*
X198599500Y-44953389D01*
X156594767Y-44953389D01*
X159811338Y-41736819D01*
X159872661Y-41703334D01*
X159899019Y-41700500D01*
X198477756Y-41700500D01*
X198544795Y-41720185D01*
X198590550Y-41772989D01*
X198601045Y-41837752D01*
X198599500Y-41852127D01*
X198599500Y-41852133D01*
X198599500Y-41852134D01*
X198599500Y-43147870D01*
X198599501Y-43147876D01*
X198605908Y-43207483D01*
X198656202Y-43342328D01*
X198656206Y-43342335D01*
X198742452Y-43457544D01*
X198742455Y-43457547D01*
X198857664Y-43543793D01*
X198857671Y-43543797D01*
X198992517Y-43594091D01*
X198992516Y-43594091D01*
X198999444Y-43594835D01*
X199052127Y-43600500D01*
X201147872Y-43600499D01*
X201207483Y-43594091D01*
X201342331Y-43543796D01*
X201457546Y-43457546D01*
X201543796Y-43342331D01*
X201594091Y-43207483D01*
X201600500Y-43147873D01*
X201600499Y-41852128D01*
X201598954Y-41837752D01*
X201611361Y-41768993D01*
X201658973Y-41717857D01*
X201722244Y-41700500D01*
X214158481Y-41700500D01*
X214225520Y-41720185D01*
X214246162Y-41736819D01*
X220763181Y-48253838D01*
X220796666Y-48315161D01*
X220799500Y-48341519D01*
X220799500Y-50931006D01*
X220799500Y-51068994D01*
X220799500Y-51068996D01*
X220799499Y-51068996D01*
X220826418Y-51204322D01*
X220826421Y-51204332D01*
X220879222Y-51331807D01*
X220955887Y-51446545D01*
X222970766Y-53461424D01*
X223004251Y-53522747D01*
X222999267Y-53592439D01*
X222957395Y-53648372D01*
X222891931Y-53672789D01*
X222832649Y-53662385D01*
X222830446Y-53661404D01*
X222779803Y-53638856D01*
X222779801Y-53638855D01*
X222779800Y-53638855D01*
X222602794Y-53601232D01*
X222594646Y-53599500D01*
X222405354Y-53599500D01*
X222397206Y-53601232D01*
X222220197Y-53638855D01*
X222220192Y-53638857D01*
X222047270Y-53715848D01*
X222047265Y-53715851D01*
X221894129Y-53827111D01*
X221767466Y-53967785D01*
X221672821Y-54131715D01*
X221672818Y-54131722D01*
X221631539Y-54258768D01*
X221614326Y-54311744D01*
X221594540Y-54500000D01*
X221614326Y-54688256D01*
X221614327Y-54688259D01*
X221672818Y-54868277D01*
X221672821Y-54868284D01*
X221767467Y-55032216D01*
X221867650Y-55143480D01*
X221897880Y-55206471D01*
X221899500Y-55226452D01*
X221899500Y-62413330D01*
X221899499Y-62413348D01*
X221899499Y-62579054D01*
X221899498Y-62579054D01*
X221910788Y-62621188D01*
X221940423Y-62731785D01*
X221948012Y-62744930D01*
X221969358Y-62781900D01*
X221969359Y-62781904D01*
X221969360Y-62781904D01*
X221999783Y-62834600D01*
X222019479Y-62868714D01*
X222019481Y-62868717D01*
X222138349Y-62987585D01*
X222138355Y-62987590D01*
X223515139Y-64364374D01*
X223515149Y-64364385D01*
X223519479Y-64368715D01*
X223519480Y-64368716D01*
X223631284Y-64480520D01*
X223631286Y-64480521D01*
X223631290Y-64480524D01*
X223760877Y-64555340D01*
X223768216Y-64559577D01*
X223880019Y-64589534D01*
X223920942Y-64600500D01*
X223920943Y-64600500D01*
X224049515Y-64600500D01*
X224116554Y-64620185D01*
X224162309Y-64672989D01*
X224172253Y-64742147D01*
X224160000Y-64780795D01*
X224158769Y-64783209D01*
X224158768Y-64783212D01*
X224122750Y-64853901D01*
X224080128Y-64937552D01*
X224026597Y-65102302D01*
X223999500Y-65273389D01*
X223999500Y-65446610D01*
X224026597Y-65617697D01*
X224026597Y-65617699D01*
X224026598Y-65617701D01*
X224080127Y-65782445D01*
X224158768Y-65936788D01*
X224260586Y-66076928D01*
X224383072Y-66199414D01*
X224523212Y-66301232D01*
X224677555Y-66379873D01*
X224842299Y-66433402D01*
X225013389Y-66460500D01*
X225699903Y-66460500D01*
X225766942Y-66480185D01*
X225787584Y-66496819D01*
X225878584Y-66587819D01*
X225912069Y-66649142D01*
X225907085Y-66718834D01*
X225865213Y-66774767D01*
X225799749Y-66799184D01*
X225790903Y-66799500D01*
X225013389Y-66799500D01*
X224973728Y-66805781D01*
X224842302Y-66826597D01*
X224677552Y-66880128D01*
X224523211Y-66958768D01*
X224519443Y-66961506D01*
X224383072Y-67060586D01*
X224383070Y-67060588D01*
X224383069Y-67060588D01*
X224260588Y-67183069D01*
X224260588Y-67183070D01*
X224260586Y-67183072D01*
X224240278Y-67211024D01*
X224158768Y-67323211D01*
X224080128Y-67477552D01*
X224026597Y-67642302D01*
X223999500Y-67813389D01*
X223999500Y-67986610D01*
X224026596Y-68157693D01*
X224026598Y-68157701D01*
X224051847Y-68235408D01*
X224080126Y-68322442D01*
X224080128Y-68322447D01*
X224089248Y-68340346D01*
X224102143Y-68409015D01*
X224075866Y-68473755D01*
X224066443Y-68484320D01*
X213687584Y-78863181D01*
X213626261Y-78896666D01*
X213599903Y-78899500D01*
X209629593Y-78899500D01*
X209562554Y-78879815D01*
X209516799Y-78827011D01*
X209506855Y-78757853D01*
X209522206Y-78713500D01*
X209537033Y-78687819D01*
X209577179Y-78618284D01*
X209635674Y-78438256D01*
X209655460Y-78250000D01*
X209635674Y-78061744D01*
X209606569Y-77972168D01*
X209600500Y-77933850D01*
X209600500Y-77920944D01*
X209600500Y-77920943D01*
X209559576Y-77768216D01*
X209559572Y-77768209D01*
X209480523Y-77631290D01*
X209480517Y-77631282D01*
X209368717Y-77519482D01*
X209368709Y-77519476D01*
X209231790Y-77440427D01*
X209231785Y-77440424D01*
X209079054Y-77399499D01*
X209070998Y-77398439D01*
X209071108Y-77397596D01*
X209036209Y-77390178D01*
X209035986Y-77390865D01*
X209029801Y-77388855D01*
X208894624Y-77360123D01*
X208844646Y-77349500D01*
X208655354Y-77349500D01*
X208627582Y-77355403D01*
X208470197Y-77388855D01*
X208470192Y-77388857D01*
X208297270Y-77465848D01*
X208297265Y-77465851D01*
X208144129Y-77577111D01*
X208017466Y-77717785D01*
X207922821Y-77881715D01*
X207922818Y-77881722D01*
X207875535Y-78027246D01*
X207864326Y-78061744D01*
X207844540Y-78250000D01*
X207844540Y-78250002D01*
X207844540Y-78254861D01*
X207824855Y-78321900D01*
X207808223Y-78342540D01*
X207787585Y-78363179D01*
X207726263Y-78396666D01*
X207699902Y-78399500D01*
X201705631Y-78399500D01*
X201638592Y-78379815D01*
X201592837Y-78327011D01*
X201582893Y-78257853D01*
X201583158Y-78256102D01*
X201584125Y-78250000D01*
X201600500Y-78146611D01*
X201600500Y-77973389D01*
X201573402Y-77802299D01*
X201519873Y-77637555D01*
X201441232Y-77483212D01*
X201339414Y-77343072D01*
X201216928Y-77220586D01*
X201076788Y-77118768D01*
X200922445Y-77040127D01*
X200757701Y-76986598D01*
X200757699Y-76986597D01*
X200757698Y-76986597D01*
X200626271Y-76965781D01*
X200586611Y-76959500D01*
X199613389Y-76959500D01*
X199589996Y-76963204D01*
X199442299Y-76986597D01*
X199373826Y-77008845D01*
X199303985Y-77010839D01*
X199247829Y-76978594D01*
X197539234Y-75269999D01*
X198625884Y-75269999D01*
X198625885Y-75270000D01*
X199784314Y-75270000D01*
X199779920Y-75274394D01*
X199727259Y-75365606D01*
X199700000Y-75467339D01*
X199700000Y-75572661D01*
X199727259Y-75674394D01*
X199779920Y-75765606D01*
X199784314Y-75770000D01*
X198625885Y-75770000D01*
X198627085Y-75777584D01*
X198680591Y-75942255D01*
X198759195Y-76096524D01*
X198860967Y-76236602D01*
X198983397Y-76359032D01*
X199123475Y-76460804D01*
X199277742Y-76539408D01*
X199442415Y-76592914D01*
X199613429Y-76620000D01*
X199850000Y-76620000D01*
X199850000Y-75835686D01*
X199854394Y-75840080D01*
X199945606Y-75892741D01*
X200047339Y-75920000D01*
X200152661Y-75920000D01*
X200254394Y-75892741D01*
X200345606Y-75840080D01*
X200350000Y-75835686D01*
X200350000Y-76620000D01*
X200586571Y-76620000D01*
X200757584Y-76592914D01*
X200922257Y-76539408D01*
X201076524Y-76460804D01*
X201216602Y-76359032D01*
X201339032Y-76236602D01*
X201440804Y-76096524D01*
X201519408Y-75942255D01*
X201572914Y-75777584D01*
X201574115Y-75770000D01*
X200415686Y-75770000D01*
X200420080Y-75765606D01*
X200472741Y-75674394D01*
X200500000Y-75572661D01*
X200500000Y-75467339D01*
X200472741Y-75365606D01*
X200420080Y-75274394D01*
X200415686Y-75270000D01*
X201574115Y-75270000D01*
X201574115Y-75269999D01*
X201572914Y-75262415D01*
X201519408Y-75097744D01*
X201440804Y-74943475D01*
X201339032Y-74803397D01*
X201216602Y-74680967D01*
X201076524Y-74579195D01*
X200922257Y-74500591D01*
X200757584Y-74447085D01*
X200586571Y-74420000D01*
X200350000Y-74420000D01*
X200350000Y-75204314D01*
X200345606Y-75199920D01*
X200254394Y-75147259D01*
X200152661Y-75120000D01*
X200047339Y-75120000D01*
X199945606Y-75147259D01*
X199854394Y-75199920D01*
X199850000Y-75204314D01*
X199850000Y-74420000D01*
X199613429Y-74420000D01*
X199442415Y-74447085D01*
X199277742Y-74500591D01*
X199123475Y-74579195D01*
X198983397Y-74680967D01*
X198860967Y-74803397D01*
X198759195Y-74943475D01*
X198680591Y-75097744D01*
X198627085Y-75262415D01*
X198625884Y-75269999D01*
X197539234Y-75269999D01*
X197332766Y-75063531D01*
X197299281Y-75002208D01*
X197300672Y-74943757D01*
X197326219Y-74848413D01*
X197335063Y-74815408D01*
X197355659Y-74580000D01*
X197335063Y-74344592D01*
X197273903Y-74116337D01*
X197174035Y-73902171D01*
X197154999Y-73874984D01*
X197085426Y-73775623D01*
X197063099Y-73709417D01*
X197080109Y-73641650D01*
X197131057Y-73593837D01*
X197187001Y-73580500D01*
X198712815Y-73580500D01*
X198779854Y-73600185D01*
X198813131Y-73631612D01*
X198860586Y-73696928D01*
X198983072Y-73819414D01*
X199123212Y-73921232D01*
X199277555Y-73999873D01*
X199442299Y-74053402D01*
X199613389Y-74080500D01*
X199613390Y-74080500D01*
X200586610Y-74080500D01*
X200586611Y-74080500D01*
X200757701Y-74053402D01*
X200922445Y-73999873D01*
X201076788Y-73921232D01*
X201216928Y-73819414D01*
X201339414Y-73696928D01*
X201441232Y-73556788D01*
X201519873Y-73402445D01*
X201573402Y-73237701D01*
X201600500Y-73066611D01*
X201600500Y-72893389D01*
X201573402Y-72722299D01*
X201519873Y-72557555D01*
X201441232Y-72403212D01*
X201339414Y-72263072D01*
X201216928Y-72140586D01*
X201076788Y-72038768D01*
X200922445Y-71960127D01*
X200757701Y-71906598D01*
X200757699Y-71906597D01*
X200757698Y-71906597D01*
X200626271Y-71885781D01*
X200586611Y-71879500D01*
X199613389Y-71879500D01*
X199573728Y-71885781D01*
X199442302Y-71906597D01*
X199277552Y-71960128D01*
X199123211Y-72038768D01*
X199043256Y-72096859D01*
X198983072Y-72140586D01*
X198983070Y-72140588D01*
X198983069Y-72140588D01*
X198860588Y-72263069D01*
X198860588Y-72263070D01*
X198860586Y-72263072D01*
X198813133Y-72328386D01*
X198757803Y-72371051D01*
X198712815Y-72379500D01*
X197461278Y-72379500D01*
X197394239Y-72359815D01*
X197348484Y-72307011D01*
X197337750Y-72244692D01*
X197346859Y-72140586D01*
X197355659Y-72040000D01*
X197335063Y-71804592D01*
X197273903Y-71576337D01*
X197174035Y-71362171D01*
X197146027Y-71322171D01*
X197085426Y-71235623D01*
X197063099Y-71169417D01*
X197080109Y-71101650D01*
X197131057Y-71053837D01*
X197187001Y-71040500D01*
X198712815Y-71040500D01*
X198779854Y-71060185D01*
X198813131Y-71091612D01*
X198860586Y-71156928D01*
X198983072Y-71279414D01*
X199123212Y-71381232D01*
X199277555Y-71459873D01*
X199442299Y-71513402D01*
X199613389Y-71540500D01*
X199613390Y-71540500D01*
X200586610Y-71540500D01*
X200586611Y-71540500D01*
X200757701Y-71513402D01*
X200922445Y-71459873D01*
X201076788Y-71381232D01*
X201216928Y-71279414D01*
X201339414Y-71156928D01*
X201441232Y-71016788D01*
X201519873Y-70862445D01*
X201573402Y-70697701D01*
X201600500Y-70526611D01*
X201600500Y-70353389D01*
X201573402Y-70182299D01*
X201519873Y-70017555D01*
X201441232Y-69863212D01*
X201339414Y-69723072D01*
X201216928Y-69600586D01*
X201076788Y-69498768D01*
X200922445Y-69420127D01*
X200757701Y-69366598D01*
X200757699Y-69366597D01*
X200757698Y-69366597D01*
X200615597Y-69344091D01*
X200586611Y-69339500D01*
X199613389Y-69339500D01*
X199584403Y-69344091D01*
X199442302Y-69366597D01*
X199277552Y-69420128D01*
X199123211Y-69498768D01*
X199043256Y-69556859D01*
X198983072Y-69600586D01*
X198983070Y-69600588D01*
X198983069Y-69600588D01*
X198860588Y-69723069D01*
X198860588Y-69723070D01*
X198860586Y-69723072D01*
X198813133Y-69788386D01*
X198757803Y-69831051D01*
X198712815Y-69839500D01*
X197474500Y-69839500D01*
X197407461Y-69819815D01*
X197361706Y-69767011D01*
X197350500Y-69715500D01*
X197350499Y-68602129D01*
X197350498Y-68602123D01*
X197350497Y-68602116D01*
X197344091Y-68542517D01*
X197318444Y-68473755D01*
X197293797Y-68407671D01*
X197293793Y-68407664D01*
X197207547Y-68292455D01*
X197207544Y-68292452D01*
X197092335Y-68206206D01*
X197092328Y-68206202D01*
X196957482Y-68155908D01*
X196957483Y-68155908D01*
X196897883Y-68149501D01*
X196897881Y-68149500D01*
X196897873Y-68149500D01*
X196897864Y-68149500D01*
X195102129Y-68149500D01*
X195102123Y-68149501D01*
X195042516Y-68155908D01*
X194907671Y-68206202D01*
X194907664Y-68206206D01*
X194792455Y-68292452D01*
X194792452Y-68292455D01*
X194706206Y-68407664D01*
X194706202Y-68407671D01*
X194655908Y-68542517D01*
X194649501Y-68602116D01*
X194649501Y-68602123D01*
X194649500Y-68602135D01*
X194649500Y-70397870D01*
X194649501Y-70397876D01*
X194655908Y-70457483D01*
X194706202Y-70592328D01*
X194706206Y-70592335D01*
X194792452Y-70707544D01*
X194792455Y-70707547D01*
X194907664Y-70793793D01*
X194907671Y-70793797D01*
X195039081Y-70842810D01*
X195095015Y-70884681D01*
X195119432Y-70950145D01*
X195104580Y-71018418D01*
X195083430Y-71046673D01*
X194961503Y-71168600D01*
X194825965Y-71362169D01*
X194825964Y-71362171D01*
X194726098Y-71576335D01*
X194726094Y-71576344D01*
X194664938Y-71804586D01*
X194664936Y-71804596D01*
X194644341Y-72039999D01*
X194644341Y-72040000D01*
X194664936Y-72275403D01*
X194664938Y-72275413D01*
X194726094Y-72503655D01*
X194726096Y-72503659D01*
X194726097Y-72503663D01*
X194807313Y-72677830D01*
X194825965Y-72717830D01*
X194825967Y-72717834D01*
X194961501Y-72911395D01*
X194961506Y-72911402D01*
X195128597Y-73078493D01*
X195128603Y-73078498D01*
X195314158Y-73208425D01*
X195357783Y-73263002D01*
X195364977Y-73332500D01*
X195333454Y-73394855D01*
X195314158Y-73411575D01*
X195128597Y-73541505D01*
X194961505Y-73708597D01*
X194825965Y-73902169D01*
X194825964Y-73902171D01*
X194726098Y-74116335D01*
X194726094Y-74116344D01*
X194664938Y-74344586D01*
X194664936Y-74344596D01*
X194644341Y-74579999D01*
X194644341Y-74580000D01*
X194664936Y-74815403D01*
X194664938Y-74815413D01*
X194726094Y-75043655D01*
X194726096Y-75043659D01*
X194726097Y-75043663D01*
X194761694Y-75120000D01*
X194825965Y-75257830D01*
X194825967Y-75257834D01*
X194961501Y-75451395D01*
X194961506Y-75451402D01*
X195128597Y-75618493D01*
X195128603Y-75618498D01*
X195314158Y-75748425D01*
X195357783Y-75803002D01*
X195364977Y-75872500D01*
X195333454Y-75934855D01*
X195314158Y-75951575D01*
X195128597Y-76081505D01*
X194961505Y-76248597D01*
X194825965Y-76442169D01*
X194825964Y-76442171D01*
X194726098Y-76656335D01*
X194726094Y-76656344D01*
X194664938Y-76884586D01*
X194664936Y-76884596D01*
X194644341Y-77119999D01*
X194644341Y-77120000D01*
X194664936Y-77355403D01*
X194664938Y-77355413D01*
X194726094Y-77583655D01*
X194726096Y-77583659D01*
X194726097Y-77583663D01*
X194812155Y-77768214D01*
X194825965Y-77797830D01*
X194825967Y-77797834D01*
X194912170Y-77920943D01*
X194961505Y-77991401D01*
X195128599Y-78158495D01*
X195162949Y-78182547D01*
X195322165Y-78294032D01*
X195322167Y-78294033D01*
X195322170Y-78294035D01*
X195536337Y-78393903D01*
X195536343Y-78393904D01*
X195536344Y-78393905D01*
X195591285Y-78408626D01*
X195764592Y-78455063D01*
X195952918Y-78471539D01*
X195999999Y-78475659D01*
X196000000Y-78475659D01*
X196000001Y-78475659D01*
X196039234Y-78472226D01*
X196235408Y-78455063D01*
X196463663Y-78393903D01*
X196677830Y-78294035D01*
X196871401Y-78158495D01*
X197002652Y-78027243D01*
X197063971Y-77993761D01*
X197133663Y-77998745D01*
X197178011Y-78027246D01*
X197838584Y-78687819D01*
X197872069Y-78749142D01*
X197867085Y-78818834D01*
X197825213Y-78874767D01*
X197759749Y-78899184D01*
X197750903Y-78899500D01*
X196086670Y-78899500D01*
X196086654Y-78899499D01*
X196079058Y-78899499D01*
X195920943Y-78899499D01*
X195844579Y-78919961D01*
X195768214Y-78940423D01*
X195768209Y-78940426D01*
X195631290Y-79019475D01*
X195631282Y-79019481D01*
X190886084Y-83764681D01*
X190824761Y-83798166D01*
X190798403Y-83801000D01*
X183232412Y-83801000D01*
X183165373Y-83781315D01*
X183155091Y-83773941D01*
X183152265Y-83771687D01*
X183152262Y-83771684D01*
X183130250Y-83757853D01*
X183079759Y-83726127D01*
X183058049Y-83708813D01*
X183014397Y-83665160D01*
X183014374Y-83665139D01*
X182487590Y-83138355D01*
X182487588Y-83138352D01*
X182368717Y-83019481D01*
X182368716Y-83019480D01*
X182281904Y-82969360D01*
X182281904Y-82969359D01*
X182281900Y-82969358D01*
X182231785Y-82940423D01*
X182079057Y-82899499D01*
X181920943Y-82899499D01*
X181913347Y-82899499D01*
X181913331Y-82899500D01*
X179586670Y-82899500D01*
X179586654Y-82899499D01*
X179579058Y-82899499D01*
X179420943Y-82899499D01*
X179344579Y-82919961D01*
X179268214Y-82940423D01*
X179268209Y-82940426D01*
X179131290Y-83019475D01*
X179131282Y-83019481D01*
X178386084Y-83764681D01*
X178324761Y-83798166D01*
X178298403Y-83801000D01*
X169082412Y-83801000D01*
X169015373Y-83781315D01*
X169005097Y-83773945D01*
X169002263Y-83771685D01*
X169002262Y-83771684D01*
X168914896Y-83716788D01*
X168849521Y-83675710D01*
X168679249Y-83616130D01*
X168592330Y-83606337D01*
X168527916Y-83579270D01*
X168518533Y-83570798D01*
X167586090Y-82638355D01*
X167586088Y-82638352D01*
X167467217Y-82519481D01*
X167467216Y-82519480D01*
X167380404Y-82469360D01*
X167380404Y-82469359D01*
X167380400Y-82469358D01*
X167330285Y-82440423D01*
X167177557Y-82399499D01*
X167019443Y-82399499D01*
X167011847Y-82399499D01*
X167011831Y-82399500D01*
X163579057Y-82399500D01*
X163420942Y-82399500D01*
X163268215Y-82440423D01*
X163268214Y-82440423D01*
X163268212Y-82440424D01*
X163268209Y-82440425D01*
X163218096Y-82469359D01*
X163218095Y-82469360D01*
X163188181Y-82486631D01*
X163131285Y-82519479D01*
X163131282Y-82519481D01*
X163019480Y-82631284D01*
X163019478Y-82631286D01*
X162439882Y-83210883D01*
X161886084Y-83764681D01*
X161824761Y-83798166D01*
X161798403Y-83801000D01*
X154932413Y-83801000D01*
X154865374Y-83781315D01*
X154855098Y-83773945D01*
X154852264Y-83771685D01*
X154852263Y-83771684D01*
X154779760Y-83726127D01*
X154699524Y-83675711D01*
X154529255Y-83616131D01*
X154529250Y-83616130D01*
X154350005Y-83595935D01*
X154349997Y-83595935D01*
X154170751Y-83616130D01*
X154170738Y-83616133D01*
X154000482Y-83675709D01*
X154000473Y-83675713D01*
X153915971Y-83728809D01*
X153848734Y-83747809D01*
X153784028Y-83728809D01*
X153699523Y-83675711D01*
X153529254Y-83616131D01*
X153529249Y-83616130D01*
X153350004Y-83595935D01*
X153349996Y-83595935D01*
X153170750Y-83616130D01*
X153170745Y-83616131D01*
X153000476Y-83675711D01*
X152847737Y-83771684D01*
X152720184Y-83899237D01*
X152624211Y-84051976D01*
X152564631Y-84222245D01*
X152564630Y-84222250D01*
X152544435Y-84401496D01*
X152544435Y-84401503D01*
X152564630Y-84580749D01*
X152564631Y-84580754D01*
X152624211Y-84751023D01*
X152708227Y-84884733D01*
X152720184Y-84903762D01*
X152847738Y-85031316D01*
X153000478Y-85127289D01*
X153170745Y-85186868D01*
X153257669Y-85196661D01*
X153322080Y-85223726D01*
X153331465Y-85232200D01*
X154463639Y-86364374D01*
X154463649Y-86364385D01*
X154467979Y-86368715D01*
X154467980Y-86368716D01*
X154579784Y-86480520D01*
X154579786Y-86480521D01*
X154579790Y-86480524D01*
X154716709Y-86559573D01*
X154716716Y-86559577D01*
X154828519Y-86589534D01*
X154869442Y-86600500D01*
X154869443Y-86600500D01*
X165913331Y-86600500D01*
X165913347Y-86600501D01*
X165920943Y-86600501D01*
X166079054Y-86600501D01*
X166079057Y-86600501D01*
X166231785Y-86559577D01*
X166306060Y-86516694D01*
X166368716Y-86480520D01*
X166480520Y-86368716D01*
X166480520Y-86368714D01*
X166490724Y-86358511D01*
X166490728Y-86358506D01*
X167461569Y-85387664D01*
X167522890Y-85354181D01*
X167592582Y-85359165D01*
X167636929Y-85387666D01*
X167907116Y-85657853D01*
X168229783Y-85980520D01*
X168229785Y-85980521D01*
X168229789Y-85980524D01*
X168366708Y-86059573D01*
X168366711Y-86059575D01*
X168366715Y-86059577D01*
X168519442Y-86100501D01*
X168519444Y-86100501D01*
X168685153Y-86100501D01*
X168685169Y-86100500D01*
X180413331Y-86100500D01*
X180413347Y-86100501D01*
X180420943Y-86100501D01*
X180579054Y-86100501D01*
X180579057Y-86100501D01*
X180731785Y-86059577D01*
X180784555Y-86029110D01*
X180868716Y-85980520D01*
X180980520Y-85868716D01*
X180980520Y-85868714D01*
X180990724Y-85858511D01*
X180990728Y-85858506D01*
X181536569Y-85312664D01*
X181597890Y-85279181D01*
X181667582Y-85284165D01*
X181711929Y-85312666D01*
X182028986Y-85629723D01*
X182379783Y-85980520D01*
X182379785Y-85980521D01*
X182379789Y-85980524D01*
X182516708Y-86059573D01*
X182516711Y-86059575D01*
X182516715Y-86059577D01*
X182669442Y-86100501D01*
X182669444Y-86100501D01*
X182835153Y-86100501D01*
X182835169Y-86100500D01*
X183908472Y-86100500D01*
X183975511Y-86120185D01*
X184021266Y-86172989D01*
X184031210Y-86242147D01*
X184027133Y-86260495D01*
X184013975Y-86303869D01*
X183994659Y-86500000D01*
X184013975Y-86696129D01*
X184071188Y-86884733D01*
X184164086Y-87058532D01*
X184164090Y-87058539D01*
X184289116Y-87210883D01*
X184441460Y-87335909D01*
X184441467Y-87335913D01*
X184615266Y-87428811D01*
X184615269Y-87428811D01*
X184615273Y-87428814D01*
X184803868Y-87486024D01*
X185000000Y-87505341D01*
X185196132Y-87486024D01*
X185384727Y-87428814D01*
X185558538Y-87335910D01*
X185689238Y-87228646D01*
X185753546Y-87201334D01*
X185767902Y-87200500D01*
X198038481Y-87200500D01*
X198105520Y-87220185D01*
X198126162Y-87236819D01*
X198628056Y-87738713D01*
X198661541Y-87800036D01*
X198658306Y-87864712D01*
X198626597Y-87962301D01*
X198599500Y-88133389D01*
X198599500Y-88306610D01*
X198626166Y-88474977D01*
X198626598Y-88477701D01*
X198680127Y-88642445D01*
X198758768Y-88796788D01*
X198860586Y-88936928D01*
X198983072Y-89059414D01*
X199123212Y-89161232D01*
X199277555Y-89239873D01*
X199442299Y-89293402D01*
X199613389Y-89320500D01*
X199613390Y-89320500D01*
X200586610Y-89320500D01*
X200586611Y-89320500D01*
X200757701Y-89293402D01*
X200922445Y-89239873D01*
X201076788Y-89161232D01*
X201216928Y-89059414D01*
X201339414Y-88936928D01*
X201441232Y-88796788D01*
X201519873Y-88642445D01*
X201573402Y-88477701D01*
X201600500Y-88306611D01*
X201600500Y-88133389D01*
X201600069Y-88130669D01*
X223995820Y-88130669D01*
X223995820Y-88303891D01*
X224022918Y-88474981D01*
X224076447Y-88639725D01*
X224155088Y-88794068D01*
X224256906Y-88934208D01*
X224379392Y-89056694D01*
X224519532Y-89158512D01*
X224673875Y-89237153D01*
X224838619Y-89290682D01*
X225009709Y-89317780D01*
X225009710Y-89317780D01*
X225982930Y-89317780D01*
X225982931Y-89317780D01*
X226154021Y-89290682D01*
X226318765Y-89237153D01*
X226473108Y-89158512D01*
X226613248Y-89056694D01*
X226735734Y-88934208D01*
X226837552Y-88794068D01*
X226916193Y-88639725D01*
X226969722Y-88474981D01*
X226996820Y-88303891D01*
X226996820Y-88130669D01*
X226969722Y-87959579D01*
X226916193Y-87794835D01*
X226837552Y-87640492D01*
X226735734Y-87500352D01*
X226613248Y-87377866D01*
X226473108Y-87276048D01*
X226396116Y-87236819D01*
X226318767Y-87197408D01*
X226318766Y-87197407D01*
X226318765Y-87197407D01*
X226154021Y-87143878D01*
X226154019Y-87143877D01*
X226154018Y-87143877D01*
X226000104Y-87119500D01*
X225982931Y-87116780D01*
X225009709Y-87116780D01*
X224992536Y-87119500D01*
X224838622Y-87143877D01*
X224673872Y-87197408D01*
X224519531Y-87276048D01*
X224458743Y-87320214D01*
X224379392Y-87377866D01*
X224379390Y-87377868D01*
X224379389Y-87377868D01*
X224256908Y-87500349D01*
X224256908Y-87500350D01*
X224256906Y-87500352D01*
X224235153Y-87530293D01*
X224155088Y-87640491D01*
X224076448Y-87794832D01*
X224022917Y-87959582D01*
X224009874Y-88041936D01*
X223995820Y-88130669D01*
X201600069Y-88130669D01*
X201573402Y-87962299D01*
X201519873Y-87797555D01*
X201441232Y-87643212D01*
X201339414Y-87503072D01*
X201216928Y-87380586D01*
X201076788Y-87278768D01*
X200922445Y-87200127D01*
X200757701Y-87146598D01*
X200757699Y-87146597D01*
X200757698Y-87146597D01*
X200626271Y-87125781D01*
X200586611Y-87119500D01*
X200586610Y-87119500D01*
X200041518Y-87119500D01*
X199974479Y-87099815D01*
X199953837Y-87083181D01*
X199862837Y-86992181D01*
X199829352Y-86930858D01*
X199834336Y-86861166D01*
X199876208Y-86805233D01*
X199941672Y-86780816D01*
X199950518Y-86780500D01*
X200586610Y-86780500D01*
X200586611Y-86780500D01*
X200757701Y-86753402D01*
X200922445Y-86699873D01*
X201076788Y-86621232D01*
X201216928Y-86519414D01*
X201339414Y-86396928D01*
X201441232Y-86256788D01*
X201519873Y-86102445D01*
X201573402Y-85937701D01*
X201600500Y-85766611D01*
X201600500Y-85593389D01*
X201600069Y-85590669D01*
X223995820Y-85590669D01*
X223995820Y-85763891D01*
X224000385Y-85792712D01*
X224021690Y-85927231D01*
X224022918Y-85934981D01*
X224076447Y-86099725D01*
X224155088Y-86254068D01*
X224256906Y-86394208D01*
X224379392Y-86516694D01*
X224519532Y-86618512D01*
X224673875Y-86697153D01*
X224838619Y-86750682D01*
X225009709Y-86777780D01*
X225009710Y-86777780D01*
X225982930Y-86777780D01*
X225982931Y-86777780D01*
X226154021Y-86750682D01*
X226318765Y-86697153D01*
X226473108Y-86618512D01*
X226613248Y-86516694D01*
X226735734Y-86394208D01*
X226746993Y-86378711D01*
X245149500Y-86378711D01*
X245149500Y-86621288D01*
X245181161Y-86861785D01*
X245243947Y-87096104D01*
X245318483Y-87276048D01*
X245336776Y-87320212D01*
X245458064Y-87530289D01*
X245458066Y-87530292D01*
X245458067Y-87530293D01*
X245605733Y-87722736D01*
X245605739Y-87722743D01*
X245777256Y-87894260D01*
X245777262Y-87894265D01*
X245969711Y-88041936D01*
X246179788Y-88163224D01*
X246403900Y-88256054D01*
X246638211Y-88318838D01*
X246818586Y-88342584D01*
X246878711Y-88350500D01*
X246878712Y-88350500D01*
X247121289Y-88350500D01*
X247169388Y-88344167D01*
X247361789Y-88318838D01*
X247596100Y-88256054D01*
X247820212Y-88163224D01*
X248030289Y-88041936D01*
X248222738Y-87894265D01*
X248394265Y-87722738D01*
X248541936Y-87530289D01*
X248663224Y-87320212D01*
X248756054Y-87096100D01*
X248818838Y-86861789D01*
X248850500Y-86621288D01*
X248850500Y-86378712D01*
X248818838Y-86138211D01*
X248756054Y-85903900D01*
X248663224Y-85679788D01*
X248541936Y-85469711D01*
X248453287Y-85354181D01*
X248394266Y-85277263D01*
X248394260Y-85277256D01*
X248222743Y-85105739D01*
X248222736Y-85105733D01*
X248030293Y-84958067D01*
X248030292Y-84958066D01*
X248030289Y-84958064D01*
X247851941Y-84855095D01*
X247820214Y-84836777D01*
X247820205Y-84836773D01*
X247596104Y-84743947D01*
X247361785Y-84681161D01*
X247121289Y-84649500D01*
X247121288Y-84649500D01*
X246878712Y-84649500D01*
X246878711Y-84649500D01*
X246638214Y-84681161D01*
X246403895Y-84743947D01*
X246179794Y-84836773D01*
X246179785Y-84836777D01*
X245969706Y-84958067D01*
X245777263Y-85105733D01*
X245777256Y-85105739D01*
X245605739Y-85277256D01*
X245605733Y-85277263D01*
X245458067Y-85469706D01*
X245336777Y-85679785D01*
X245336773Y-85679794D01*
X245243947Y-85903895D01*
X245181161Y-86138214D01*
X245149500Y-86378711D01*
X226746993Y-86378711D01*
X226837552Y-86254068D01*
X226916193Y-86099725D01*
X226969722Y-85934981D01*
X226996820Y-85763891D01*
X226996820Y-85590669D01*
X226969722Y-85419579D01*
X226916193Y-85254835D01*
X226837552Y-85100492D01*
X226735734Y-84960352D01*
X226613248Y-84837866D01*
X226473108Y-84736048D01*
X226318765Y-84657407D01*
X226154021Y-84603878D01*
X226154019Y-84603877D01*
X226154018Y-84603877D01*
X226008028Y-84580755D01*
X225982931Y-84576780D01*
X225009709Y-84576780D01*
X224984612Y-84580755D01*
X224838622Y-84603877D01*
X224673872Y-84657408D01*
X224519531Y-84736048D01*
X224477402Y-84766657D01*
X224379392Y-84837866D01*
X224379390Y-84837868D01*
X224379389Y-84837868D01*
X224256908Y-84960349D01*
X224256908Y-84960350D01*
X224256906Y-84960352D01*
X224242254Y-84980519D01*
X224155088Y-85100491D01*
X224076448Y-85254832D01*
X224022917Y-85419582D01*
X224007982Y-85513879D01*
X223995820Y-85590669D01*
X201600069Y-85590669D01*
X201573402Y-85422299D01*
X201521582Y-85262817D01*
X201519588Y-85192977D01*
X201555668Y-85133144D01*
X201618369Y-85102316D01*
X201639514Y-85100500D01*
X211353331Y-85100500D01*
X211353347Y-85100501D01*
X211360943Y-85100501D01*
X211519054Y-85100501D01*
X211519057Y-85100501D01*
X211671785Y-85059577D01*
X211721904Y-85030639D01*
X211808716Y-84980520D01*
X211920520Y-84868716D01*
X211920520Y-84868714D01*
X211930728Y-84858507D01*
X211930729Y-84858504D01*
X213735844Y-83053389D01*
X223999500Y-83053389D01*
X223999500Y-83226611D01*
X224026598Y-83397701D01*
X224080127Y-83562445D01*
X224158768Y-83716788D01*
X224260586Y-83856928D01*
X224383072Y-83979414D01*
X224523212Y-84081232D01*
X224677555Y-84159873D01*
X224842299Y-84213402D01*
X225013389Y-84240500D01*
X225013390Y-84240500D01*
X225986610Y-84240500D01*
X225986611Y-84240500D01*
X226157701Y-84213402D01*
X226322445Y-84159873D01*
X226476788Y-84081232D01*
X226616928Y-83979414D01*
X226739414Y-83856928D01*
X226841232Y-83716788D01*
X226919873Y-83562445D01*
X226973402Y-83397701D01*
X227000500Y-83226611D01*
X227000500Y-83053389D01*
X226973402Y-82882299D01*
X226919873Y-82717555D01*
X226841232Y-82563212D01*
X226739414Y-82423072D01*
X226616928Y-82300586D01*
X226476788Y-82198768D01*
X226322445Y-82120127D01*
X226157701Y-82066598D01*
X226157699Y-82066597D01*
X226157698Y-82066597D01*
X226026271Y-82045781D01*
X225986611Y-82039500D01*
X225013389Y-82039500D01*
X224973728Y-82045781D01*
X224842302Y-82066597D01*
X224842299Y-82066598D01*
X224692516Y-82115266D01*
X224677552Y-82120128D01*
X224523211Y-82198768D01*
X224443256Y-82256859D01*
X224383072Y-82300586D01*
X224383070Y-82300588D01*
X224383069Y-82300588D01*
X224260588Y-82423069D01*
X224260588Y-82423070D01*
X224260586Y-82423072D01*
X224226956Y-82469360D01*
X224158768Y-82563211D01*
X224080128Y-82717552D01*
X224026597Y-82882302D01*
X224004350Y-83022768D01*
X223999500Y-83053389D01*
X213735844Y-83053389D01*
X216275845Y-80513389D01*
X223999500Y-80513389D01*
X223999500Y-80686610D01*
X224018071Y-80803868D01*
X224026598Y-80857701D01*
X224080127Y-81022445D01*
X224158768Y-81176788D01*
X224260586Y-81316928D01*
X224383072Y-81439414D01*
X224523212Y-81541232D01*
X224677555Y-81619873D01*
X224842299Y-81673402D01*
X225013389Y-81700500D01*
X225013390Y-81700500D01*
X225986610Y-81700500D01*
X225986611Y-81700500D01*
X226157701Y-81673402D01*
X226322445Y-81619873D01*
X226476788Y-81541232D01*
X226616928Y-81439414D01*
X226739414Y-81316928D01*
X226841232Y-81176788D01*
X226919873Y-81022445D01*
X226973402Y-80857701D01*
X227000500Y-80686611D01*
X227000500Y-80513389D01*
X226973402Y-80342299D01*
X226919873Y-80177555D01*
X226841232Y-80023212D01*
X226739414Y-79883072D01*
X226616928Y-79760586D01*
X226476788Y-79658768D01*
X226322445Y-79580127D01*
X226157701Y-79526598D01*
X226157699Y-79526597D01*
X226157698Y-79526597D01*
X226026271Y-79505781D01*
X225986611Y-79499500D01*
X225013389Y-79499500D01*
X224973728Y-79505781D01*
X224842302Y-79526597D01*
X224677552Y-79580128D01*
X224523211Y-79658768D01*
X224460504Y-79704328D01*
X224383072Y-79760586D01*
X224383070Y-79760588D01*
X224383069Y-79760588D01*
X224260588Y-79883069D01*
X224260588Y-79883070D01*
X224260586Y-79883072D01*
X224216859Y-79943256D01*
X224158768Y-80023211D01*
X224080128Y-80177552D01*
X224026597Y-80342302D01*
X223999500Y-80513389D01*
X216275845Y-80513389D01*
X218815845Y-77973389D01*
X223999500Y-77973389D01*
X223999500Y-78146610D01*
X224022849Y-78294035D01*
X224026598Y-78317701D01*
X224080127Y-78482445D01*
X224158768Y-78636788D01*
X224260586Y-78776928D01*
X224383072Y-78899414D01*
X224523212Y-79001232D01*
X224677555Y-79079873D01*
X224842299Y-79133402D01*
X225013389Y-79160500D01*
X225013390Y-79160500D01*
X225986610Y-79160500D01*
X225986611Y-79160500D01*
X226157701Y-79133402D01*
X226322445Y-79079873D01*
X226476788Y-79001232D01*
X226616928Y-78899414D01*
X226739414Y-78776928D01*
X226841232Y-78636788D01*
X226919873Y-78482445D01*
X226973402Y-78317701D01*
X227000500Y-78146611D01*
X227000500Y-77973389D01*
X226973402Y-77802299D01*
X226919873Y-77637555D01*
X226841232Y-77483212D01*
X226739414Y-77343072D01*
X226616928Y-77220586D01*
X226476788Y-77118768D01*
X226322445Y-77040127D01*
X226157701Y-76986598D01*
X226157699Y-76986597D01*
X226157698Y-76986597D01*
X226026271Y-76965781D01*
X225986611Y-76959500D01*
X225013389Y-76959500D01*
X224973728Y-76965781D01*
X224842302Y-76986597D01*
X224677552Y-77040128D01*
X224523211Y-77118768D01*
X224478295Y-77151402D01*
X224383072Y-77220586D01*
X224383070Y-77220588D01*
X224383069Y-77220588D01*
X224260588Y-77343069D01*
X224260588Y-77343070D01*
X224260586Y-77343072D01*
X224227323Y-77388855D01*
X224158768Y-77483211D01*
X224080128Y-77637552D01*
X224080127Y-77637554D01*
X224080127Y-77637555D01*
X224056301Y-77710883D01*
X224026597Y-77802302D01*
X223999500Y-77973389D01*
X218815845Y-77973389D01*
X223789561Y-72999673D01*
X223850882Y-72966190D01*
X223920574Y-72971174D01*
X223976507Y-73013046D01*
X223999713Y-73067958D01*
X224025988Y-73233853D01*
X224026598Y-73237701D01*
X224064925Y-73355659D01*
X224080128Y-73402447D01*
X224084779Y-73411575D01*
X224158768Y-73556788D01*
X224260586Y-73696928D01*
X224383072Y-73819414D01*
X224523212Y-73921232D01*
X224677555Y-73999873D01*
X224842299Y-74053402D01*
X225013389Y-74080500D01*
X225192403Y-74080500D01*
X225259442Y-74100185D01*
X225280084Y-74116819D01*
X225371084Y-74207819D01*
X225404569Y-74269142D01*
X225399585Y-74338834D01*
X225357713Y-74394767D01*
X225292249Y-74419184D01*
X225283403Y-74419500D01*
X225013389Y-74419500D01*
X224973728Y-74425781D01*
X224842302Y-74446597D01*
X224677552Y-74500128D01*
X224523211Y-74578768D01*
X224443256Y-74636859D01*
X224383072Y-74680586D01*
X224383070Y-74680588D01*
X224383069Y-74680588D01*
X224260588Y-74803069D01*
X224260588Y-74803070D01*
X224260586Y-74803072D01*
X224251620Y-74815413D01*
X224158768Y-74943211D01*
X224080128Y-75097552D01*
X224026597Y-75262302D01*
X223999500Y-75433389D01*
X223999500Y-75606605D01*
X223999499Y-75606608D01*
X224024682Y-75765606D01*
X224026598Y-75777701D01*
X224080065Y-75942255D01*
X224080128Y-75942447D01*
X224084779Y-75951575D01*
X224158768Y-76096788D01*
X224260586Y-76236928D01*
X224383072Y-76359414D01*
X224523212Y-76461232D01*
X224677555Y-76539873D01*
X224842299Y-76593402D01*
X225013389Y-76620500D01*
X225013390Y-76620500D01*
X225986610Y-76620500D01*
X225986611Y-76620500D01*
X226157701Y-76593402D01*
X226322445Y-76539873D01*
X226476788Y-76461232D01*
X226616928Y-76359414D01*
X226739414Y-76236928D01*
X226841232Y-76096788D01*
X226905117Y-75971404D01*
X226953091Y-75920609D01*
X227020912Y-75903813D01*
X227087047Y-75926350D01*
X227103283Y-75940018D01*
X227479684Y-76316419D01*
X227513169Y-76377742D01*
X227515406Y-76416252D01*
X227507159Y-76499998D01*
X227507159Y-76499999D01*
X227526475Y-76696129D01*
X227583688Y-76884733D01*
X227676586Y-77058532D01*
X227676590Y-77058539D01*
X227801616Y-77210883D01*
X227953960Y-77335909D01*
X227953967Y-77335913D01*
X228127766Y-77428811D01*
X228127769Y-77428811D01*
X228127773Y-77428814D01*
X228316368Y-77486024D01*
X228512500Y-77505341D01*
X228708632Y-77486024D01*
X228897227Y-77428814D01*
X228952072Y-77399499D01*
X229057639Y-77343072D01*
X229071038Y-77335910D01*
X229223383Y-77210883D01*
X229348410Y-77058538D01*
X229429617Y-76906610D01*
X229441311Y-76884733D01*
X229441311Y-76884732D01*
X229441314Y-76884727D01*
X229498524Y-76696132D01*
X229517841Y-76500000D01*
X229498524Y-76303868D01*
X229443618Y-76122871D01*
X229442995Y-76053005D01*
X229480243Y-75993892D01*
X229543537Y-75964301D01*
X229612781Y-75973626D01*
X229649960Y-75999195D01*
X230863181Y-77212416D01*
X230896666Y-77273739D01*
X230899500Y-77300097D01*
X230899500Y-82882465D01*
X230879815Y-82949504D01*
X230827011Y-82995259D01*
X230788102Y-83005823D01*
X230747202Y-83010001D01*
X230747200Y-83010001D01*
X230580668Y-83065185D01*
X230580663Y-83065187D01*
X230431342Y-83157289D01*
X230307289Y-83281342D01*
X230215187Y-83430663D01*
X230215185Y-83430668D01*
X230210325Y-83445334D01*
X230160001Y-83597203D01*
X230160001Y-83597204D01*
X230160000Y-83597204D01*
X230149500Y-83699983D01*
X230149500Y-85250001D01*
X230149501Y-85250018D01*
X230160000Y-85352796D01*
X230160001Y-85352799D01*
X230204148Y-85486024D01*
X230215186Y-85519334D01*
X230307288Y-85668656D01*
X230431344Y-85792712D01*
X230580666Y-85884814D01*
X230747203Y-85939999D01*
X230849991Y-85950500D01*
X232150008Y-85950499D01*
X232252797Y-85939999D01*
X232419334Y-85884814D01*
X232568656Y-85792712D01*
X232692712Y-85668656D01*
X232784814Y-85519334D01*
X232784814Y-85519331D01*
X232788178Y-85513879D01*
X232840126Y-85467154D01*
X232909088Y-85455931D01*
X232973170Y-85483774D01*
X232981398Y-85491294D01*
X233120213Y-85630109D01*
X233292179Y-85755048D01*
X233292181Y-85755049D01*
X233292184Y-85755051D01*
X233481588Y-85851557D01*
X233683757Y-85917246D01*
X233893713Y-85950500D01*
X233893714Y-85950500D01*
X234106286Y-85950500D01*
X234106287Y-85950500D01*
X234316243Y-85917246D01*
X234518412Y-85851557D01*
X234707816Y-85755051D01*
X234746410Y-85727011D01*
X234879786Y-85630109D01*
X234879788Y-85630106D01*
X234879792Y-85630104D01*
X235030104Y-85479792D01*
X235149991Y-85314779D01*
X235205320Y-85272115D01*
X235274933Y-85266136D01*
X235336729Y-85298741D01*
X235350627Y-85314781D01*
X235470272Y-85479459D01*
X235470276Y-85479464D01*
X235620535Y-85629723D01*
X235620540Y-85629727D01*
X235792442Y-85754620D01*
X235981782Y-85851095D01*
X236183871Y-85916757D01*
X236250000Y-85927231D01*
X236250000Y-84879145D01*
X236316657Y-84917630D01*
X236437465Y-84950000D01*
X236562535Y-84950000D01*
X236683343Y-84917630D01*
X236750000Y-84879145D01*
X236750000Y-85927230D01*
X236816126Y-85916757D01*
X236816129Y-85916757D01*
X237018217Y-85851095D01*
X237207557Y-85754620D01*
X237379459Y-85629727D01*
X237379464Y-85629723D01*
X237529723Y-85479464D01*
X237529727Y-85479459D01*
X237654620Y-85307557D01*
X237751095Y-85118217D01*
X237816757Y-84916130D01*
X237816757Y-84916127D01*
X237847030Y-84725000D01*
X236904146Y-84725000D01*
X236942630Y-84658343D01*
X236975000Y-84537535D01*
X236975000Y-84412465D01*
X236942630Y-84291657D01*
X236904146Y-84225000D01*
X237847030Y-84225000D01*
X237816757Y-84033872D01*
X237816757Y-84033869D01*
X237751095Y-83831782D01*
X237654620Y-83642442D01*
X237529727Y-83470540D01*
X237529723Y-83470535D01*
X237379464Y-83320276D01*
X237379459Y-83320272D01*
X237207557Y-83195379D01*
X237018215Y-83098903D01*
X236816124Y-83033241D01*
X236750000Y-83022768D01*
X236750000Y-84070854D01*
X236683343Y-84032370D01*
X236562535Y-84000000D01*
X236437465Y-84000000D01*
X236316657Y-84032370D01*
X236250000Y-84070854D01*
X236250000Y-83022768D01*
X236249999Y-83022768D01*
X236183875Y-83033241D01*
X235981784Y-83098903D01*
X235792442Y-83195379D01*
X235620540Y-83320272D01*
X235620535Y-83320276D01*
X235470276Y-83470535D01*
X235470272Y-83470540D01*
X235350627Y-83635218D01*
X235295297Y-83677884D01*
X235225684Y-83683863D01*
X235163889Y-83651257D01*
X235149991Y-83635218D01*
X235030109Y-83470214D01*
X235030105Y-83470209D01*
X234879786Y-83319890D01*
X234751615Y-83226770D01*
X234708949Y-83171441D01*
X234700500Y-83126452D01*
X234700500Y-65341518D01*
X234720185Y-65274479D01*
X234736814Y-65253842D01*
X235896405Y-64094250D01*
X238979157Y-64094250D01*
X238990350Y-64150524D01*
X238990351Y-64150526D01*
X239069500Y-64341608D01*
X239069505Y-64341618D01*
X239184410Y-64513585D01*
X239184413Y-64513589D01*
X239330660Y-64659836D01*
X239330664Y-64659839D01*
X239502631Y-64774744D01*
X239502641Y-64774749D01*
X239693725Y-64853899D01*
X239693733Y-64853901D01*
X239896579Y-64894249D01*
X239896583Y-64894250D01*
X240150000Y-64894250D01*
X240650000Y-64894250D01*
X240903417Y-64894250D01*
X240903420Y-64894249D01*
X241106266Y-64853901D01*
X241106274Y-64853899D01*
X241297358Y-64774749D01*
X241297368Y-64774744D01*
X241469335Y-64659839D01*
X241469339Y-64659836D01*
X241615586Y-64513589D01*
X241615589Y-64513585D01*
X241730494Y-64341618D01*
X241730499Y-64341608D01*
X241809648Y-64150526D01*
X241809649Y-64150524D01*
X241820843Y-64094250D01*
X240650000Y-64094250D01*
X240650000Y-64894250D01*
X240150000Y-64894250D01*
X240150000Y-64094250D01*
X238979157Y-64094250D01*
X235896405Y-64094250D01*
X235952339Y-64038316D01*
X236013660Y-64004833D01*
X236027855Y-64002597D01*
X236196132Y-63986024D01*
X236384727Y-63928814D01*
X236399691Y-63920816D01*
X236548044Y-63841519D01*
X236558538Y-63835910D01*
X236596850Y-63804468D01*
X239800000Y-63804468D01*
X239800000Y-63884032D01*
X239830448Y-63957541D01*
X239886709Y-64013802D01*
X239960218Y-64044250D01*
X240839782Y-64044250D01*
X240913291Y-64013802D01*
X240969552Y-63957541D01*
X241000000Y-63884032D01*
X241000000Y-63804468D01*
X240969552Y-63730959D01*
X240913291Y-63674698D01*
X240839782Y-63644250D01*
X239960218Y-63644250D01*
X239886709Y-63674698D01*
X239830448Y-63730959D01*
X239800000Y-63804468D01*
X236596850Y-63804468D01*
X236710883Y-63710883D01*
X236806602Y-63594250D01*
X238979157Y-63594250D01*
X240150000Y-63594250D01*
X240650000Y-63594250D01*
X241820843Y-63594250D01*
X241809649Y-63537975D01*
X241809648Y-63537973D01*
X241730499Y-63346891D01*
X241730494Y-63346881D01*
X241615589Y-63174914D01*
X241615586Y-63174910D01*
X241469339Y-63028663D01*
X241469335Y-63028660D01*
X241297368Y-62913755D01*
X241297358Y-62913750D01*
X241106274Y-62834600D01*
X241106266Y-62834598D01*
X240903420Y-62794250D01*
X240650000Y-62794250D01*
X240650000Y-63594250D01*
X240150000Y-63594250D01*
X240150000Y-62794250D01*
X239896579Y-62794250D01*
X239693733Y-62834598D01*
X239693725Y-62834600D01*
X239502641Y-62913750D01*
X239502631Y-62913755D01*
X239330664Y-63028660D01*
X239330660Y-63028663D01*
X239184413Y-63174910D01*
X239184410Y-63174914D01*
X239069505Y-63346881D01*
X239069500Y-63346891D01*
X238990351Y-63537973D01*
X238990350Y-63537975D01*
X238979157Y-63594250D01*
X236806602Y-63594250D01*
X236835910Y-63558538D01*
X236904077Y-63431006D01*
X236928811Y-63384733D01*
X236928811Y-63384732D01*
X236928814Y-63384727D01*
X236986024Y-63196132D01*
X237005341Y-63000000D01*
X236986024Y-62803868D01*
X236928814Y-62615273D01*
X236928811Y-62615269D01*
X236928811Y-62615266D01*
X236835913Y-62441467D01*
X236835909Y-62441460D01*
X236710883Y-62289116D01*
X236558539Y-62164090D01*
X236558532Y-62164086D01*
X236384733Y-62071188D01*
X236384727Y-62071186D01*
X236196132Y-62013976D01*
X236196129Y-62013975D01*
X236000000Y-61994659D01*
X235803870Y-62013975D01*
X235615266Y-62071188D01*
X235441467Y-62164086D01*
X235441460Y-62164090D01*
X235289116Y-62289116D01*
X235164090Y-62441460D01*
X235164086Y-62441467D01*
X235071188Y-62615266D01*
X235013975Y-62803870D01*
X234997403Y-62972133D01*
X234971242Y-63036921D01*
X234961681Y-63047660D01*
X233812181Y-64197161D01*
X233750858Y-64230646D01*
X233681166Y-64225662D01*
X233625233Y-64183790D01*
X233600816Y-64118326D01*
X233600500Y-64109480D01*
X233600500Y-53420945D01*
X233600500Y-53420943D01*
X233563802Y-53283983D01*
X233563802Y-53283982D01*
X233559577Y-53268215D01*
X233516364Y-53193368D01*
X233516363Y-53193367D01*
X233503803Y-53171613D01*
X233480520Y-53131284D01*
X233368716Y-53019480D01*
X233368715Y-53019479D01*
X233364385Y-53015149D01*
X233364374Y-53015139D01*
X231487590Y-51138355D01*
X231487588Y-51138352D01*
X231368717Y-51019481D01*
X231368716Y-51019480D01*
X231261948Y-50957838D01*
X231261947Y-50957837D01*
X231231783Y-50940422D01*
X231175881Y-50925443D01*
X231079057Y-50899499D01*
X230920943Y-50899499D01*
X230913347Y-50899499D01*
X230913331Y-50899500D01*
X229205760Y-50899500D01*
X229138721Y-50879815D01*
X229092966Y-50827011D01*
X229083022Y-50757853D01*
X229112047Y-50694297D01*
X229127095Y-50679647D01*
X229210883Y-50610883D01*
X229306602Y-50494250D01*
X229335910Y-50458538D01*
X229428814Y-50284727D01*
X229486024Y-50096132D01*
X229505341Y-49900000D01*
X229486024Y-49703868D01*
X229483106Y-49694250D01*
X238979157Y-49694250D01*
X238990350Y-49750524D01*
X238990351Y-49750526D01*
X239069500Y-49941608D01*
X239069505Y-49941618D01*
X239184410Y-50113585D01*
X239184413Y-50113589D01*
X239330660Y-50259836D01*
X239330664Y-50259839D01*
X239502631Y-50374744D01*
X239502641Y-50374749D01*
X239693725Y-50453899D01*
X239693733Y-50453901D01*
X239896579Y-50494249D01*
X239896583Y-50494250D01*
X240150000Y-50494250D01*
X240650000Y-50494250D01*
X240903417Y-50494250D01*
X240903420Y-50494249D01*
X241106266Y-50453901D01*
X241106274Y-50453899D01*
X241297358Y-50374749D01*
X241297368Y-50374744D01*
X241469335Y-50259839D01*
X241469339Y-50259836D01*
X241615586Y-50113589D01*
X241615589Y-50113585D01*
X241730494Y-49941618D01*
X241730499Y-49941608D01*
X241809648Y-49750526D01*
X241809649Y-49750524D01*
X241820843Y-49694250D01*
X240650000Y-49694250D01*
X240650000Y-50494250D01*
X240150000Y-50494250D01*
X240150000Y-49694250D01*
X238979157Y-49694250D01*
X229483106Y-49694250D01*
X229428814Y-49515273D01*
X229428811Y-49515269D01*
X229428811Y-49515266D01*
X229369588Y-49404468D01*
X239800000Y-49404468D01*
X239800000Y-49484032D01*
X239830448Y-49557541D01*
X239886709Y-49613802D01*
X239960218Y-49644250D01*
X240839782Y-49644250D01*
X240913291Y-49613802D01*
X240969552Y-49557541D01*
X241000000Y-49484032D01*
X241000000Y-49404468D01*
X240969552Y-49330959D01*
X240913291Y-49274698D01*
X240839782Y-49244250D01*
X239960218Y-49244250D01*
X239886709Y-49274698D01*
X239830448Y-49330959D01*
X239800000Y-49404468D01*
X229369588Y-49404468D01*
X229335913Y-49341467D01*
X229335909Y-49341460D01*
X229228647Y-49210761D01*
X229221635Y-49194250D01*
X238979157Y-49194250D01*
X240150000Y-49194250D01*
X240650000Y-49194250D01*
X241820843Y-49194250D01*
X241809649Y-49137975D01*
X241809648Y-49137973D01*
X241730499Y-48946891D01*
X241730494Y-48946881D01*
X241615589Y-48774914D01*
X241615586Y-48774910D01*
X241469339Y-48628663D01*
X241469335Y-48628660D01*
X241297368Y-48513755D01*
X241297358Y-48513750D01*
X241106274Y-48434600D01*
X241106266Y-48434598D01*
X240903420Y-48394250D01*
X240650000Y-48394250D01*
X240650000Y-49194250D01*
X240150000Y-49194250D01*
X240150000Y-48394250D01*
X239896579Y-48394250D01*
X239693733Y-48434598D01*
X239693725Y-48434600D01*
X239502641Y-48513750D01*
X239502631Y-48513755D01*
X239330664Y-48628660D01*
X239330660Y-48628663D01*
X239184413Y-48774910D01*
X239184410Y-48774914D01*
X239069505Y-48946881D01*
X239069500Y-48946891D01*
X238990351Y-49137973D01*
X238990350Y-49137975D01*
X238979157Y-49194250D01*
X229221635Y-49194250D01*
X229201334Y-49146451D01*
X229200500Y-49132096D01*
X229200500Y-47431005D01*
X229193624Y-47396442D01*
X229183311Y-47344595D01*
X229183172Y-47343898D01*
X229178876Y-47322299D01*
X229173580Y-47295672D01*
X229120775Y-47168189D01*
X229044114Y-47053457D01*
X229044112Y-47053454D01*
X227946545Y-45955887D01*
X227831807Y-45879222D01*
X227704332Y-45826421D01*
X227704322Y-45826418D01*
X227568996Y-45799500D01*
X227568994Y-45799500D01*
X227568993Y-45799500D01*
X226950485Y-45799500D01*
X226883446Y-45779815D01*
X226837691Y-45727011D01*
X226827747Y-45657853D01*
X226840000Y-45619205D01*
X226851881Y-45595887D01*
X226919873Y-45462445D01*
X226973402Y-45297701D01*
X227000500Y-45126611D01*
X227000500Y-44953389D01*
X226973402Y-44782299D01*
X226919873Y-44617555D01*
X226841232Y-44463212D01*
X226739414Y-44323072D01*
X226616928Y-44200586D01*
X226476788Y-44098768D01*
X226322445Y-44020127D01*
X226157701Y-43966598D01*
X226157699Y-43966597D01*
X226157698Y-43966597D01*
X226026271Y-43945781D01*
X225986611Y-43939500D01*
X225013389Y-43939500D01*
X224973728Y-43945781D01*
X224842302Y-43966597D01*
X224677552Y-44020128D01*
X224523211Y-44098768D01*
X224496174Y-44118412D01*
X224383072Y-44200586D01*
X224383070Y-44200588D01*
X224383069Y-44200588D01*
X224260588Y-44323069D01*
X224260588Y-44323070D01*
X224260586Y-44323072D01*
X224238988Y-44352799D01*
X224158768Y-44463211D01*
X224080128Y-44617552D01*
X224026597Y-44782302D01*
X223999500Y-44953389D01*
X223999500Y-45126610D01*
X224026345Y-45296102D01*
X224017390Y-45365395D01*
X223972394Y-45418847D01*
X223905643Y-45439487D01*
X223903872Y-45439500D01*
X223291003Y-45439500D01*
X223182590Y-45461065D01*
X223182589Y-45461065D01*
X223155671Y-45466420D01*
X223028190Y-45519224D01*
X222913454Y-45595887D01*
X221587680Y-46921661D01*
X221526357Y-46955146D01*
X221456665Y-46950162D01*
X221412318Y-46921661D01*
X216740657Y-42249999D01*
X224025884Y-42249999D01*
X224025885Y-42250000D01*
X225184314Y-42250000D01*
X225179920Y-42254394D01*
X225127259Y-42345606D01*
X225100000Y-42447339D01*
X225100000Y-42552661D01*
X225127259Y-42654394D01*
X225179920Y-42745606D01*
X225184314Y-42750000D01*
X224025885Y-42750000D01*
X224027085Y-42757584D01*
X224080591Y-42922255D01*
X224159195Y-43076524D01*
X224260967Y-43216602D01*
X224383397Y-43339032D01*
X224523475Y-43440804D01*
X224677742Y-43519408D01*
X224842415Y-43572914D01*
X225013429Y-43600000D01*
X225250000Y-43600000D01*
X225250000Y-42815686D01*
X225254394Y-42820080D01*
X225345606Y-42872741D01*
X225447339Y-42900000D01*
X225552661Y-42900000D01*
X225654394Y-42872741D01*
X225745606Y-42820080D01*
X225750000Y-42815686D01*
X225750000Y-43600000D01*
X225986571Y-43600000D01*
X226157584Y-43572914D01*
X226322257Y-43519408D01*
X226476524Y-43440804D01*
X226616602Y-43339032D01*
X226739032Y-43216602D01*
X226840804Y-43076524D01*
X226919408Y-42922255D01*
X226972914Y-42757584D01*
X226974115Y-42750000D01*
X225815686Y-42750000D01*
X225820080Y-42745606D01*
X225846420Y-42699983D01*
X230149500Y-42699983D01*
X230149500Y-44250001D01*
X230149501Y-44250018D01*
X230160000Y-44352796D01*
X230160001Y-44352799D01*
X230205894Y-44491294D01*
X230215186Y-44519334D01*
X230307288Y-44668656D01*
X230431344Y-44792712D01*
X230580666Y-44884814D01*
X230747203Y-44939999D01*
X230849991Y-44950500D01*
X232150008Y-44950499D01*
X232252797Y-44939999D01*
X232419334Y-44884814D01*
X232568656Y-44792712D01*
X232692712Y-44668656D01*
X232784814Y-44519334D01*
X232784814Y-44519331D01*
X232788178Y-44513879D01*
X232840126Y-44467154D01*
X232909088Y-44455931D01*
X232973170Y-44483774D01*
X232981398Y-44491294D01*
X233120213Y-44630109D01*
X233292179Y-44755048D01*
X233292181Y-44755049D01*
X233292184Y-44755051D01*
X233481588Y-44851557D01*
X233683757Y-44917246D01*
X233893713Y-44950500D01*
X233893714Y-44950500D01*
X234106286Y-44950500D01*
X234106287Y-44950500D01*
X234316243Y-44917246D01*
X234518412Y-44851557D01*
X234707816Y-44755051D01*
X234729789Y-44739086D01*
X234879786Y-44630109D01*
X234879788Y-44630106D01*
X234879792Y-44630104D01*
X235030104Y-44479792D01*
X235149991Y-44314779D01*
X235205320Y-44272115D01*
X235274933Y-44266136D01*
X235336729Y-44298741D01*
X235350627Y-44314781D01*
X235470272Y-44479459D01*
X235470276Y-44479464D01*
X235620535Y-44629723D01*
X235620540Y-44629727D01*
X235792442Y-44754620D01*
X235981782Y-44851095D01*
X236183871Y-44916757D01*
X236250000Y-44927231D01*
X236250000Y-43879145D01*
X236316657Y-43917630D01*
X236437465Y-43950000D01*
X236562535Y-43950000D01*
X236683343Y-43917630D01*
X236750000Y-43879145D01*
X236750000Y-44927230D01*
X236816126Y-44916757D01*
X236816129Y-44916757D01*
X237018217Y-44851095D01*
X237207557Y-44754620D01*
X237379459Y-44629727D01*
X237379464Y-44629723D01*
X237529723Y-44479464D01*
X237529727Y-44479459D01*
X237654620Y-44307557D01*
X237751095Y-44118217D01*
X237816757Y-43916130D01*
X237816757Y-43916127D01*
X237847030Y-43725000D01*
X236904146Y-43725000D01*
X236942630Y-43658343D01*
X236975000Y-43537535D01*
X236975000Y-43412465D01*
X236942630Y-43291657D01*
X236904146Y-43225000D01*
X237847030Y-43225000D01*
X237816757Y-43033872D01*
X237816757Y-43033869D01*
X237751095Y-42831782D01*
X237654620Y-42642442D01*
X237529727Y-42470540D01*
X237529723Y-42470535D01*
X237379464Y-42320276D01*
X237379459Y-42320272D01*
X237207557Y-42195379D01*
X237018215Y-42098903D01*
X236816124Y-42033241D01*
X236750000Y-42022768D01*
X236750000Y-43070854D01*
X236683343Y-43032370D01*
X236562535Y-43000000D01*
X236437465Y-43000000D01*
X236316657Y-43032370D01*
X236250000Y-43070854D01*
X236250000Y-42022768D01*
X236249999Y-42022768D01*
X236183875Y-42033241D01*
X235981784Y-42098903D01*
X235792442Y-42195379D01*
X235620540Y-42320272D01*
X235620535Y-42320276D01*
X235470276Y-42470535D01*
X235470272Y-42470540D01*
X235350627Y-42635218D01*
X235295297Y-42677884D01*
X235225684Y-42683863D01*
X235163889Y-42651257D01*
X235149991Y-42635218D01*
X235030109Y-42470214D01*
X235030105Y-42470209D01*
X234879786Y-42319890D01*
X234707820Y-42194951D01*
X234518414Y-42098444D01*
X234518413Y-42098443D01*
X234518412Y-42098443D01*
X234316243Y-42032754D01*
X234316241Y-42032753D01*
X234316240Y-42032753D01*
X234154957Y-42007208D01*
X234106287Y-41999500D01*
X233893713Y-41999500D01*
X233845042Y-42007208D01*
X233683760Y-42032753D01*
X233481585Y-42098444D01*
X233292179Y-42194951D01*
X233120215Y-42319889D01*
X232981398Y-42458706D01*
X232920075Y-42492190D01*
X232850383Y-42487206D01*
X232794450Y-42445334D01*
X232788178Y-42436120D01*
X232692712Y-42281344D01*
X232568657Y-42157289D01*
X232568656Y-42157288D01*
X232419334Y-42065186D01*
X232252797Y-42010001D01*
X232252795Y-42010000D01*
X232150010Y-41999500D01*
X230849998Y-41999500D01*
X230849981Y-41999501D01*
X230747203Y-42010000D01*
X230747200Y-42010001D01*
X230580668Y-42065185D01*
X230580663Y-42065187D01*
X230431342Y-42157289D01*
X230307289Y-42281342D01*
X230215187Y-42430663D01*
X230215185Y-42430668D01*
X230210325Y-42445334D01*
X230160001Y-42597203D01*
X230160001Y-42597204D01*
X230160000Y-42597204D01*
X230149500Y-42699983D01*
X225846420Y-42699983D01*
X225872741Y-42654394D01*
X225900000Y-42552661D01*
X225900000Y-42447339D01*
X225872741Y-42345606D01*
X225820080Y-42254394D01*
X225815686Y-42250000D01*
X226974115Y-42250000D01*
X226974115Y-42249999D01*
X226972914Y-42242415D01*
X226919408Y-42077744D01*
X226840804Y-41923475D01*
X226739032Y-41783397D01*
X226616602Y-41660967D01*
X226476524Y-41559195D01*
X226322257Y-41480591D01*
X226157584Y-41427085D01*
X225986571Y-41400000D01*
X225750000Y-41400000D01*
X225750000Y-42184314D01*
X225745606Y-42179920D01*
X225654394Y-42127259D01*
X225552661Y-42100000D01*
X225447339Y-42100000D01*
X225345606Y-42127259D01*
X225254394Y-42179920D01*
X225250000Y-42184314D01*
X225250000Y-41400000D01*
X225013429Y-41400000D01*
X224842415Y-41427085D01*
X224677742Y-41480591D01*
X224523475Y-41559195D01*
X224383397Y-41660967D01*
X224260967Y-41783397D01*
X224159195Y-41923475D01*
X224080591Y-42077744D01*
X224027085Y-42242415D01*
X224025884Y-42249999D01*
X216740657Y-42249999D01*
X214946546Y-40455888D01*
X214946545Y-40455887D01*
X214831807Y-40379222D01*
X214704332Y-40326421D01*
X214704322Y-40326418D01*
X214568996Y-40299500D01*
X214568994Y-40299500D01*
X214568993Y-40299500D01*
X159626494Y-40299500D01*
X159488506Y-40299500D01*
X159488504Y-40299500D01*
X159353177Y-40326418D01*
X159353167Y-40326421D01*
X159225692Y-40379222D01*
X159110954Y-40455887D01*
X146105160Y-53461681D01*
X146043837Y-53495166D01*
X146029633Y-53497403D01*
X145861370Y-53513975D01*
X145672766Y-53571188D01*
X145498967Y-53664086D01*
X145498960Y-53664090D01*
X145346616Y-53789116D01*
X145221590Y-53941460D01*
X145221586Y-53941467D01*
X145128688Y-54115266D01*
X145071475Y-54303870D01*
X145052159Y-54500000D01*
X141476215Y-54500000D01*
X141343993Y-54448777D01*
X141303556Y-54433112D01*
X141102347Y-54395500D01*
X140897653Y-54395500D01*
X140696444Y-54433112D01*
X140696441Y-54433112D01*
X140696441Y-54433113D01*
X140505575Y-54507054D01*
X140505569Y-54507057D01*
X140331539Y-54614812D01*
X140331537Y-54614814D01*
X140180269Y-54752712D01*
X140056912Y-54916064D01*
X139965673Y-55099295D01*
X139909654Y-55296183D01*
X139890768Y-55499999D01*
X139609232Y-55499999D01*
X139590345Y-55296179D01*
X139534328Y-55099299D01*
X139443088Y-54916065D01*
X139323598Y-54757834D01*
X139319730Y-54752712D01*
X139168462Y-54614814D01*
X139168460Y-54614812D01*
X138994430Y-54507057D01*
X138994424Y-54507054D01*
X138843993Y-54448777D01*
X138803556Y-54433112D01*
X138602347Y-54395500D01*
X138397653Y-54395500D01*
X138196444Y-54433112D01*
X138196441Y-54433112D01*
X138196441Y-54433113D01*
X138005575Y-54507054D01*
X138005569Y-54507057D01*
X137831539Y-54614812D01*
X137831537Y-54614814D01*
X137680269Y-54752712D01*
X137556912Y-54916064D01*
X137465673Y-55099295D01*
X137409654Y-55296183D01*
X137390768Y-55499999D01*
X135000500Y-55499999D01*
X135000500Y-51499999D01*
X137390768Y-51499999D01*
X137390768Y-51500000D01*
X137409654Y-51703816D01*
X137409654Y-51703818D01*
X137409655Y-51703821D01*
X137442878Y-51820588D01*
X137465673Y-51900704D01*
X137556912Y-52083935D01*
X137680269Y-52247287D01*
X137831537Y-52385185D01*
X137831539Y-52385187D01*
X138005569Y-52492942D01*
X138005575Y-52492945D01*
X138046010Y-52508609D01*
X138196444Y-52566888D01*
X138397653Y-52604500D01*
X138397656Y-52604500D01*
X138602344Y-52604500D01*
X138602347Y-52604500D01*
X138803556Y-52566888D01*
X138994427Y-52492944D01*
X139168462Y-52385186D01*
X139319732Y-52247285D01*
X139443088Y-52083935D01*
X139534328Y-51900701D01*
X139590345Y-51703821D01*
X139609232Y-51500000D01*
X139609232Y-51499999D01*
X139890768Y-51499999D01*
X139890768Y-51500000D01*
X139909654Y-51703816D01*
X139909654Y-51703818D01*
X139909655Y-51703821D01*
X139942878Y-51820588D01*
X139965673Y-51900704D01*
X140056912Y-52083935D01*
X140180269Y-52247287D01*
X140331537Y-52385185D01*
X140331539Y-52385187D01*
X140505569Y-52492942D01*
X140505575Y-52492945D01*
X140546010Y-52508609D01*
X140696444Y-52566888D01*
X140897653Y-52604500D01*
X140897656Y-52604500D01*
X141102344Y-52604500D01*
X141102347Y-52604500D01*
X141303556Y-52566888D01*
X141494427Y-52492944D01*
X141668462Y-52385186D01*
X141819732Y-52247285D01*
X141943088Y-52083935D01*
X142034328Y-51900701D01*
X142090345Y-51703821D01*
X142109232Y-51500000D01*
X142090345Y-51296179D01*
X142034328Y-51099299D01*
X141943088Y-50916065D01*
X141819732Y-50752715D01*
X141819730Y-50752712D01*
X141668462Y-50614814D01*
X141668460Y-50614812D01*
X141494430Y-50507057D01*
X141494424Y-50507054D01*
X141343993Y-50448777D01*
X141303556Y-50433112D01*
X141102347Y-50395500D01*
X140897653Y-50395500D01*
X140696444Y-50433112D01*
X140696441Y-50433112D01*
X140696441Y-50433113D01*
X140505575Y-50507054D01*
X140505569Y-50507057D01*
X140331539Y-50614812D01*
X140331537Y-50614814D01*
X140180269Y-50752712D01*
X140056912Y-50916064D01*
X139965673Y-51099295D01*
X139909654Y-51296183D01*
X139890768Y-51499999D01*
X139609232Y-51499999D01*
X139590345Y-51296179D01*
X139534328Y-51099299D01*
X139443088Y-50916065D01*
X139319732Y-50752715D01*
X139319730Y-50752712D01*
X139168462Y-50614814D01*
X139168460Y-50614812D01*
X138994430Y-50507057D01*
X138994424Y-50507054D01*
X138843993Y-50448777D01*
X138803556Y-50433112D01*
X138602347Y-50395500D01*
X138397653Y-50395500D01*
X138196444Y-50433112D01*
X138196441Y-50433112D01*
X138196441Y-50433113D01*
X138005575Y-50507054D01*
X138005569Y-50507057D01*
X137831539Y-50614812D01*
X137831537Y-50614814D01*
X137680269Y-50752712D01*
X137556912Y-50916064D01*
X137465673Y-51099295D01*
X137409654Y-51296183D01*
X137390768Y-51499999D01*
X135000500Y-51499999D01*
X135000500Y-48647357D01*
X135020185Y-48580318D01*
X135072989Y-48534563D01*
X135142147Y-48524619D01*
X135205703Y-48553644D01*
X135239061Y-48599905D01*
X135297188Y-48740239D01*
X135297190Y-48740242D01*
X135430875Y-48958396D01*
X135430878Y-48958401D01*
X135483062Y-49019500D01*
X135597044Y-49152956D01*
X135703936Y-49244250D01*
X135791598Y-49319121D01*
X135791600Y-49319122D01*
X135791601Y-49319123D01*
X135930872Y-49404468D01*
X136009757Y-49452809D01*
X136009760Y-49452811D01*
X136228007Y-49543211D01*
X136246140Y-49550722D01*
X136494930Y-49610452D01*
X136750000Y-49630526D01*
X137005070Y-49610452D01*
X137253860Y-49550722D01*
X137452637Y-49468386D01*
X137490239Y-49452811D01*
X137490240Y-49452810D01*
X137490243Y-49452809D01*
X137708399Y-49319123D01*
X137902956Y-49152956D01*
X138069123Y-48958399D01*
X138202809Y-48740243D01*
X138226382Y-48683334D01*
X138293526Y-48521232D01*
X138300722Y-48503860D01*
X138360452Y-48255070D01*
X138380526Y-48000000D01*
X141119474Y-48000000D01*
X141139547Y-48255064D01*
X141139547Y-48255067D01*
X141139548Y-48255070D01*
X141182650Y-48434600D01*
X141199279Y-48503864D01*
X141297188Y-48740239D01*
X141297190Y-48740242D01*
X141430875Y-48958396D01*
X141430878Y-48958401D01*
X141483062Y-49019500D01*
X141597044Y-49152956D01*
X141703936Y-49244250D01*
X141791598Y-49319121D01*
X141791600Y-49319122D01*
X141791601Y-49319123D01*
X141930872Y-49404468D01*
X142009757Y-49452809D01*
X142009760Y-49452811D01*
X142228007Y-49543211D01*
X142246140Y-49550722D01*
X142494930Y-49610452D01*
X142750000Y-49630526D01*
X143005070Y-49610452D01*
X143253860Y-49550722D01*
X143452637Y-49468386D01*
X143490239Y-49452811D01*
X143490240Y-49452810D01*
X143490243Y-49452809D01*
X143708399Y-49319123D01*
X143902956Y-49152956D01*
X144069123Y-48958399D01*
X144202809Y-48740243D01*
X144226382Y-48683334D01*
X144293526Y-48521232D01*
X144300722Y-48503860D01*
X144360452Y-48255070D01*
X144380526Y-48000000D01*
X144360452Y-47744930D01*
X144300722Y-47496140D01*
X144300720Y-47496135D01*
X144202811Y-47259760D01*
X144202809Y-47259757D01*
X144076388Y-47053457D01*
X144069123Y-47041601D01*
X144069122Y-47041600D01*
X144069121Y-47041598D01*
X144009319Y-46971579D01*
X143902956Y-46847044D01*
X143778312Y-46740588D01*
X143708401Y-46680878D01*
X143708396Y-46680875D01*
X143490242Y-46547190D01*
X143490239Y-46547188D01*
X143253864Y-46449279D01*
X143253860Y-46449278D01*
X143005070Y-46389548D01*
X143005067Y-46389547D01*
X143005064Y-46389547D01*
X142750000Y-46369474D01*
X142494935Y-46389547D01*
X142494931Y-46389547D01*
X142494930Y-46389548D01*
X142370535Y-46419413D01*
X142246135Y-46449279D01*
X142009760Y-46547188D01*
X142009757Y-46547190D01*
X141791603Y-46680875D01*
X141791598Y-46680878D01*
X141597044Y-46847044D01*
X141430878Y-47041598D01*
X141430875Y-47041603D01*
X141297190Y-47259757D01*
X141297188Y-47259760D01*
X141199279Y-47496135D01*
X141199278Y-47496140D01*
X141148846Y-47706204D01*
X141139547Y-47744935D01*
X141119474Y-48000000D01*
X138380526Y-48000000D01*
X138360452Y-47744930D01*
X138300722Y-47496140D01*
X138300720Y-47496135D01*
X138202811Y-47259760D01*
X138202809Y-47259757D01*
X138076388Y-47053457D01*
X138069123Y-47041601D01*
X138069122Y-47041600D01*
X138069121Y-47041598D01*
X138009319Y-46971579D01*
X137902956Y-46847044D01*
X137778312Y-46740588D01*
X137708401Y-46680878D01*
X137708396Y-46680875D01*
X137490242Y-46547190D01*
X137490239Y-46547188D01*
X137253864Y-46449279D01*
X137253860Y-46449278D01*
X137005070Y-46389548D01*
X137005067Y-46389547D01*
X137005064Y-46389547D01*
X136750000Y-46369474D01*
X136494935Y-46389547D01*
X136494931Y-46389547D01*
X136494930Y-46389548D01*
X136370535Y-46419413D01*
X136246135Y-46449279D01*
X136009760Y-46547188D01*
X136009757Y-46547190D01*
X135791603Y-46680875D01*
X135791598Y-46680878D01*
X135597044Y-46847044D01*
X135430878Y-47041598D01*
X135430875Y-47041603D01*
X135297190Y-47259756D01*
X135239061Y-47400095D01*
X135195220Y-47454498D01*
X135128926Y-47476563D01*
X135061227Y-47459284D01*
X135013616Y-47408147D01*
X135000500Y-47352642D01*
X135000500Y-38878711D01*
X136649500Y-38878711D01*
X136649500Y-39121288D01*
X136681161Y-39361785D01*
X136743947Y-39596104D01*
X136836773Y-39820205D01*
X136836776Y-39820212D01*
X136958064Y-40030289D01*
X136958066Y-40030292D01*
X136958067Y-40030293D01*
X137105733Y-40222736D01*
X137105739Y-40222743D01*
X137277256Y-40394260D01*
X137277263Y-40394266D01*
X137357571Y-40455888D01*
X137469711Y-40541936D01*
X137679788Y-40663224D01*
X137903900Y-40756054D01*
X138138211Y-40818838D01*
X138318586Y-40842584D01*
X138378711Y-40850500D01*
X138378712Y-40850500D01*
X138621289Y-40850500D01*
X138669388Y-40844167D01*
X138861789Y-40818838D01*
X139096100Y-40756054D01*
X139320212Y-40663224D01*
X139530289Y-40541936D01*
X139722738Y-40394265D01*
X139894265Y-40222738D01*
X140041936Y-40030289D01*
X140163224Y-39820212D01*
X140256054Y-39596100D01*
X140318838Y-39361789D01*
X140350500Y-39121288D01*
X140350500Y-38878712D01*
X140350500Y-38878711D01*
X245149500Y-38878711D01*
X245149500Y-39121288D01*
X245181161Y-39361785D01*
X245243947Y-39596104D01*
X245336773Y-39820205D01*
X245336776Y-39820212D01*
X245458064Y-40030289D01*
X245458066Y-40030292D01*
X245458067Y-40030293D01*
X245605733Y-40222736D01*
X245605739Y-40222743D01*
X245777256Y-40394260D01*
X245777263Y-40394266D01*
X245857571Y-40455888D01*
X245969711Y-40541936D01*
X246179788Y-40663224D01*
X246403900Y-40756054D01*
X246638211Y-40818838D01*
X246818586Y-40842584D01*
X246878711Y-40850500D01*
X246878712Y-40850500D01*
X247121289Y-40850500D01*
X247169388Y-40844167D01*
X247361789Y-40818838D01*
X247596100Y-40756054D01*
X247820212Y-40663224D01*
X248030289Y-40541936D01*
X248222738Y-40394265D01*
X248394265Y-40222738D01*
X248541936Y-40030289D01*
X248663224Y-39820212D01*
X248756054Y-39596100D01*
X248818838Y-39361789D01*
X248850500Y-39121288D01*
X248850500Y-38878712D01*
X248818838Y-38638211D01*
X248756054Y-38403900D01*
X248663224Y-38179788D01*
X248541936Y-37969711D01*
X248394265Y-37777262D01*
X248394260Y-37777256D01*
X248222743Y-37605739D01*
X248222736Y-37605733D01*
X248030293Y-37458067D01*
X248030292Y-37458066D01*
X248030289Y-37458064D01*
X247820212Y-37336776D01*
X247820205Y-37336773D01*
X247596104Y-37243947D01*
X247361785Y-37181161D01*
X247121289Y-37149500D01*
X247121288Y-37149500D01*
X246878712Y-37149500D01*
X246878711Y-37149500D01*
X246638214Y-37181161D01*
X246403895Y-37243947D01*
X246179794Y-37336773D01*
X246179785Y-37336777D01*
X245969706Y-37458067D01*
X245777263Y-37605733D01*
X245777256Y-37605739D01*
X245605739Y-37777256D01*
X245605733Y-37777263D01*
X245458067Y-37969706D01*
X245336777Y-38179785D01*
X245336773Y-38179794D01*
X245243947Y-38403895D01*
X245181161Y-38638214D01*
X245149500Y-38878711D01*
X140350500Y-38878711D01*
X140318838Y-38638211D01*
X140256054Y-38403900D01*
X140163224Y-38179788D01*
X140041936Y-37969711D01*
X139894265Y-37777262D01*
X139894260Y-37777256D01*
X139722743Y-37605739D01*
X139722736Y-37605733D01*
X139530293Y-37458067D01*
X139530292Y-37458066D01*
X139530289Y-37458064D01*
X139320212Y-37336776D01*
X139320205Y-37336773D01*
X139096104Y-37243947D01*
X138861785Y-37181161D01*
X138621289Y-37149500D01*
X138621288Y-37149500D01*
X138378712Y-37149500D01*
X138378711Y-37149500D01*
X138138214Y-37181161D01*
X137903895Y-37243947D01*
X137679794Y-37336773D01*
X137679785Y-37336777D01*
X137469706Y-37458067D01*
X137277263Y-37605733D01*
X137277256Y-37605739D01*
X137105739Y-37777256D01*
X137105733Y-37777263D01*
X136958067Y-37969706D01*
X136836777Y-38179785D01*
X136836773Y-38179794D01*
X136743947Y-38403895D01*
X136681161Y-38638214D01*
X136649500Y-38878711D01*
X135000500Y-38878711D01*
X135000500Y-35624500D01*
X135020185Y-35557461D01*
X135072989Y-35511706D01*
X135124500Y-35500500D01*
X250375500Y-35500500D01*
X250442539Y-35520185D01*
G37*
%TD.AperFunction*%
%TD*%
M02*
